<?xml version="1.0" encoding="utf-8"?>
<!-- Generator: Adobe Illustrator 24.1.0, SVG Export Plug-In . SVG Version: 6.00 Build 0)  -->
<svg version="1.1"
	 id="svg1936" inkscape:version="0.91 r13725" sodipodi:docname="Amazon II.svg" xmlns:cc="http://creativecommons.org/ns#" xmlns:dc="http://purl.org/dc/elements/1.1/" xmlns:inkscape="http://www.inkscape.org/namespaces/inkscape" xmlns:rdf="http://www.w3.org/1999/02/22-rdf-syntax-ns#" xmlns:sodipodi="http://sodipodi.sourceforge.net/DTD/sodipodi-0.dtd" xmlns:svg="http://www.w3.org/2000/svg"
	 xmlns="http://www.w3.org/2000/svg" xmlns:xlink="http://www.w3.org/1999/xlink" x="0px" y="0px" viewBox="0 0 161 59.4"
	 style="enable-background:new 0 0 161 59.4;" xml:space="preserve">
<style type="text/css">
	.st0{fill-rule:evenodd;clip-rule:evenodd;fill:#FF9900;}
	.st1{fill-rule:evenodd;clip-rule:evenodd;}
</style>
<sodipodi:namedview  bordercolor="#666666" borderopacity="1" gridtolerance="10" guidetolerance="10" id="namedview19" inkscape:current-layer="svg1936" inkscape:cx="426.12453" inkscape:cy="94.816171" inkscape:pageopacity="0" inkscape:pageshadow="2" inkscape:window-height="705" inkscape:window-maximized="1" inkscape:window-width="1366" inkscape:window-x="-8" inkscape:window-y="-8" inkscape:zoom="0.72245926" objecttolerance="10" pagecolor="#ffffff" showgrid="false">
	</sodipodi:namedview>
<g>
	<path id="path8" inkscape:connector-curvature="0" class="st0" d="M99.7,42.5c-9,6.6-22.1,10.2-33.3,10.2c-15.8,0-30-5.8-40.7-15.5
		c-0.8-0.8-0.1-1.8,0.9-1.2c11.6,6.7,25.9,10.8,40.7,10.8c10,0,21-2.1,31-6.3C99.9,39.8,101.2,41.4,99.7,42.5"/>
	<path id="path10" inkscape:connector-curvature="0" class="st0" d="M103.4,38.2c-1.1-1.5-7.6-0.7-10.5-0.4c-0.9,0.1-1-0.7-0.2-1.2
		c5.1-3.6,13.6-2.6,14.6-1.4c1,1.2-0.3,9.7-5.1,13.7c-0.7,0.6-1.5,0.3-1.1-0.5C102.1,45.8,104.6,39.7,103.4,38.2"/>
	<path id="path12" inkscape:connector-curvature="0" class="st1" d="M93.1,11.1V7.6c0-0.5,0.4-0.9,0.9-0.9h15.8
		c0.5,0,0.9,0.4,0.9,0.9v3c0,0.5-0.4,1.2-1.2,2.2l-8.2,11.7c3-0.1,6.2,0.4,9,1.9c0.6,0.4,0.8,0.9,0.8,1.4v3.8c0,0.5-0.6,1.1-1.2,0.8
		c-4.9-2.5-11.3-2.8-16.7,0c-0.5,0.3-1.1-0.3-1.1-0.8V28c0-0.6,0-1.6,0.6-2.4l9.5-13.6H94C93.5,12,93.1,11.6,93.1,11.1"/>
	<path id="path14" inkscape:connector-curvature="0" class="st1" d="M35.6,33.1h-4.8c-0.5,0-0.8-0.4-0.9-0.8V7.6
		c0-0.5,0.4-0.9,0.9-0.9h4.5c0.5,0,0.8,0.4,0.9,0.8v3.2h0.1c1.2-3.1,3.4-4.6,6.3-4.6c3,0,4.9,1.5,6.2,4.6c1.2-3.1,3.8-4.6,6.6-4.6
		c2,0,4.2,0.8,5.6,2.7c1.5,2.1,1.2,5.1,1.2,7.7l0,15.5c0,0.5-0.4,0.9-0.9,0.9h-4.8c-0.5,0-0.9-0.4-0.9-0.9v-13c0-1,0.1-3.6-0.1-4.6
		c-0.4-1.7-1.4-2.1-2.8-2.1c-1.2,0-2.4,0.8-2.9,2c-0.5,1.2-0.4,3.3-0.4,4.7v13c0,0.5-0.4,0.9-0.9,0.9h-4.8c-0.5,0-0.9-0.4-0.9-0.9
		l0-13c0-2.7,0.5-6.8-3-6.8c-3.4,0-3.3,3.9-3.3,6.8v13C36.5,32.7,36.1,33.1,35.6,33.1"/>
	<path id="path16" inkscape:connector-curvature="0" class="st1" d="M124.2,6.2c7.1,0,11,6.1,11,13.9c0,7.5-4.3,13.5-11,13.5
		c-7,0-10.8-6.1-10.8-13.7C113.4,12.2,117.3,6.2,124.2,6.2 M124.3,11.3c-3.5,0-3.8,4.8-3.8,7.8c0,3,0,9.4,3.7,9.4
		c3.7,0,3.9-5.2,3.9-8.3c0-2.1-0.1-4.6-0.7-6.5C126.9,11.9,125.8,11.3,124.3,11.3"/>
	<path id="path18" inkscape:connector-curvature="0" class="st1" d="M144.4,33.1h-4.8c-0.5,0-0.9-0.4-0.9-0.9l0-24.6
		c0-0.5,0.4-0.8,0.9-0.8h4.4c0.4,0,0.8,0.3,0.9,0.7v3.8h0.1c1.3-3.4,3.2-5,6.5-5c2.2,0,4.3,0.8,5.6,2.9c1.3,2,1.3,5.3,1.3,7.7v15.5
		c-0.1,0.4-0.5,0.8-0.9,0.8h-4.8c-0.4,0-0.8-0.4-0.9-0.8V18.9c0-2.7,0.3-6.6-3-6.6c-1.2,0-2.2,0.8-2.8,2c-0.7,1.5-0.8,3-0.8,4.7
		v13.3C145.4,32.7,145,33.1,144.4,33.1"/>
	<path id="path28" inkscape:connector-curvature="0" class="st1" d="M80.5,21.3c0,1.9,0,3.4-0.9,5.1c-0.8,1.3-2,2.2-3.3,2.2
		c-1.8,0-2.9-1.4-2.9-3.5c0-4.1,3.7-4.8,7.1-4.8V21.3 M85.4,33c-0.3,0.3-0.8,0.3-1.1,0.1c-1.6-1.3-1.9-1.9-2.8-3.2
		c-2.6,2.7-4.5,3.5-7.9,3.5c-4,0-7.2-2.5-7.2-7.5c0-3.9,2.1-6.5,5.1-7.8c2.6-1.1,6.2-1.3,9-1.7v-0.6c0-1.1,0.1-2.5-0.6-3.5
		c-0.6-0.9-1.7-1.2-2.7-1.2c-1.8,0-3.5,0.9-3.9,2.9c-0.1,0.4-0.4,0.9-0.8,0.9l-4.6-0.5c-0.4-0.1-0.8-0.4-0.7-1
		C68.3,7.7,73.4,6,77.9,6c2.3,0,5.4,0.6,7.2,2.4c2.3,2.2,2.1,5.1,2.1,8.3v7.5c0,2.2,0.9,3.2,1.8,4.4c0.3,0.4,0.4,1,0,1.3
		C88.1,30.7,86.3,32.2,85.4,33L85.4,33"/>
	<path id="path30" inkscape:connector-curvature="0" class="st1" d="M17.6,21.3c0,1.9,0,3.4-0.9,5.1c-0.8,1.3-2,2.2-3.3,2.2
		c-1.8,0-2.9-1.4-2.9-3.5c0-4.1,3.7-4.8,7.1-4.8V21.3 M22.5,33c-0.3,0.3-0.8,0.3-1.1,0.1c-1.6-1.3-1.9-1.9-2.8-3.2
		c-2.6,2.7-4.5,3.5-7.9,3.5c-4,0-7.2-2.5-7.2-7.5c0-3.9,2.1-6.5,5.1-7.8c2.6-1.1,6.2-1.3,9-1.7v-0.6c0-1.1,0.1-2.5-0.6-3.5
		c-0.6-0.9-1.7-1.2-2.7-1.2c-1.8,0-3.5,0.9-3.9,2.9c-0.1,0.4-0.4,0.9-0.8,0.9L5,14.3c-0.4-0.1-0.8-0.4-0.7-1C5.4,7.7,10.5,6,15,6
		c2.3,0,5.4,0.6,7.2,2.4c2.3,2.2,2.1,5.1,2.1,8.3v7.5c0,2.2,0.9,3.2,1.8,4.4c0.3,0.4,0.4,1,0,1.3C25.2,30.7,23.4,32.2,22.5,33
		L22.5,33"/>
</g>
</svg>
