<?xml version="1.0" encoding="utf-8"?>
<!-- Generator: Adobe Illustrator 24.1.0, SVG Export Plug-In . SVG Version: 6.00 Build 0)  -->
<svg version="1.1"
	 id="bhf_icon-logo" inkscape:export-filename="G:\Users\suitedoalex\sites\svg\americanas-logo-0.png" inkscape:export-xdpi="96" inkscape:export-ydpi="96" inkscape:version="0.92.2 (5c3e80d, 2017-08-06)" sodipodi:docname="americanas-logo.svg" xmlns:cc="http://creativecommons.org/ns#" xmlns:dc="http://purl.org/dc/elements/1.1/" xmlns:inkscape="http://www.inkscape.org/namespaces/inkscape" xmlns:rdf="http://www.w3.org/1999/02/22-rdf-syntax-ns#" xmlns:sodipodi="http://sodipodi.sourceforge.net/DTD/sodipodi-0.dtd" xmlns:svg="http://www.w3.org/2000/svg"
	 xmlns="http://www.w3.org/2000/svg" xmlns:xlink="http://www.w3.org/1999/xlink" x="0px" y="0px" viewBox="0 0 211.5 33.4"
	 style="enable-background:new 0 0 211.5 33.4;" xml:space="preserve">
<style type="text/css">
	.st0{fill:#E60014;}
</style>
<sodipodi:namedview  bordercolor="#666666" borderopacity="1" gridtolerance="10" guidetolerance="10" id="namedview5" inkscape:current-layer="bhf_icon-logo" inkscape:cx="4197.7164" inkscape:cy="3473.9496" inkscape:pageopacity="0" inkscape:pageshadow="2" inkscape:window-height="837" inkscape:window-maximized="1" inkscape:window-width="1600" inkscape:window-x="-8" inkscape:window-y="-8" inkscape:zoom="0.04" objecttolerance="10" pagecolor="#ffffff" showgrid="false">
	</sodipodi:namedview>
<path id="path2-6" inkscape:connector-curvature="0" inkscape:export-xdpi="8.5485888" inkscape:export-ydpi="8.5485888" class="st0" d="
	M152.5,24.1c1.2,0,2.1-1.1,2.1-2.3c0-1.2-0.9-2.2-2.1-2.2s-2.2,1-2.2,2.2C150.4,23,151.4,24.1,152.5,24.1z M7.9,15.2
	c1.3-0.1,2.4-0.5,2.4-1.5c0-1.5-1.4-1.5-2.4-1.6c-1.9,0.1-2.1,0.8-2.5,2.1H1.8c0.3-4.3,3.4-5,6.1-5c2.8,0,6.1,0.8,6.1,4v8.6
	c0,0.8,0.2,1.1,0.8,1.5V24h-4.1c-0.2-0.5-0.2-1.1-0.3-1.7c-1.2,1.3-2.7,2.2-4.5,2.2c-2.6,0-4.5-1.5-4.5-4.3
	C1.4,15.9,4.9,15.5,7.9,15.2L7.9,15.2z M10.4,17c-1.6,1.1-5.2,0.4-5.2,2.9c0.1,1.3,0.7,1.8,1.9,1.8C9.8,21.2,10.5,20.4,10.4,17
	L10.4,17z M37.9,14.9v9.1H34v-9.2c0-1.4-1-2.4-2.2-2.4c-2,0.3-2.3,1.3-2.5,2.9v8.6h-3.8v-8.6c0.1-1.7-0.4-2.9-2.1-2.9
	c-2.5,0.1-2.5,1.3-2.5,2.8v8.7h-3.8V9.6h3.6v2.1c0.9-1.6,2.1-2.5,4.1-2.5s3.1,0.8,3.9,2.5c1-1.8,2.6-2.5,4.4-2.5
	C37.1,9.5,38,12.1,37.9,14.9z M43.9,17.8c0,2.3,1.3,3.6,3.2,3.6c1.4-0.1,2.2-0.7,2.6-1.7h3.8c-0.5,2.6-2.9,4.7-6.5,4.7
	c-1.3,0-7-0.4-7-7.6c0-5.6,3.3-7.7,6.8-7.7c3.6,0,6.9,1.8,6.8,8.5L43.9,17.8L43.9,17.8z M44,15.3h5.9c0-1.7-1.3-3-2.9-3
	C44.9,12.3,44.2,13.8,44,15.3L44,15.3z M64.5,9.2v3.8c-2.1-0.1-4.6-0.3-4.6,4V24h-3.7V9.5h3.5v2.6C61.1,9.6,62.5,9.1,64.5,9.2
	L64.5,9.2z M66.8,9.5h3.8V24h-3.8V9.5z M82.9,14.7c-0.3-1.7-1.3-2.4-2.5-2.4c-2.6,0-2.9,2.6-2.9,4.6c0,2.7,0.9,4.3,2.8,4.3
	c1.8-0.1,2.2-0.7,2.6-2.6h3.8c-0.5,3.4-2.7,5.7-6.5,5.7c-4.6-0.1-6.7-2.8-6.7-7.5c0-5.2,2.6-7.8,6.8-7.8c4.5,0,6.2,2.3,6.5,5.5
	L82.9,14.7z M95,15.2c1.2-0.1,2.3-0.5,2.3-1.5c0-1.5-1.4-1.5-2.4-1.6c-1.9,0.1-2.1,0.8-2.4,2.1h-3.7c0.3-3.5,2.5-5,6.3-5
	c2.8,0,6,1,6,4.1v8.5c0,0.8,0.2,1.1,0.8,1.5V24h-4.1c-0.2-0.6-0.2-1.2-0.3-1.7c-1.3,1.3-2.6,2.2-4.5,2.2c-2.7-0.1-4.5-1.5-4.5-4.3
	C88.5,16.9,90.4,15.6,95,15.2L95,15.2z M97.2,17c-0.8,0.5-1.8,0.7-2.6,0.8c-1.6,0.1-2.6,0.6-2.6,2.1c0.1,1.4,0.8,1.9,1.9,1.9
	C96.7,21.2,97.5,20.1,97.2,17z M117.3,14.3v9.7h-3.8v-8.8c0.1-1.7-0.5-2.8-2.4-2.8c-2.4,0-2.9,2-2.9,3.8v7.8h-3.8V9.6h3.7v2.1
	c0.9-1.6,2.3-2.5,4.3-2.5C115.2,9.3,117.3,10.3,117.3,14.3L117.3,14.3z M126.4,12.2c-1.6,0.1-2.3,0.6-2.5,2.1h-3.6
	c0.3-3.5,2.5-5,6.2-5c2.3,0,6.1,0.4,6.1,4.5v8.4c0.1,0.2,0,0.8,0.7,1.3v0.6h-4c-0.3-0.6-0.3-1.2-0.4-1.8c-1.2,1.4-2.6,2.2-4.4,2.3
	c-2.6,0-4.5-1.6-4.5-4.3c0.1-3.4,2.1-4.2,5.3-4.8c1.6-0.1,3.6-0.3,3.6-1.6C128.8,12.3,127.5,12.3,126.4,12.2L126.4,12.2z
	 M126.2,17.8c-1.1,0.1-2.6,0.5-2.6,2.1s1.1,1.8,1.9,1.9c2.6-0.2,3.3-1.4,3.3-4.7C127.9,17.5,126.9,17.7,126.2,17.8z M138.7,19.4
	c0.2,2.1,1.8,2.2,3,2.2s2.4-0.4,2.4-1.4c0.1-1.4-2.3-1.4-4.4-2.1c-2.1-0.5-4.5-1.3-4.4-4.1c0.2-3.7,3.2-4.8,6-4.8
	c4.1,0,6.1,1.7,6.3,4.7h-3.7c-0.2-1.4-1.1-1.9-2.6-1.9c-1.6,0-2.4,0.5-2.4,1.2c0,1.2,1.2,1.2,4.5,2.1c2.7,0.7,4.4,2,4.5,4.3
	c-0.2,3.7-2.8,4.9-6.5,4.9c-4.1,0-6.5-1.8-6.6-5.1L138.7,19.4L138.7,19.4z M165.9,14.8c-0.2-1.5-0.9-2.4-2.5-2.4
	c-2.6,0-2.9,2.5-2.9,4.6c-0.1,2,0.6,4.3,2.8,4.3c2,0,2.3-1.2,2.6-2.6h3.8c-0.4,3.4-2.6,5.7-6.4,5.7c-5.3,0-6.8-3.7-6.8-7.5
	c0-4.5,2.2-7.8,6.8-7.8c4.6,0,6.2,2.3,6.5,5.5L165.9,14.8z M178.8,24.5c-5.2,0-7.4-3.6-7.4-7.7c0.1-3.2,1.7-7.7,7.4-7.7
	c5.8,0,7.3,4.5,7.3,7.7C186,21.2,183.7,24.5,178.8,24.5z M182.2,16.9c0-2.4-0.7-4.5-3.3-4.5c-2.7,0-3.4,2.6-3.4,4.5
	c0,2.4,0.9,4.5,3.4,4.5C181.5,21.4,182.2,18.9,182.2,16.9z M209.4,14.4v9.6h-3.8v-9.1c0-1.4-0.7-2.4-2.2-2.4c-1.9,0-2.4,1.4-2.5,2.8
	v8.6h-3.8v-8.6c0.1-1.6-0.3-2.8-2.1-2.8c-2.3,0-2.5,1.3-2.5,2.8v8.6h-3.8V9.7h3.6v2.1c1-1.6,2.1-2.5,4.1-2.5c2.6,0,3.2,1,3.9,2.5
	c1.1-1.7,2.4-2.5,4.4-2.5C206,9.3,209.4,9.8,209.4,14.4L209.4,14.4z M1.5,2.1v3.5h147.7V2.1H1.5z M1.5,27.9v3.5h147.7v-3.5H1.5z"/>
</svg>
