<?xml version="1.0" encoding="utf-8"?>
<!-- Generator: Adobe Illustrator 24.1.0, SVG Export Plug-In . SVG Version: 6.00 Build 0)  -->
<svg version="1.1"
	 id="svg12" inkscape:export-filename="G:\Users\suitedoalex\sites\carrefour-logo-0.png" inkscape:export-xdpi="561.73712" inkscape:export-ydpi="561.73712" inkscape:version="0.92.4 (5da689c313, 2019-01-14)" sodipodi:docname="carrefour-logo.svg" xmlns:cc="http://creativecommons.org/ns#" xmlns:dc="http://purl.org/dc/elements/1.1/" xmlns:inkscape="http://www.inkscape.org/namespaces/inkscape" xmlns:rdf="http://www.w3.org/1999/02/22-rdf-syntax-ns#" xmlns:sodipodi="http://sodipodi.sourceforge.net/DTD/sodipodi-0.dtd" xmlns:svg="http://www.w3.org/2000/svg"
	 xmlns="http://www.w3.org/2000/svg" xmlns:xlink="http://www.w3.org/1999/xlink" x="0px" y="0px" viewBox="0 0 214.5 48"
	 style="enable-background:new 0 0 214.5 48;" xml:space="preserve">
<style type="text/css">
	.st0{fill:#EF3742;}
	.st1{fill:#1852CC;}
</style>
<sodipodi:namedview  bordercolor="#666666" borderopacity="1" gridtolerance="10" guidetolerance="10" id="namedview14" inkscape:current-layer="Group_1268-2" inkscape:cx="668.32782" inkscape:cy="-112.28636" inkscape:pageopacity="0" inkscape:pageshadow="2" inkscape:window-height="837" inkscape:window-maximized="1" inkscape:window-width="1600" inkscape:window-x="-8" inkscape:window-y="-8" inkscape:zoom="0.38339881" objecttolerance="10" pagecolor="#ffffff" showgrid="false">
	</sodipodi:namedview>
<g id="Group_1268" transform="matrix(4.5629149,0,0,4.5629149,-2100.2419,-67954.851)" inkscape:export-filename="G:\Users\suitedoalex\sites\carrefour-logo-4.png" inkscape:export-xdpi="54.647228" inkscape:export-ydpi="54.647228">
	<g id="Group_1270">
		<path id="Path_508" inkscape:connector-curvature="0" class="st0" d="M497.9,14894l-3.5,3.4c-0.3,0.2-0.4,0.7-0.1,1
			c0,0.1,0.1,0.1,0.1,0.1l3.5,3.4c0,0,0,0,0.1,0c0,0,0,0,0-0.1c0,0,0,0,0-0.1C496.1,14899.6,496.1,14896.4,497.9,14894
			c0.1,0.1,0.1,0,0.1,0C498,14894,498,14894,497.9,14894C497.9,14894,497.9,14894,497.9,14894"/>
		<path id="Path_509" inkscape:connector-curvature="0" class="st1" d="M500.6,14893.8c-1.4,0-1.9,1.9-1.9,4.3s0.5,4.3,1.9,4.3
			c0.8,0,1.5-0.5,1.5-0.9c0-0.1,0-0.2-0.1-0.2c-0.3-0.3-0.5-0.7-0.5-1.1c0-0.6,0.5-1.1,1.1-1.1c0.7,0,1.1,0.5,1.1,1.3
			c0,0.6-0.2,1.2-0.6,1.7c0,0,0,0,0,0c0,0,0,0.1,0,0.1c0,0,0,0,0.1,0l3.5-3.4c0.2-0.1,0.3-0.3,0.3-0.6c0-0.2-0.1-0.4-0.3-0.6
			l-3.5-3.4c0,0,0,0-0.1,0c0,0,0,0,0,0.1c0,0,0,0,0,0c0.4,0.5,0.6,1.1,0.6,1.7c0,0.7-0.4,1.3-1.1,1.3c-0.6,0-1.1-0.5-1.1-1.1
			c0-0.4,0.2-0.8,0.5-1.1c0.1-0.1,0.1-0.1,0.1-0.2C502.1,14894.3,501.4,14893.8,500.6,14893.8"/>
		<path id="Path_510" inkscape:connector-curvature="0" class="st1" d="M461.4,14899.5c-0.5-0.5-0.8-1.2-0.7-1.9
			c0-0.7,0.2-1.4,0.7-1.9c0.4-0.5,1-0.7,1.7-0.8c1.1,0,1.9,0.8,1.9,1.5c0,0.3-0.2,0.6-0.5,0.7c-0.1,0-0.3,0-0.4-0.1
			c-0.1-0.1-0.2-0.3-0.2-0.4c0-0.2,0.1-0.3,0.2-0.4c-0.2-0.3-0.5-0.5-0.9-0.5c-0.4,0-0.7,0.2-0.9,0.6c-0.3,0.4-0.4,1-0.4,1.5
			c0,0.5,0.1,1,0.4,1.5c0.2,0.3,0.6,0.6,1,0.6c0.4,0,0.7-0.2,0.9-0.5c-0.1-0.1-0.2-0.3-0.2-0.4c0-0.2,0.1-0.3,0.2-0.4
			c0.1-0.1,0.3-0.1,0.4-0.1c0.3,0,0.6,0.3,0.5,0.6c0,0,0,0,0,0c0,0.7-0.8,1.5-1.9,1.5C462.4,14900.3,461.8,14900,461.4,14899.5
			 M477.1,14897.8C477.2,14897.8,477.2,14897.8,477.1,14897.8l0.1-0.2c0-0.4-0.3-0.7-0.6-0.7c0,0,0,0,0,0c-0.5,0-0.7,0.4-0.8,0.8
			H477.1z M467,14898.4c-0.4,0-0.7,0.2-0.7,0.6c0,0.3,0.2,0.6,0.6,0.6c0,0,0,0,0.1,0c0.2,0,0.5-0.1,0.6-0.3v-0.5
			c0-0.1-0.1-0.2-0.1-0.2C467.3,14898.4,467.1,14898.4,467,14898.4 M481.7,14898.2c0,1,0.4,1.4,0.9,1.4c0.5,0,0.8-0.4,0.8-1.3
			c0-0.4-0.1-0.7-0.3-1c-0.1-0.2-0.4-0.4-0.6-0.4C482,14897,481.7,14897.4,481.7,14898.2 M469.5,14900.1c-0.2,0-0.3-0.1-0.3-0.3
			c0,0,0-0.1,0-0.2l0,0h0c0.1,0,0.2-0.1,0.2-0.1c0.1-0.1,0.1-0.2,0.1-0.5v-1.5c0-0.3-0.1-0.4-0.3-0.4c-0.1,0-0.1,0-0.2,0h0l0,0
			c0-0.1,0-0.1,0-0.2c0-0.3,0.3-0.4,0.6-0.5c0.1,0,0.2,0,0.2,0c0.3,0,0.5,0.2,0.5,0.5c0.2-0.3,0.5-0.5,0.8-0.5
			c0.3,0,0.6,0.2,0.6,0.5c0,0,0,0,0,0c0,0.3-0.2,0.5-0.5,0.5c0,0,0,0,0,0c-0.2,0-0.4-0.2-0.5-0.4c-0.2,0-0.4,0.3-0.4,1v0.9
			c0,0.3,0,0.4,0.1,0.5c0.1,0.1,0.2,0.1,0.3,0.1h0v0c0,0.1,0,0.1,0,0.2c0,0.1-0.1,0.2-0.2,0.3c-0.2,0.1-0.4,0.1-0.7,0.1
			C469.9,14900.2,469.7,14900.1,469.5,14900.1 M472.4,14900.1c-0.1,0-0.3-0.1-0.3-0.3c0-0.1,0-0.1,0-0.2l0,0l0,0
			c0.1,0,0.2-0.1,0.2-0.1c0.1-0.1,0.1-0.2,0.1-0.5v-1.5c0-0.3-0.1-0.4-0.3-0.4c-0.1,0-0.1,0-0.2,0h0l0,0c0-0.1,0-0.1,0-0.2
			c0-0.3,0.3-0.4,0.5-0.5c0.1,0,0.2,0,0.2,0c0.3,0,0.5,0.2,0.5,0.5c0.2-0.3,0.5-0.5,0.8-0.5c0.3,0,0.6,0.2,0.6,0.5c0,0,0,0,0,0
			c0,0.3-0.2,0.5-0.5,0.5c0,0,0,0,0,0c-0.2,0-0.4-0.2-0.4-0.4c-0.2,0-0.4,0.3-0.4,1v0.9c0,0.3,0,0.4,0.1,0.5
			c0.1,0.1,0.2,0.1,0.3,0.1h0l0,0c0,0.1,0,0.1,0,0.2c0,0.1-0.1,0.2-0.2,0.3c-0.2,0.1-0.4,0.1-0.7,0.1
			C472.9,14900.2,472.7,14900.1,472.4,14900.1 M478.7,14900.1c-0.2,0-0.3-0.1-0.3-0.3c0-0.1,0-0.1,0-0.2l0,0l0,0
			c0.1,0,0.2-0.1,0.3-0.1c0.1-0.1,0.1-0.2,0.1-0.5v-2l-0.5,0l0,0c0-0.1,0-0.1,0-0.2c0-0.2,0.1-0.3,0.3-0.3c0,0,0,0,0,0h0.2v-0.2
			c0-0.4,0.1-0.7,0.2-1c0.2-0.4,0.7-0.6,1.1-0.5c0.7,0,1.3,0.3,1.3,0.8c0,0.3-0.2,0.5-0.5,0.5c0,0,0,0,0,0c-0.3,0-0.5-0.2-0.5-0.5
			c0-0.1,0-0.2,0.1-0.3c-0.1-0.1-0.2-0.1-0.3-0.1c-0.2,0-0.3,0.1-0.4,0.2c-0.1,0.2-0.1,0.3-0.1,0.5v0.6h0.9l0,0c0,0.1,0,0.1,0,0.2
			c0,0.2-0.1,0.3-0.3,0.4h-0.2c-0.1,0-0.3,0-0.4,0v2c0,0.3,0,0.4,0.1,0.5c0.1,0.1,0.3,0.1,0.4,0.1h0v0c0,0,0,0.1,0,0.1
			c0,0.1-0.1,0.2-0.3,0.3c-0.2,0.1-0.5,0.1-0.7,0.1C479.2,14900.2,478.9,14900.2,478.7,14900.1 M489.2,14900.1
			c-0.1,0-0.3-0.1-0.3-0.3c0-0.1,0-0.1,0-0.2l0,0h0c0.1,0,0.2-0.1,0.2-0.1c0.1-0.1,0.1-0.2,0.1-0.5v-1.5c0-0.3,0-0.4-0.3-0.4
			c-0.1,0-0.1,0-0.2,0h0v0c0-0.1,0-0.1,0-0.2c0-0.3,0.3-0.4,0.5-0.5c0.1,0,0.2,0,0.3,0c0.3,0,0.5,0.2,0.5,0.5
			c0.2-0.3,0.5-0.5,0.8-0.5c0.3,0,0.6,0.2,0.6,0.5c0,0,0,0,0,0c0,0.3-0.2,0.5-0.5,0.5c-0.2,0-0.4-0.2-0.5-0.4c-0.2,0-0.4,0.3-0.4,1
			v0.9c0,0.3,0,0.4,0.1,0.5c0.1,0.1,0.2,0.1,0.3,0.1h0v0c0,0.1,0,0.1,0,0.2c0,0.1-0.1,0.2-0.2,0.2c-0.2,0.1-0.4,0.1-0.7,0.1
			C489.7,14900.2,489.4,14900.1,489.2,14900.1 M482.5,14900.2c-0.5,0-0.9-0.2-1.3-0.5c-0.4-0.4-0.6-0.9-0.5-1.4c0-1,0.8-1.9,1.8-1.9
			c0,0,0.1,0,0.1,0c0.5,0,1,0.2,1.3,0.5c0.3,0.4,0.5,0.9,0.5,1.4c0,0.5-0.2,1-0.5,1.4C483.5,14900,483,14900.2,482.5,14900.2
			 M474.9,14898.4c0-0.5,0.2-1,0.5-1.4c0.3-0.4,0.8-0.6,1.3-0.5c0.4,0,0.8,0.1,1.1,0.4c0.2,0.3,0.4,0.6,0.4,0.9c0,0.2,0,0.4-0.1,0.5
			v0h-2.3c0,0.6,0.5,1.1,1.1,1.1c0,0,0.1,0,0.1,0c0.3,0,0.7-0.1,0.9-0.4l0,0l0,0c0.1,0.1,0.2,0.2,0.1,0.3c0,0.4-0.4,0.9-1.4,0.9
			C475.6,14900.2,474.8,14899.4,474.9,14898.4 M487.4,14900c-0.1-0.1-0.1-0.2-0.1-0.4c0,0.1-0.1,0.1-0.1,0.1
			c-0.2,0.2-0.6,0.4-0.9,0.4c-0.4,0-0.7-0.1-0.9-0.4c-0.3-0.4-0.3-0.9-0.3-1.6v-0.7c0-0.3-0.1-0.4-0.3-0.4h-0.1l0,0c0,0,0-0.1,0-0.1
			c0-0.3,0.4-0.5,0.7-0.5c0.1,0,0.2,0,0.2,0c0.2,0,0.3,0.1,0.4,0.2c0.1,0.1,0.1,0.3,0.1,0.4v1.2c0,0.3,0,0.6,0.1,0.9
			c0.1,0.2,0.3,0.3,0.5,0.3c0.2,0,0.4-0.1,0.6-0.3c0.1-0.2,0.1-0.4,0.1-0.7v-0.9c0-0.3-0.1-0.4-0.4-0.4h-0.1l0,0c0,0,0-0.1,0-0.1
			c0-0.3,0.4-0.5,0.7-0.5c0.1,0,0.2,0,0.2,0c0.2,0,0.3,0.1,0.4,0.2c0.1,0.1,0.1,0.3,0.1,0.4v1.3c0,0.4,0,0.6,0,0.7
			c0,0.3,0.1,0.4,0.4,0.4h0.1l0,0c0,0,0,0.1,0,0.1c0,0.3-0.4,0.4-0.7,0.5c-0.1,0-0.1,0-0.2,0l0,0
			C487.6,14900.2,487.4,14900.1,487.4,14900 M465.3,14899c0-0.3,0.1-0.7,0.4-0.8c0.3-0.2,0.7-0.3,1.1-0.3c0.3,0,0.5,0,0.7,0.1v-0.4
			c0-0.4-0.1-0.6-0.6-0.6c-0.1,0-0.3,0-0.4,0.1c0,0.1,0,0.1,0,0.2c0,0.1,0,0.3-0.1,0.4c-0.1,0.1-0.2,0.2-0.4,0.1
			c-0.2,0-0.4-0.2-0.4-0.5c0,0,0,0,0,0c0-0.5,0.6-0.8,1.4-0.8c0.6,0,1,0.1,1.2,0.4c0.2,0.2,0.2,0.6,0.2,1.1v1.3
			c0,0.3,0.1,0.3,0.4,0.4h0v0c0,0.3-0.2,0.5-0.5,0.5c0,0,0,0,0,0h-0.1c-0.3,0-0.5-0.2-0.7-0.4c-0.3,0.2-0.7,0.4-1,0.4
			C465.9,14900.2,465.4,14899.7,465.3,14899"/>
	</g>
</g>
</svg>
