<?xml version="1.0" encoding="utf-8"?>
<!-- Generator: Adobe Illustrator 24.1.0, SVG Export Plug-In . SVG Version: 6.00 Build 0)  -->
<svg version="1.1"
	 id="svg8" inkscape:export-filename="C:\Users\suitedoalex\sites\casas-bahia-logo-0-novo.png" inkscape:export-xdpi="561.73712" inkscape:export-ydpi="561.73712" inkscape:version="0.92.4 (5da689c313, 2019-01-14)" sodipodi:docname="casas-bahia-logo.svg" xmlns:cc="http://creativecommons.org/ns#" xmlns:dc="http://purl.org/dc/elements/1.1/" xmlns:inkscape="http://www.inkscape.org/namespaces/inkscape" xmlns:rdf="http://www.w3.org/1999/02/22-rdf-syntax-ns#" xmlns:sodipodi="http://sodipodi.sourceforge.net/DTD/sodipodi-0.dtd" xmlns:svg="http://www.w3.org/2000/svg"
	 xmlns="http://www.w3.org/2000/svg" xmlns:xlink="http://www.w3.org/1999/xlink" x="0px" y="0px" viewBox="0 0 188.9 24"
	 style="enable-background:new 0 0 188.9 24;" xml:space="preserve">
<style type="text/css">
	.st0{fill:#E71A3B;}
	.st1{fill:#0033C6;}
</style>
<sodipodi:namedview  bordercolor="#666666" borderopacity="1.0" id="base" inkscape:current-layer="layer1" inkscape:cx="-250.21012" inkscape:cy="-97.515719" inkscape:document-units="mm" inkscape:pageopacity="0.0" inkscape:pageshadow="2" inkscape:window-height="837" inkscape:window-maximized="1" inkscape:window-width="1600" inkscape:window-x="-8" inkscape:window-y="-8" inkscape:zoom="0.25" pagecolor="#ffffff" showgrid="false" units="px">
	</sodipodi:namedview>
<g id="layer1" transform="translate(0,-111.79165)" inkscape:groupmode="layer" inkscape:label="Layer 1">
	
		<g id="logo" transform="matrix(0.77688443,0,0,0.77688443,-247.89207,-73.072756)" inkscape:export-filename="C:\Users\suitedoalex\sites\casas-bahia-logo-5.png" inkscape:export-xdpi="238.99219" inkscape:export-ydpi="238.99219">
		<g id="Grupo_14" transform="translate(445.924,347.082)">
			<path id="Caminho_22" inkscape:connector-curvature="0" class="st0" d="M18.9-93.1c2.4-0.8,4-3,3.9-5.5c0-3.8-3-6.2-8-6.2H4v24.4
				h11.2c5.4,0,8.8-2.7,8.8-6.7C24.1-90.2,21.9-92.8,18.9-93.1L18.9-93.1z M7.4-101.9h7c3.3,0,5.1,1.4,5.1,3.7
				c0,2.4-1.9,3.9-5.4,3.9H7.4L7.4-101.9z M15-83.5H7.4v-7.7h7.7c3.4,0,5.5,1.3,5.5,3.7C20.6-85.3,18.6-83.5,15-83.5L15-83.5z"/>
			<path id="Caminho_23" inkscape:connector-curvature="0" class="st0" d="M37.3-105L26.5-80.5h3.7l2.7-6.3H45l2.7,6.3h3.7L40.5-105
				C40.5-105,37.3-105,37.3-105z M34.2-90l4.7-11l4.7,11C43.7-90,34.2-90,34.2-90z"/>
			<path id="Caminho_24" inkscape:connector-curvature="0" class="st0" d="M72.4-94.1H59v-10.8h-3.4v24.3H59v-10.4h13.4v10.4h3.4
				v-24.3h-3.4V-94.1z"/>
			<rect id="Retângulo_19" x="82.6" y="-104.9" class="st0" width="3.4" height="24.3"/>
			<path id="Caminho_25" inkscape:connector-curvature="0" class="st0" d="M104.1-105h-3.2L90.1-80.5h3.7l2.7-6.3h12.2l2.7,6.3h3.7
				L104.1-105z M97.8-90l4.8-11l4.7,11C107.3-90,97.8-90,97.8-90z"/>
		</g>
		<g id="Grupo_15" transform="translate(339.788,346.76)">
			<path id="Caminho_26" inkscape:connector-curvature="0" class="st1" d="M16.3-104.7L6-80.2h6.4l1.6-4.2h10.3l1.6,4.2h6.4
				l-10.3-24.5H16.3z M16.1-89.5l3.1-8.1l3.1,8.1H16.1z"/>
			<path id="Caminho_27" inkscape:connector-curvature="0" class="st1" d="M47.4-94.6L44-95.4c-1.9-0.4-2.9-1-2.9-2.4
				c0-1.6,1.4-2.5,3.6-2.5c2-0.2,3.8,1.3,4,3.3h6.1c-0.6-6.6-6.5-8.1-10.4-8.1c-5.7,0-9.7,3.1-9.7,8c0,3.9,2.3,6,7,7.1l4,0.8
				c2.1,0.4,2.6,1.3,2.6,2.1c0,1.4-1.3,2.2-3.4,2.2c-2.9,0-4.7-1.4-5.1-3.6h-6.1c0.6,6,5.5,8.7,11,8.7c6,0,10.1-3,10.1-7.9
				C54.8-91.8,51.9-93.6,47.4-94.6L47.4-94.6z"/>
			<path id="Caminho_28" inkscape:connector-curvature="0" class="st1" d="M66.7-104.7L56.3-80.2h6.4l1.6-4.2h10.3l1.6,4.2h6.4
				l-10.3-24.5H66.7z M66.4-89.5l3.1-8.1l3.1,8.1H66.4z"/>
			<path id="Caminho_29" inkscape:connector-curvature="0" class="st1" d="M97.7-94.6l-3.4-0.8c-1.9-0.4-2.9-1-2.9-2.4
				c0-1.6,1.4-2.5,3.6-2.5c2-0.2,3.8,1.3,4,3.3h6.1c-0.6-6.6-6.5-8.1-10.4-8.1c-5.7,0-9.7,3.1-9.7,8c0,3.9,2.3,6,7,7.1l4,0.8
				c2.1,0.4,2.6,1.3,2.6,2.1c0,1.4-1.3,2.2-3.4,2.2c-2.9,0-4.7-1.4-5.1-3.6H84c0.6,6,5.5,8.7,11,8.7c6.1,0,10.1-3,10.1-7.9
				C105-91.8,102.2-93.6,97.7-94.6L97.7-94.6z"/>
			<path id="Caminho_30" inkscape:connector-curvature="0" class="st1" d="M-0.7-90.3c-0.5,2.9-3,5.1-6,4.9
				c-3.9-0.2-6.9-3.4-6.7-7.3c0.1-3.7,3.1-6.6,6.7-6.8c3-0.1,5.6,2,6,4.9l6.1-1c-1-5.8-6.2-9.9-12-9.6c-7-0.1-12.8,5.5-12.9,12.5
				s5.5,12.8,12.4,12.9c0.1,0,0.3,0,0.4,0c5.9,0.3,11-3.9,12.1-9.7L-0.7-90.3L-0.7-90.3z"/>
		</g>
	</g>
</g>
</svg>
