<?xml version="1.0" encoding="utf-8"?>
<!-- Generator: Adobe Illustrator 24.1.0, SVG Export Plug-In . SVG Version: 6.00 Build 0)  -->
<svg version="1.1" id="Camada_1" xmlns="http://www.w3.org/2000/svg" xmlns:xlink="http://www.w3.org/1999/xlink" x="0px" y="0px"
	 viewBox="0 0 202 202" style="enable-background:new 0 0 202 202;" xml:space="preserve">
<style type="text/css">
	.st0{fill-rule:evenodd;clip-rule:evenodd;fill:#5600FF;}
</style>
<g>
	<g>
		<path class="st0" d="M173.2,55.6c-4.7-10.7-14.1-15.3-27.1-17.9c-5-1-12.4-1-17.2,0.2c-10,2.5-17.5,7.9-23,14.9
			c-1.9,2.4-4.6,4.9-5.7,7.8c-0.1,0-0.1,0.1-0.2,0.1c-1.7-3.2-4.2-5.7-6.3-8.5c-7-8.8-17.1-15.4-33.2-15.1c-0.9,0.1-1.9,0.1-2.8,0.2
			c-2.4,0.3-4.7,0.7-7.1,1c-8.5,2.1-15.6,5.5-20.3,11.4c-7.5,9.7-8.3,23.4-3.1,36.3c7,17.7,19.5,31,30.4,44.9
			c2.5,2.8,4.9,5.5,7.4,8.3c7.3,9.1,16,17.2,24.3,25.4c2.3,2.3,6.4,7.4,11.5,6.5c4.6-0.8,6.2-3.5,9.1-5.8c2.9-2.3,5.2-5.4,8-7.7
			c2.7-2.2,5.5-5,7.6-7.7c3.6-3.8,7.2-7.6,10.8-11.3c2.6-3,5.2-5.9,7.8-8.9c9.4-11.9,19.8-23.4,26.3-38.2
			C175,81.4,178.4,67.3,173.2,55.6z M154,87.6c-7.3,13.5-16.9,24.4-26.1,35.9c-3.5,3.8-6.9,7.6-10.4,11.3c-1.7,1.8-3.3,3.5-5,5.3
			c-1.9,2.4-4.3,4.8-6.6,6.7c-1.3,1.2-2.5,2.5-3.8,3.7l-1.9,1.9c-1.4-1.3-2.7-2.7-4.1-4c-3.7-3.9-7.5-7.8-11.2-11.7
			c-3.6-4-7.2-8-10.8-12c-8.8-11.1-18.4-21.5-25.7-34.1c-4.2-7.3-11.8-21.9-4.3-31.6c2.6-3.5,7.1-4.9,12.1-6c2-0.2,3.9-0.3,5.9-0.5
			c13.4,0,21.3,11.4,25.9,20.3c1,2.1,2,4.2,3,6.3c1.9,4.9,2.7,8,9,8.5c7.4,0.6,8.5-6.9,10.7-11.7c3.9-8.8,10.9-18.7,20-22.2
			c7.7-3,21-0.1,24.7,4.6C161.8,66.1,158.1,80,154,87.6z"/>
	</g>
</g>
</svg>
