<?xml version="1.0" encoding="utf-8"?>
<!-- Generator: Adobe Illustrator 24.1.0, SVG Export Plug-In . SVG Version: 6.00 Build 0)  -->
<svg version="1.1" id="Camada_1" xmlns="http://www.w3.org/2000/svg" xmlns:xlink="http://www.w3.org/1999/xlink" x="0px" y="0px"
	 viewBox="0 0 202 202" style="enable-background:new 0 0 202 202;" xml:space="preserve">
<style type="text/css">
	.st0{fill:#5600FF;}
</style>
<g>
	<g>
		<path class="st0" d="M148.2,56.5c0-3,0.3-6.4-0.3-9c-0.7-3.4-2-6.1-3.7-8.5c-2.6-3.6-6.5-6.2-11.5-7.4c-2.1-0.5-4.9-0.4-7.5-0.4
			H67.2c-0.7,0.1-1.4,0.2-2.2,0.3c-1.2,0.3-2.3,0.7-3.5,1c-4.8,1.9-8.8,5.6-10.8,10.3C48,48.9,49,60,49,68.7v76.1
			c0,6.6,0,12.3,2.4,16.3c2.6,4.5,6.5,7.9,11.9,9.6c3.9,1.2,10,0.7,14.9,0.7h42.4c7.1,0,12.8,0.2,17.3-2.4c4.5-2.7,7.9-6.6,9.5-12.1
			c0.8-2.8,0.7-6.5,0.7-10.1V56.5z M61.3,51.7c0.8-3.1,2.6-5.5,5.1-7c2.5-1.5,6.1-1.4,10.2-1.4H118c6.6,0,10.6-0.5,14.3,2.5
			c1.7,1.3,2.9,3.5,3.5,5.9c0.4,1.7,0.2,3.9,0.2,5.9v70.2H61V57.5C61,55.5,60.9,53.3,61.3,51.7z M132.4,156.7
			c-4.1,3.3-9.5,2.6-16.7,2.6H81.4c-7.2,0-12.6,0.7-16.7-2.6c-4.4-3.5-3.7-9.9-3.7-17.7h75.1C136.2,146.8,136.8,153.2,132.4,156.7z
			 M97.4,56.5c4.8-0.5,4.7-7.5-0.5-7.4c-1.4,0.6-2.4,0.9-3,2.3C92.9,54,94.9,56.8,97.4,56.5z M96.8,144.7c-1.5,0.6-2.5,1-3,2.6
			c-0.8,2.6,1.4,5.2,4.1,4.7C102.2,151.1,102,144.5,96.8,144.7z"/>
	</g>
</g>
</svg>
