<?xml version="1.0" encoding="utf-8"?>
<!-- Generator: Adobe Illustrator 24.1.0, SVG Export Plug-In . SVG Version: 6.00 Build 0)  -->
<svg version="1.1" id="Camada_1" xmlns="http://www.w3.org/2000/svg" xmlns:xlink="http://www.w3.org/1999/xlink" x="0px" y="0px"
	 viewBox="0 0 202 202" style="enable-background:new 0 0 202 202;" xml:space="preserve">
<style type="text/css">
	.st0{fill-rule:evenodd;clip-rule:evenodd;fill:#5600FF;}
</style>
<g>
	<g>
		<path class="st0" d="M163.4,128V60c0-2.7,0.2-5.4-0.8-7c-2.1-3.4-5.4-3-10.7-3H42c-5.7,1-5.5,4.9-5.5,11.4v68.5
			c0,2.6-0.1,5,0.9,6.6c1.5,2.5,4,2.9,8.2,2.9c0,1.7-0.4,6.2,0.4,7.1c0.7,1,6.9,0.6,8.8,0.6c0.9,0,2.1,0.1,2.7-0.3
			c0.6-0.4,2.5-6.3,2.7-7.4c26.5,0,53,0,79.6-0.1c0.3,1.2,2,7,2.7,7.4c0.6,0.4,1.8,0.3,2.8,0.3c2.2,0,8.1,0.5,8.8-0.7
			c0.6-1,0.3-5.4,0.3-7c4.1,0,6.5-0.3,8.1-2.7C163.6,134.8,163.4,131.3,163.4,128z M117.5,123.6c-0.4,0.5-1.1,1-1.9,1.2
			c-3.8,0-7.7,0-11.5,0.1H54.8c-2.1,0-3.8,0.1-4.8-1.1c-1.3-1.6-0.7-9.3-0.7-12.3V78.6c0-3.4-0.7-11.8,1.1-13.2
			c1.5-1.2,6.7-0.7,9.4-0.7h48.6c2.4,0,7.1-0.5,8.5,0.6c0.7,0.5,0.8,1.2,1.2,2.1v51.6C118.1,120.6,118.2,122.6,117.5,123.6z
			 M135.9,122.3c-0.8,0.2-1.8,0.2-2.7,0.2c-3.5,0-5.4-1-6-3.9c-0.5-2.8,1.5-4.7,3.4-5.2c0.9,0,1.9-0.1,2.8-0.1c0.9,0,2-0.1,2.7,0.2
			c2,0.6,2.4,2,3.2,3.9C139.2,120.1,138,121.7,135.9,122.3z M136,106.9c-0.8,0.2-1.9,0.2-2.8,0.2c-3.6,0-5.5-1-6-3.9
			c-0.5-2.8,1.5-4.6,3.3-5.2c0.8-0.2,1.9-0.2,2.8-0.2c0.9,0,1.9-0.1,2.6,0.2c2.2,0.6,2.5,1.9,3.3,3.9
			C139.2,104.6,138,106.3,136,106.9z M137.7,84.5c-3.3-1.4-5.3-4.5-6-8.6c-1.3-7.4,6.8-14.2,14.1-11.4c3,1.2,5.2,3.3,6.4,6.3
			c0.4,0.9,0.3,2,0.7,3C152.8,81.9,145.9,88.1,137.7,84.5z M151.4,122.5c-1.1,0-2.3,0.1-3.1-0.3c-1.7-0.6-2.7-2-3-4
			c-0.4-2.5,1.8-4.5,3.6-4.9c0.9,0,1.8,0,2.6-0.1c0.7,0,1.5,0,2.2,0.1c2.5,0.6,2.7,1.9,3.6,4.1C157.4,121.2,155.2,122.5,151.4,122.5
			z M151.4,107.1c-0.9,0-1.8-0.1-2.7-0.1c-1.9-0.6-3.1-2-3.4-4.1c-0.4-2.6,1.7-4.4,3.5-4.9c0.9,0,1.8-0.1,2.7-0.1
			c0.9,0,1.8-0.1,2.5,0.2c2.3,0.7,2.4,1.9,3.3,4C157.4,105.8,155.2,107.1,151.4,107.1z M109,82c-0.6-1.5-0.7-2.5-1.9-3.4
			c-2.3-1.7-5.4-0.4-6.6,1.4c-1.1,1.9-0.6,6.2-0.6,9v16.1c0,5-0.4,8.8,3.9,9.6c1.1,0.2,2.2-0.2,2.8-0.6c2.7-1.6,2.4-3.9,2.4-8V82z"
			/>
	</g>
</g>
</svg>
