<?xml version="1.0" encoding="utf-8"?>
<!-- Generator: Adobe Illustrator 24.1.0, SVG Export Plug-In . SVG Version: 6.00 Build 0)  -->
<svg version="1.1"
	 id="svg78843" inkscape:version="0.92.3 (2405546, 2018-03-11)" sodipodi:docname="Extra logo 2005 horizontal.svg" xmlns:cc="http://creativecommons.org/ns#" xmlns:dc="http://purl.org/dc/elements/1.1/" xmlns:inkscape="http://www.inkscape.org/namespaces/inkscape" xmlns:rdf="http://www.w3.org/1999/02/22-rdf-syntax-ns#" xmlns:sodipodi="http://sodipodi.sourceforge.net/DTD/sodipodi-0.dtd" xmlns:svg="http://www.w3.org/2000/svg"
	 xmlns="http://www.w3.org/2000/svg" xmlns:xlink="http://www.w3.org/1999/xlink" x="0px" y="0px" viewBox="0 0 173.4 43.2"
	 style="enable-background:new 0 0 173.4 43.2;" xml:space="preserve">
<style type="text/css">
	.st0{fill:#0079C1;}
	.st1{fill:#ED1846;}
	.st2{fill-rule:evenodd;clip-rule:evenodd;fill:#ED1846;}
</style>
<sodipodi:namedview  bordercolor="#666666" borderopacity="1.0" fit-margin-bottom="0" fit-margin-left="0" fit-margin-right="0" fit-margin-top="0" id="base" inkscape:current-layer="layer1" inkscape:cx="156.66505" inkscape:cy="-146.12861" inkscape:document-units="px" inkscape:pageopacity="0.0" inkscape:pageshadow="2" inkscape:window-height="714" inkscape:window-maximized="1" inkscape:window-width="1360" inkscape:window-x="0" inkscape:window-y="28" inkscape:zoom="0.49497475" pagecolor="#ffffff" showgrid="false" units="px">
	</sodipodi:namedview>
<g id="layer1" transform="translate(-27.800713,-27.37451)" inkscape:groupmode="layer" inkscape:label="Camada 1">
	<g id="g75503" transform="matrix(3.4267149,0,0,-3.4267149,52.01902,4027.0591)">
		<path id="path60434-6" inkscape:connector-curvature="0" class="st0" d="M40.9,1164.4h2.4c-1.6-2-4-3.5-6.4-4.5
			c-2.6-1.1-5.3-1.7-6.8-2.7c-0.5-0.3-0.7-0.6-0.9-0.9v1.6c0,0.5,0.7,1.1,1.3,1.4c1.4,0.7,3.2,1.1,5.7,2.2
			C37.7,1162.1,39.7,1163.2,40.9,1164.4"/>
		<path id="path60438-5" inkscape:connector-curvature="0" class="st1" d="M29.1,1163.2c0,0.5,0.4,1.2,1.2,1.2H40
			c-0.9-0.8-2.7-1.8-4.1-2.4c-1.6-0.7-2.7-1-4.7-1.7c-0.9-0.4-1.9-0.9-2.1-1.6L29.1,1163.2"/>
		<path id="path60442-3" inkscape:connector-curvature="0" class="st2" d="M16.8,1156.3c0.2,0,0.4,0.2,0.4,0.4v5
			c0,0.8,0.2,1.4,1.7,1.2c0.2,0,0.5,0,0.7-0.1v1c0,0.3-0.4,0.5-1.4,0.5c-2.6,0-3.4-1-3.4-3.5v-4.3c0-0.2,0.2-0.4,0.4-0.4
			L16.8,1156.3z M9.9,1165.5L9.9,1165.5c-0.3-0.3-0.3-0.7-0.3-0.9v-4.9c0-2.5,0.8-3.5,3.4-3.5c1,0,1.3,0.2,1.3,0.5v1.1
			c-0.1,0-0.3,0-0.5-0.1c-1.6-0.1-1.7,0.5-1.7,1.2v4h1.9c0.2,0,0.4,0.2,0.4,0.4v1.1H12v2.2C11.2,1166.3,10.3,1165.9,9.9,1165.5
			 M24.5,1160.3L24.5,1160.3v-2.6c-0.7-0.1-1.4-0.1-2.1-0.1c-0.4,0-0.8,0.4-0.8,0.8v1c0,0.4,0.4,0.8,0.8,0.8
			C23.4,1160.4,24.5,1160.3,24.5,1160.3 M22.6,1163L22.6,1163c1,0,2,0,2-1.4c-0.6,0-2.2,0.1-3.3-0.1c-0.9-0.1-1.8-0.7-1.9-1.3
			c-0.2-0.8-0.2-2,0.1-2.7c0.2-0.6,1-1.1,1.9-1.2c1.9-0.3,3.8-0.2,5.6,0v4.6c0,2.9-1.1,3.7-3.8,3.7c-1.3,0-2.1-0.1-2.5-0.2
			c-0.3-0.1-0.4-0.2-0.4-0.4v-1.1C20.9,1162.9,22.2,1163,22.6,1163 M4.1,1163.9L4.1,1163.9c-0.2,0.3-0.5,0.5-0.8,0.5H0.9
			c0.8-1.1,2.6-3.8,2.6-3.8s-0.8-0.9-1.5-1.7c-0.8-0.9-1.7-1.3-2.8-1.3c-0.3,0-2.2,0-2.4,0.1c-0.3,0.1-0.7,0.4-0.7,0.8
			c-0.1,0.4-0.1,0.8-0.1,1.2l3.6,0c1.7,0,1.7,2.1,1.6,2.8c-0.2,1-1,1.7-2,2c-0.7,0.2-2.3,0.3-3.6,0c-0.9-0.2-1.8-1-2-2
			c-0.2-1.3-0.3-2.8,0.1-4c0.2-0.9,0.8-1.6,1.6-1.9c0.7-0.2,2.3-0.3,3-0.3c2.5,0,3.6,0.1,4.8,1.2c0.5,0.4,0.9,1,1.5,1.7
			c0,0,1.1-1.8,1.4-2.3c0.2-0.3,0.5-0.5,0.8-0.5h2.6l-3.3,4.6l3,3.5H7c-0.3,0-0.6-0.2-0.8-0.5l-1.2-1.5
			C5,1162.4,4.3,1163.5,4.1,1163.9 M-4.1,1161.1v1.2c0,0.4,0.4,0.7,0.8,0.8c0.4,0,0.7,0,1,0c0.4,0,0.8-0.3,0.8-1c0-0.7-0.1-1-0.5-1
			H-4.1"/>
	</g>
</g>
</svg>
