<?xml version="1.0" encoding="utf-8"?>
<!-- Generator: Adobe Illustrator 24.1.0, SVG Export Plug-In . SVG Version: 6.00 Build 0)  -->
<svg version="1.1" id="Camada_1" xmlns="http://www.w3.org/2000/svg" xmlns:xlink="http://www.w3.org/1999/xlink" x="0px" y="0px"
	 viewBox="0 0 1001.4 65.2" style="enable-background:new 0 0 1001.4 65.2;" xml:space="preserve">
<style type="text/css">
	.st0{fill-rule:evenodd;clip-rule:evenodd;fill:#4A5871;}
	.st1{fill-rule:evenodd;clip-rule:evenodd;fill:#C9D1DD;}
	.st2{fill-rule:evenodd;clip-rule:evenodd;fill:#6B7A95;}
	.st3{fill:#4A5871;}
	.st4{fill:#2F333C;}
	.st5{fill:#4E5A71;}
	.st6{fill:#6B7A95;}
	.st7{fill:#3D4960;}
	.st8{fill:#A6B2C6;}
	.st9{fill:#7988A2;}
	.st10{fill:#53617C;}
	.st11{fill:#7B8AA4;}
	.st12{fill:#515F79;}
	.st13{fill:#0079BE;}
	.st14{fill:#FFFFFF;}
	.st15{fill:none;}
	.st16{fill:#63728D;}
	.st17{fill:#303A4E;}
</style>
<g>
	<polygon class="st0" points="724.8,16.6 774.7,16.6 774.7,49.6 724.8,49.6 	"/>
	<path class="st1" d="M749.8,21.9c5.5,0,9.9,4.4,9.9,9.9s-4.4,9.9-9.9,9.9s-9.9-4.4-9.9-9.9S744.3,21.9,749.8,21.9L749.8,21.9z"/>
	<path class="st2" d="M748.4,27.7c9.7,0,18.8,1.6,26.3,4.4v17.4h-49.9V31.2C731.8,29,739.8,27.7,748.4,27.7L748.4,27.7z"/>
	<path class="st1" d="M748.4,32.7c9.7,0,18.8,1.6,26.3,4.4v12.4h-49.9V36.2C731.8,34,739.8,32.7,748.4,32.7L748.4,32.7z"/>
	<g>
		<path class="st3" d="M735.3,43.5l3.8-5.3h1.4l4.1,5.3h-1.5l-1.2-1.6h-4.2l-1.1,1.6H735.3z M738.2,41.3h3.4l-1-1.5
			c-0.3-0.4-0.6-0.8-0.7-1.1c-0.1,0.3-0.3,0.7-0.5,1L738.2,41.3z"/>
		<path class="st3" d="M750.3,43.5v-0.6c-0.6,0.4-1.3,0.7-2.3,0.7c-0.4,0-0.8,0-1.2-0.1s-0.6-0.2-0.8-0.3s-0.3-0.3-0.4-0.5
			c0-0.1-0.1-0.3-0.1-0.6v-2.4h1.2v2.1c0,0.3,0,0.6,0.1,0.7c0.1,0.2,0.2,0.3,0.5,0.4c0.2,0.1,0.6,0.1,0.9,0.1s0.7-0.1,1-0.2
			s0.6-0.2,0.7-0.4c0.1-0.2,0.2-0.4,0.2-0.8v-2.1h1.2v3.9L750.3,43.5L750.3,43.5z"/>
		<path class="st3" d="M753.3,43.5v-3.9h1.1v0.6c0.3-0.3,0.5-0.5,0.8-0.5s0.5-0.1,0.8-0.1c0.4,0,0.8,0.1,1.3,0.2l-0.4,0.6
			c-0.3-0.1-0.6-0.1-0.9-0.1c-0.3,0-0.5,0-0.7,0.1s-0.4,0.2-0.5,0.4s-0.2,0.5-0.2,0.8v2L753.3,43.5L753.3,43.5z"/>
		<path class="st3" d="M762.7,43c-0.5,0.2-0.9,0.4-1.3,0.4c-0.4,0.1-0.9,0.1-1.4,0.1c-0.8,0-1.4-0.1-1.8-0.3
			c-0.4-0.2-0.6-0.5-0.6-0.8c0-0.2,0.1-0.4,0.2-0.5c0.2-0.2,0.4-0.3,0.6-0.4c0.3-0.1,0.6-0.2,0.9-0.2c0.2,0,0.6-0.1,1.1-0.1
			c1-0.1,1.7-0.1,2.2-0.2c0-0.1,0-0.1,0-0.2c0-0.3-0.1-0.5-0.3-0.6c-0.3-0.1-0.8-0.2-1.4-0.2c-0.6,0-1,0.1-1.3,0.2
			c-0.3,0.1-0.5,0.3-0.6,0.6l-1.2-0.1c0.1-0.3,0.3-0.5,0.5-0.7s0.6-0.3,1.1-0.4s1-0.1,1.6-0.1s1.1,0,1.5,0.1s0.7,0.2,0.9,0.3
			s0.3,0.3,0.4,0.4c0,0.1,0.1,0.3,0.1,0.6v1c0,0.6,0,1,0.1,1.2s0.2,0.3,0.3,0.5H763C762.8,43.3,762.7,43.2,762.7,43z M762.6,41.5
			c-0.4,0.1-1.1,0.2-2,0.2c-0.5,0-0.9,0.1-1.1,0.1c-0.2,0-0.4,0.1-0.5,0.2s-0.2,0.2-0.2,0.3c0,0.2,0.1,0.3,0.4,0.4
			c0.2,0.1,0.6,0.2,1.1,0.2s0.9-0.1,1.3-0.2c0.4-0.1,0.6-0.3,0.8-0.5C762.5,42.1,762.6,41.8,762.6,41.5L762.6,41.5z"/>
	</g>
</g>
<g>
	<g id="g14">
		<g id="g16">
			<path id="path22" class="st4" d="M589.8,36.8c-1,0.9-2.2,1.2-4.2,1.2h-0.8V27.7h0.8c2,0,3.2,0.4,4.2,1.3c1.1,0.9,1.7,2.4,1.7,3.9
				C591.5,34.4,590.9,35.9,589.8,36.8z M586.2,25h-4.5v15.7h4.5c2.4,0,4.1-0.6,5.6-1.8c1.8-1.5,2.8-3.7,2.8-6
				C594.7,28.3,591.2,25,586.2,25"/>
			<path id="path24" class="st4" d="M596.1,40.7h3.1V25h-3.1V40.7z"/>
			<path id="path26" class="st4" d="M606.6,31.1c-1.8-0.7-2.4-1.1-2.4-2c0-1,1-1.7,2.3-1.7c0.9,0,1.7,0.4,2.5,1.3l1.6-2.1
				c-1.3-1.1-2.9-1.7-4.6-1.7c-2.8,0-4.9,1.9-4.9,4.5c0,2.2,1,3.3,3.9,4.3c1.2,0.4,1.8,0.7,2.1,0.9c0.6,0.4,0.9,1,0.9,1.6
				c0,1.3-1,2.2-2.4,2.2c-1.5,0-2.6-0.7-3.3-2.1l-2,1.9c1.4,2.1,3.1,3,5.4,3c3.2,0,5.4-2.1,5.4-5.1
				C611.1,33.5,610.1,32.3,606.6,31.1"/>
			<path id="path28" class="st4" d="M612.1,32.9c0,4.6,3.6,8.2,8.3,8.2c1.3,0,2.4-0.3,3.8-0.9v-3.6c-1.2,1.2-2.3,1.7-3.7,1.7
				c-3.1,0-5.3-2.2-5.3-5.4c0-3,2.3-5.4,5.1-5.4c1.5,0,2.6,0.5,3.8,1.8v-3.6c-1.3-0.7-2.4-1-3.8-1C615.8,24.7,612.1,28.3,612.1,32.9
				"/>
			<path id="path30" class="st4" d="M648.4,35.6l-4.2-10.5h-3.3l6.6,16.1h1.6l6.8-16.1h-3.3L648.4,35.6"/>
			<path id="path32" class="st4" d="M657.3,40.7h8.7V38h-5.6v-4.2h5.4v-2.7h-5.4v-3.5h5.6v-2.7h-8.7V40.7"/>
			<path id="path34" class="st4" d="M672,32.3h-0.9v-4.7h0.9c1.9,0,2.9,0.8,2.9,2.3C674.9,31.4,673.9,32.3,672,32.3z M678.1,29.7
				c0-2.9-2-4.6-5.5-4.6h-4.5v15.7h3.1v-6.4h0.4l4.2,6.3h3.8l-4.9-6.6C676.8,33.7,678.1,32.1,678.1,29.7"/>
			<path id="path36" class="st4" d="M679.5,25.8L679.5,25.8l-0.1-0.4h0.1c0.2,0,0.2,0.1,0.2,0.2C679.7,25.8,679.6,25.8,679.5,25.8z
				 M680,25.6c0-0.3-0.2-0.4-0.5-0.4h-0.4v1.4h0.3v-0.5l0.4,0.5h0.4l-0.5-0.6C679.9,26,680,25.8,680,25.6"/>
			<path id="path38" class="st4" d="M679.6,26.9c-0.5,0-1-0.4-1-1c0-0.5,0.4-1,1-1c0.5,0,1,0.4,1,1
				C680.5,26.4,680.1,26.9,679.6,26.9z M679.6,24.7c-0.7,0-1.2,0.5-1.2,1.2s0.5,1.2,1.2,1.2s1.2-0.5,1.2-1.2S680.2,24.7,679.6,24.7"
				/>
		</g>
	</g>
	<g>
		<path class="st5" d="M634.5,26c2.2,0,4.2,0.9,5.7,2.3c-1.5-2.1-4-3.5-6.8-3.5c-4.6,0-8.3,3.7-8.3,8.3c0,2.4,1,4.5,2.6,6
			c-1-1.4-1.6-3-1.6-4.8C626.1,29.7,629.9,26,634.5,26z"/>
		<path class="st6" d="M641.8,33.1c0-1.8-0.6-3.5-1.6-4.8c-1.5-1.4-3.5-2.3-5.7-2.3c-4.6,0-8.3,3.7-8.3,8.3c0,1.8,0.6,3.5,1.6,4.8
			c1.5,1.4,3.5,2.3,5.7,2.3C638,41.5,641.8,37.7,641.8,33.1z"/>
	</g>
</g>
<g id="g10" transform="matrix(1.3333333,0,0,-1.3333333,-148.21892,501.73283)">
	<g id="g14_1_">
		<g id="g16_1_">
			<g id="g56" transform="translate(345.8945,348.2915)">
				<path id="path58" class="st6" d="M-80.8,9.4c0.7,0.2,1.4,0.3,2.1,0.3c3.2,0,5.8-2.2,6.4-5.2l4.5,0.9c-1,5.1-5.5,8.9-10.9,8.9
					c-1.2,0-2.4-0.2-3.5-0.6L-80.8,9.4z"/>
			</g>
			<g id="g60" transform="translate(333.2559,313.5845)">
				<path id="path62" class="st6" d="M-73.5,29.6l3,3.4c-1.4,1.2-2.2,3-2.2,4.9c0,2,0.9,3.7,2.2,4.9l-3,3.4c-2.3-2-3.7-5-3.7-8.3
					C-77.2,34.6-75.8,31.6-73.5,29.6"/>
			</g>
			<g id="g64" transform="translate(366.1504,330.3374)">
				<path id="path66" class="st6" d="M-92.6,19.9c-0.6-3-3.3-5.2-6.4-5.2c-0.7,0-1.4,0.1-2.1,0.3l-1.5-4.3c1.1-0.4,2.3-0.6,3.5-0.6
					c5.4,0,9.9,3.8,10.9,8.9L-92.6,19.9z"/>
			</g>
			<g id="g68" transform="translate(407.6289,324.6582)">
				<path id="path70" class="st4" d="M-116.7,23.2L-116.7,23.2l-0.1,0.1c-0.4-0.6-0.9-1.1-1.7-1.4c-1.4-0.6-2.7-0.4-3.6,0.4
					l-0.1-0.1l0,0l-1.6-2.3c0.4-0.3,0.8-0.5,1.2-0.7c1.7-0.7,3.5-0.7,5.2,0.1c1.3,0.5,2.2,1.4,2.9,2.4L-116.7,23.2z M-121.6,28.9
					c-1.5-0.6-2.2-2-2-3.6l6.2,2.7C-118.6,29.2-119.9,29.6-121.6,28.9 M-125.7,21.8c-0.1,0.2-0.4,0.6-0.5,0.9
					c-0.7,1.7-0.7,3.4-0.1,5c0.7,1.8,1.9,3.2,3.5,3.9c2,0.9,4.3,0.7,6.3-0.5c1.2-0.7,2.1-1.8,2.8-3.4c0.1-0.2,0.2-0.4,0.2-0.6
					L-125.7,21.8z"/>
			</g>
			<g id="g72" transform="translate(425.6719,352.9595)">
				<path id="path74" class="st4" d="M-127.2,6.7v-13l2-0.8l-1.1-2.7l-2.2,0.9c-0.5,0.2-0.8,0.5-1.1,0.9c-0.2,0.4-0.4,0.9-0.4,1.6
					v13h2.8V6.7z"/>
			</g>
			<g id="g76" transform="translate(438.1641,329.8447)">
				<path id="path78" class="st4" d="M-134.5,20.1c0,1.1,0.5,2.1,1.3,2.8l-2.1,2.3c-1.4-1.2-2.3-3.1-2.3-5.1s0.9-3.8,2.3-5.1
					l2.1,2.3C-134,18.1-134.5,19-134.5,20.1"/>
			</g>
			<g id="g80" transform="translate(446.9531,321.0415)">
				<path id="path82" class="st4" d="M-139.6,25.3c-0.4,0-0.8,0.1-1.2,0.2l-1-2.9c0.7-0.2,1.4-0.4,2.2-0.4c3.3,0,6,2.3,6.7,5.4
					l-3,0.6C-136.3,26.5-137.8,25.3-139.6,25.3"/>
			</g>
			<g id="g84" transform="translate(446.9746,346.042)">
				<path id="path86" class="st4" d="M-139.6,10.7c-0.8,0-1.5-0.1-2.1-0.4l1-3c0.4,0.1,0.8,0.2,1.2,0.2c1.8,0,3.3-1.3,3.6-3l3,0.6
					C-133.6,8.4-136.3,10.7-139.6,10.7"/>
			</g>
		</g>
	</g>
</g>
<g id="g4158" transform="matrix(4.4299631,0,0,4.4299631,-81.165783,-105.04783)">
	<polygon id="polygon9" class="st7" points="45.9,33.5 44.6,33.5 45.4,28.7 46.7,28.7 	"/>
	<path id="path11" class="st7" d="M50.4,28.8c-0.2-0.1-0.6-0.2-1.1-0.2c-1.2,0-2.1,0.7-2.1,1.6c0,0.7,0.6,1.1,1.1,1.3
		c0.5,0.2,0.6,0.4,0.6,0.6c0,0.3-0.4,0.5-0.7,0.5c-0.5,0-0.8-0.1-1.2-0.3l-0.2-0.1l-0.1,1.2c0.3,0.1,0.8,0.3,1.4,0.3
		c1.3,0,2.2-0.6,2.2-1.6c0-0.5-0.3-1-1-1.3c-0.4-0.2-0.7-0.4-0.7-0.6s0.2-0.4,0.7-0.4c0.4,0,0.7,0.1,0.9,0.2l0.1,0.1L50.4,28.8
		L50.4,28.8z"/>
	<path id="path13" class="st7" d="M52.1,31.8c0.1-0.3,0.5-1.3,0.5-1.3s0.1-0.3,0.2-0.5l0.1,0.4c0,0,0.2,1.2,0.3,1.4
		C52.9,31.8,52.3,31.8,52.1,31.8L52.1,31.8z M53.6,28.7h-1c-0.3,0-0.5,0.1-0.7,0.4l-1.8,4.4h1.3c0,0,0.2-0.6,0.3-0.7
		c0.1,0,1.4,0,1.6,0c0,0.2,0.1,0.7,0.1,0.7h1.2L53.6,28.7L53.6,28.7L53.6,28.7z"/>
	<path id="path15" class="st7" d="M43.6,28.7L42.4,32l-0.1-0.7c-0.2-0.8-0.9-1.6-1.7-2l1.1,4.2H43l2-4.8H43.6L43.6,28.7L43.6,28.7z"
		/>
	<path id="path17" class="st8" d="M41.3,28.7h-2v0.1c1.6,0.4,2.6,1.4,3,2.5l-0.4-2.2C41.8,28.8,41.5,28.7,41.3,28.7L41.3,28.7z"/>
</g>
<g id="g6321" transform="translate(-9.4000001,96.810998)">
	<g id="g6323" transform="matrix(1.8215159,0,0,1.8215159,-8.5437653,-109.83667)">
		<g id="g6327">
			<path id="path6338" class="st9" d="M485.8,27.2h1.7h0.2c0.3-0.1,0.6-0.4,0.6-0.8s-0.3-0.7-0.6-0.8c0,0-0.1,0-0.2,0h-1.7V27.2
				L485.8,27.2z"/>
			<path id="path6349" class="st9" d="M487.3,16.4c-1.6,0-3,1.3-3,3v3.1h4.2c0.1,0,0.2,0,0.3,0c0.9,0,1.6,0.5,1.6,1.4
				c0,0.7-0.5,1.2-1.4,1.4l0,0c1,0.1,1.7,0.6,1.7,1.4c0,0.9-0.8,1.5-1.9,1.5h-4.6v6h4.3c1.6,0,3-1.3,3-3V16.4H487.3L487.3,16.4z"/>
			<path id="path6360" class="st9" d="M488.1,24.1c0-0.4-0.3-0.7-0.6-0.7c0,0-0.1,0-0.2,0h-1.5v1.4h1.5c0,0,0.1,0,0.2,0
				C487.8,24.7,488.1,24.4,488.1,24.1z"/>
		</g>
		<path id="path6371" class="st10" d="M470.9,16.4c-1.6,0-3,1.3-3,3v7.3c0.8,0.4,1.7,0.7,2.6,0.7c1,0,1.6-0.6,1.6-1.5v-3.5h2.5v3.4
			c0,1.3-0.8,2.4-3.6,2.4c-1.7,0-3-0.4-3-0.4V34h4.3c1.6,0,3-1.3,3-3V16.4C475.2,16.4,470.9,16.4,470.9,16.4z"/>
		<path id="path6384" class="st11" d="M479.1,16.4c-1.6,0-3,1.3-3,3v3.9c0.7-0.6,2.1-1,4.2-0.9c1.1,0,2.3,0.4,2.3,0.4v1.3
			c-0.6-0.3-1.3-0.6-2.2-0.7c-1.6-0.1-2.6,0.7-2.6,2c0,1.4,1,2.2,2.6,2c0.9-0.1,1.6-0.4,2.2-0.7V28c0,0-1.2,0.3-2.3,0.4
			c-2.1,0.1-3.4-0.3-4.2-0.9v6.8h4.3c1.6,0,3-1.3,3-3V16.4H479.1z"/>
	</g>
	<g id="g6386">
	</g>
</g>
<g id="KHJ9Hn_1_">
	<g>
		<path class="st12" d="M330.3,24.9c-0.4,1.2-0.9,2.4-1.3,3.5c-0.4,1-0.7,2-1.1,3c-0.1,0.2-0.2,0.3-0.4,0.3c-0.6,0-1.2,0-1.8,0
			c-0.2,0-0.3-0.1-0.4-0.3c-0.8-2.1-1.5-4.2-2.3-6.2c0-0.1,0-0.2-0.2-0.3c0,1.1,0,2.2,0,3.3s0,2.2,0,3.2c0,0.2-0.1,0.3-0.3,0.3
			c-0.7,0-1.3,0-2,0c-0.2,0-0.3-0.1-0.3-0.3c0-3.1,0-6.1,0-9.2c0-0.2,0.1-0.3,0.3-0.3c1.2,0,2.4,0,3.6,0c0.2,0,0.3,0.1,0.3,0.3
			c0.6,1.8,1.3,3.6,2,5.4c0,0.1,0.1,0.3,0.2,0.4c0.4-1.1,0.8-2.2,1.2-3.3c0.3-0.8,0.6-1.7,0.9-2.5c0.1-0.2,0.1-0.2,0.3-0.2
			c1.2,0,2.3,0,3.5,0c0.2,0,0.3,0,0.3,0.3c0,3.1,0,6.1,0,9.2c0,0.2-0.1,0.3-0.3,0.3c-0.7,0-1.3,0-2,0c-0.2,0-0.3-0.1-0.3-0.3
			c0-2,0-4.1,0-6.1C330.3,25.2,330.3,25,330.3,24.9L330.3,24.9z"/>
		<path class="st12" d="M385.6,27.9c0-1.7,0-3.3,0-5c0-0.2,0-0.5,0-0.8c0-0.1,0.1-0.2,0.2-0.2c0.7,0,1.4,0,2.2,0
			c0.3,0,0.2,0.2,0.2,0.3c0,1.2,0,2.4,0,3.6c0,1.8,0,3.7,0,5.5c0,0.2-0.1,0.3-0.3,0.3c-0.9,0-1.7,0-2.6,0c-0.2,0-0.3-0.1-0.4-0.2
			c-1.2-1.9-2.5-3.7-3.7-5.6c0-0.1-0.1-0.1-0.2-0.3c0,0.8,0,1.6,0,2.4c0,1.1,0,2.3,0,3.4c0,0.2,0,0.3-0.3,0.3c-0.7,0-1.4,0-2,0
			c-0.2,0-0.3,0-0.3-0.2c0-3.1,0-6.2,0-9.2c0-0.2,0.1-0.2,0.2-0.2c0.9,0,1.9,0,2.8,0c0.2,0,0.3,0.1,0.4,0.3c1.2,1.8,2.3,3.5,3.5,5.3
			C385.4,27.6,385.5,27.7,385.6,27.9z"/>
		<path class="st12" d="M361.2,44.2c-1.1,0-2.1,0-3,0c-0.2,0-0.3-0.1-0.4-0.2c-0.9-1-1.7-2-2.6-3c-0.2-0.2-0.9-0.3-1.1-0.2
			c-0.1,0.1-0.1,0.2-0.1,0.3c0,0.9,0,1.9,0,2.8c0,0.2,0,0.3-0.3,0.3c-0.7,0-1.3,0-2,0c-0.3,0-0.3-0.1-0.3-0.3c0-2.8,0-5.6,0-8.4
			c0-0.3,0-0.5,0-0.8c0-0.2,0-0.2,0.2-0.2c2,0,3.9,0,5.9,0c2.4,0.1,3.7,2.4,2.7,4.5c-0.4,0.8-1,1.2-1.8,1.5c-0.1,0-0.3,0.1-0.4,0.1
			C359,41.8,360.1,43,361.2,44.2z M355.6,38.6L355.6,38.6c0.4,0,0.9,0,1.3,0s0.7-0.2,0.9-0.6c0.2-0.3,0.1-0.7-0.1-1s-0.6-0.4-1-0.4
			c-0.8,0-1.6,0-2.5,0c-0.2,0-0.2,0-0.2,0.2c0,0.5,0,1,0,1.5c0,0.2,0.1,0.2,0.2,0.2C354.7,38.6,355.2,38.6,355.6,38.6z"/>
		<path class="st12" d="M354.4,31.7c-1,0-2,0-3,0c-0.2,0-0.3-0.1-0.4-0.2c-0.9-1-1.7-2-2.6-3c-0.2-0.2-0.8-0.3-1-0.2
			c-0.1,0.1-0.1,0.2-0.1,0.3c0,0.9,0,1.9,0,2.8c0,0.2-0.1,0.3-0.3,0.3c-0.7,0-1.4,0-2,0c-0.2,0-0.3,0-0.3-0.2c0-3.1,0-6.2,0-9.2
			c0-0.2,0.1-0.2,0.2-0.2c1.8,0,3.7,0,5.5,0c0.9,0,1.7,0.2,2.4,0.9c0.9,0.8,1.1,1.8,0.9,2.9c-0.2,1.2-1,1.9-2.1,2.3
			c-0.4,0.1-0.4,0.1-0.1,0.5c0.9,1,1.8,1.9,2.7,2.9C354.3,31.5,354.4,31.5,354.4,31.7z M348.9,24.2L348.9,24.2c-0.4,0-0.9,0-1.3,0
			c-0.2,0-0.3,0-0.3,0.3c0,0.5,0,1,0,1.4c0,0.2,0.1,0.3,0.3,0.3c0.5,0,1,0,1.5,0c0.4,0,0.9,0,1.3,0c0.4-0.1,0.6-0.3,0.8-0.6
			c0.2-0.6-0.2-1.2-0.9-1.3C349.8,24.2,349.4,24.2,348.9,24.2z"/>
		<path class="st12" d="M320.3,39.3c0-1.5,0-3,0-4.5c0-0.2,0.1-0.3,0.3-0.3c2.5,0,5.1,0,7.6,0c0.3,0,0.3,0.1,0.3,0.3
			c0,0.5,0,1,0,1.5c0,0.3-0.1,0.3-0.3,0.3c-1.7,0-3.3,0-4.9,0c-0.3,0-0.4,0.1-0.4,0.4c0,0.3,0,0.6,0,0.9c0,0.2,0.1,0.3,0.3,0.3
			c1.6,0,3.2,0,4.9,0c0.3,0,0.4,0.1,0.4,0.3c0,0.5,0,1,0,1.6c0,0.2-0.1,0.3-0.3,0.3c-1.6,0-3.2,0-4.9,0c-0.3,0-0.3,0.1-0.3,0.3
			c0,0.3,0,0.6,0,0.9c0,0.2,0.1,0.3,0.3,0.3c1.7,0,3.3,0,4.9,0c0.3,0,0.4,0.1,0.4,0.4c0,0.5,0,1,0,1.5c0,0.2-0.1,0.3-0.3,0.3
			c-2.5,0-5.1,0-7.6,0c-0.2,0-0.3-0.1-0.3-0.3C320.4,42.4,320.3,40.8,320.3,39.3z"/>
		<path class="st12" d="M334.9,26.8c0-1.5,0-3,0-4.5c0-0.2,0-0.3,0.3-0.3c2.5,0,5.1,0,7.6,0c0.2,0,0.3,0.1,0.3,0.3
			c0,0.5,0,1.1,0,1.6c0,0.3-0.1,0.3-0.3,0.3c-1.7,0-3.3,0-4.9,0c-0.3,0-0.4,0.1-0.4,0.4s0,0.5,0,0.8s0.1,0.4,0.4,0.4
			c1.6,0,3.2,0,4.8,0c0.3,0,0.3,0.1,0.3,0.3c0,0.5,0,1,0,1.5c0,0.3-0.1,0.4-0.4,0.4c-1.6,0-3.2,0-4.8,0c-0.2,0-0.4,0.1-0.3,0.3
			c0,0.3,0,0.6,0,0.9c0,0.3,0.1,0.3,0.3,0.3c1.6,0,3.3,0,4.9,0c0.3,0,0.4,0.1,0.4,0.4c0,0.5,0,1,0,1.5c0,0.2-0.1,0.3-0.3,0.3
			c-2.6,0-5.1,0-7.7,0c-0.2,0-0.3-0.1-0.3-0.3C334.9,29.9,334.9,28.3,334.9,26.8z"/>
		<path class="st12" d="M361.9,39.3c0-1.5,0-3,0-4.5c0-0.2,0.1-0.3,0.3-0.3c2.5,0,5.1,0,7.6,0c0.2,0,0.3,0.1,0.3,0.3
			c0,0.5,0,1.1,0,1.6c0,0.2-0.1,0.3-0.3,0.3c-1.7,0-3.3,0-5,0c-0.3,0-0.4,0.1-0.4,0.4c0,0.3,0,0.6,0,0.9c0,0.2,0.1,0.3,0.3,0.3
			c1.6,0,3.3,0,4.9,0c0.3,0,0.3,0.1,0.3,0.3c0,0.5,0,1,0,1.5c0,0.3-0.1,0.4-0.3,0.4c-1.6,0-3.2,0-4.8,0c-0.3,0-0.4,0.1-0.4,0.4
			c0,0.3,0,0.6,0,0.9c0,0.2,0.1,0.3,0.3,0.3c1.7,0,3.3,0,5,0c0.3,0,0.3,0.1,0.3,0.3c0,0.5,0,1.1,0,1.6c0,0.2,0,0.3-0.3,0.3
			c-2.6,0-5.1,0-7.7,0c-0.2,0-0.3-0.1-0.3-0.3C361.9,42.4,361.9,40.8,361.9,39.3z"/>
		<path class="st12" d="M313.9,22c0.5,0,1,0,1.4,0c0.2,0,0.2,0.1,0.3,0.2c1.4,3.1,2.7,6.1,4.1,9.2c0.1,0.2,0.1,0.3-0.2,0.3
			c-0.8,0-1.6,0-2.4,0c-0.2,0-0.3,0-0.3-0.2c-0.2-0.5-0.4-1-0.6-1.5c-0.1-0.2-0.1-0.2-0.3-0.2c-1.3,0-2.7,0-4,0
			c-0.2,0-0.3,0.1-0.3,0.2c-0.2,0.5-0.4,1-0.6,1.5c-0.1,0.2-0.2,0.2-0.4,0.2c-0.8,0-1.5,0-2.3,0c-0.3,0-0.3-0.1-0.2-0.3
			c1-2.2,1.9-4.4,2.9-6.5c0.4-0.9,0.8-1.8,1.2-2.6c0.1-0.2,0.2-0.2,0.4-0.2C313,22,313.4,22,313.9,22z M313.9,24.4
			c-0.5,1.1-0.9,2.1-1.3,3.1c0,0.1,0,0.2,0.1,0.2c0.8,0,1.7,0,2.6,0C314.8,26.5,314.3,25.5,313.9,24.4z"/>
		<path class="st12" d="M377.8,31.7c-0.9,0-1.8,0-2.7,0c-0.2,0-0.2-0.1-0.2-0.2c-0.2-0.5-0.4-1-0.6-1.5c-0.1-0.2-0.2-0.2-0.4-0.2
			c-1.3,0-2.6,0-4,0c-0.2,0-0.3,0.1-0.4,0.3c-0.2,0.5-0.4,1-0.6,1.5c-0.1,0.2-0.2,0.2-0.3,0.2c-0.8,0-1.6,0-2.4,0
			c-0.2,0-0.3,0-0.2-0.2c1.4-3.1,2.7-6.2,4.1-9.3c0.1-0.1,0.1-0.2,0.3-0.2c1,0,1.9,0,2.9,0c0.2,0,0.3,0.1,0.3,0.3
			c1.1,2.5,2.2,5,3.3,7.5c0.2,0.6,0.5,1.1,0.7,1.7C377.8,31.5,377.9,31.6,377.8,31.7z M371.9,24.4c-0.4,1.1-0.9,2-1.3,3
			c-0.1,0.2,0,0.2,0.2,0.2c0.6,0,1.2,0,1.8,0c0.6,0,0.6,0,0.4-0.6C372.7,26.1,372.3,25.3,371.9,24.4z"/>
		<path class="st12" d="M377,34.5c0.9,0,1.8,0,2.7,0c0.3,0,0.3,0.1,0.2,0.3c-0.3,0.5-0.5,1.1-0.7,1.6c-0.1,0.2-0.2,0.3-0.5,0.3
			c-1.2,0-2.5,0-3.7,0c-0.2,0-0.4,0-0.6,0.1c-0.3,0.1-0.6,0.4-0.6,0.7s0.2,0.6,0.5,0.7c0.2,0.1,0.3,0.1,0.5,0.1c0.7,0,1.5,0,2.2,0
			s1.4,0.1,1.9,0.5c0.9,0.6,1.3,1.4,1.2,2.5c-0.1,1.8-1.3,3-3.2,3c-1.7,0.1-3.5,0-5.2,0c-0.2,0-0.2-0.1-0.2-0.2c0-0.6,0-1.1,0-1.7
			c0-0.2,0.1-0.3,0.3-0.3c1.6,0,3.2,0,4.8,0c0.1,0,0.2,0,0.3,0c0.4,0,0.7-0.4,0.7-0.8c0-0.4-0.3-0.7-0.7-0.7c-0.8,0-1.6,0-2.4,0
			c-0.5,0-1.1-0.1-1.6-0.3c-1.1-0.5-1.8-1.5-1.7-2.7c0.1-1.7,1.3-2.9,3-3C375.2,34.5,376.1,34.5,377,34.5L377,34.5z"/>
		<path class="st12" d="M389.5,34.5c-0.3,0.7-0.6,1.4-0.9,2c-0.1,0.2-0.2,0.2-0.4,0.2c-1.3,0-2.5,0-3.8,0c-0.2,0-0.4,0-0.6,0.1
			c-0.3,0.1-0.6,0.4-0.6,0.7s0.2,0.6,0.5,0.7c0.2,0.1,0.3,0.1,0.5,0.1c0.9,0,1.7,0,2.6,0c0.8,0,1.5,0.2,2.1,0.8
			c0.8,0.9,0.9,1.9,0.5,3c-0.4,1.3-1.4,1.8-2.6,2c-0.9,0.1-1.8,0-2.6,0.1c-1,0-2,0-2.9,0c-0.2,0-0.3-0.1-0.3-0.3c0-0.5,0-1.1,0-1.6
			c0-0.3,0.1-0.3,0.3-0.3c1.6,0,3.3,0,4.9,0c0.5,0,0.8-0.2,0.9-0.6c0.1-0.5-0.2-0.9-0.8-1c-0.8,0-1.5,0-2.3,0
			c-0.6,0-1.1-0.1-1.7-0.3c-1.1-0.5-1.6-1.3-1.6-2.4c-0.1-1.8,1.1-3.1,3-3.2c0.2,0,0.5,0,0.7,0C386.1,34.5,387.8,34.5,389.5,34.5z"
			/>
		<path class="st12" d="M340.9,44.2c-1.1,0-2.2,0-3.2,0c-0.2,0-0.2-0.1-0.3-0.2c-0.8-0.9-1.5-1.8-2.3-2.6c-0.2-0.2-0.2-0.2-0.4,0
			c-0.7,0.9-1.5,1.7-2.2,2.6c-0.2,0.2-0.3,0.2-0.5,0.2c-1,0-1.9,0-2.9,0c0-0.2,0.1-0.2,0.2-0.3c1.3-1.4,2.5-2.8,3.8-4.2
			c0.3-0.4,0.3-0.4,0-0.7c-1.2-1.4-2.4-2.7-3.6-4.1c-0.1-0.1-0.2-0.2-0.2-0.3c0.1-0.1,0.2-0.1,0.3-0.1c0.9,0,1.8,0,2.7,0
			c0.2,0,0.4,0.1,0.5,0.2c0.7,0.8,1.4,1.6,2.1,2.5c0.2,0.2,0.3,0.2,0.4,0c0.7-0.8,1.4-1.6,2.1-2.5c0.1-0.2,0.3-0.2,0.5-0.2
			c0.9,0,1.8,0,2.7,0c0.1,0,0.2,0,0.3,0.1c-0.5,0.5-0.9,1.1-1.4,1.6c-0.8,0.9-1.7,1.9-2.5,2.8c-0.2,0.2-0.2,0.3,0,0.5
			c1.3,1.4,2.5,2.9,3.8,4.3C340.7,43.9,340.8,44,340.9,44.2z"/>
		<path class="st12" d="M341.2,39.3c0-1.5,0-3,0-4.5c0-0.2,0-0.3,0.2-0.3c1.9,0,3.8,0,5.7,0c1.3,0,2.4,0.6,2.9,1.8
			c0.8,1.9,0,4.4-2.8,4.6c-1.1,0.1-2.1,0-3.2,0c-0.3,0-0.4,0.1-0.3,0.3c0,0.9,0,1.7,0,2.6c0,0.2-0.1,0.3-0.3,0.3c-0.7,0-1.3,0-2,0
			c-0.3,0-0.3-0.1-0.3-0.3C341.2,42.3,341.2,40.8,341.2,39.3z M345.4,38.8L345.4,38.8c0.4,0,0.9,0,1.3,0c0.8,0,1.2-0.6,1-1.4
			c-0.1-0.5-0.5-0.7-1.1-0.8c-0.9,0-1.7,0-2.5,0c-0.2,0-0.2,0-0.2,0.2c0,0.6,0,1.1,0,1.7c0,0.2,0.1,0.2,0.2,0.2
			C344.5,38.8,344.9,38.8,345.4,38.8z"/>
		<path class="st12" d="M365.2,22c0.5,0,1.1,0,1.6,0c0.2,0,0.3,0,0.3,0.3c0,0.6,0,1.2,0,1.8c0,0.2-0.1,0.3-0.3,0.3
			c-0.9,0-1.7,0-2.6,0c-0.8,0-1.5,0.2-2,0.9c-0.2,0.3-0.3,0.7-0.4,1c-0.1,0.5-0.1,1,0.1,1.6c0.2,1,1,1.6,2,1.7c0.5,0,1.1,0,1.6,0
			c0.2,0,0.3,0,0.2,0.3c-0.3,0.6-0.5,1.1-0.8,1.7c0,0.1-0.1,0.2-0.2,0.2c-1.1,0-2.2,0-3.2-0.5c-1.2-0.6-1.9-1.6-2.1-2.9
			c-0.2-1.1-0.2-2.1,0.1-3.2c0.5-1.8,1.9-2.9,3.8-3.1C363.9,22,364.6,22,365.2,22z"/>
		<path class="st12" d="M357.8,26.9c0,1.5,0,3,0,4.5c0,0.2-0.1,0.3-0.3,0.3c-0.7,0-1.4,0-2.1,0c-0.2,0-0.2,0-0.2-0.2
			c0-3.1,0-6.1,0-9.2c0-0.2,0.1-0.2,0.3-0.2c0.7,0,1.3,0,2,0c0.3,0,0.3,0.1,0.3,0.3C357.8,23.8,357.8,25.4,357.8,26.9z"/>
	</g>
</g>
<g id="__x0023_Layer_x0020_1_1_">
	<path class="st13" d="M452.5,48.2c8.2,0,15.8-6.7,15.8-15c0-9-7.5-15.2-15.8-15.2h-7.1c-8.3,0-15.2,6.2-15.2,15.2
		c0,8.2,6.9,15,15.2,15H452.5z"/>
	<path class="st14" d="M445.4,19.2c-7.6,0-13.8,6.2-13.8,13.8c0,7.6,6.2,13.8,13.8,13.8c7.6,0,13.8-6.2,13.8-13.8
		C459.2,25.4,453.1,19.3,445.4,19.2z M436.7,33.1L436.7,33.1c0-3.7,2.3-6.9,5.6-8.2v16.3C439,40,436.7,36.8,436.7,33.1z M448.6,41.2
		L448.6,41.2V24.9c3.3,1.3,5.6,4.4,5.6,8.2C454.2,36.8,451.8,40,448.6,41.2z"/>
	<g>
		<path class="st3" d="M448.6,24.9v16.3c3.3-1.3,5.6-4.4,5.6-8.2C454.2,29.3,451.8,26.2,448.6,24.9z"/>
		<path class="st3" d="M436.7,33.1c0,3.7,2.3,6.9,5.6,8.2V24.9C439,26.2,436.7,29.3,436.7,33.1z"/>
		<path class="st3" d="M452.5,18h-7.1c-8.3,0-15.2,6.2-15.2,15.2c0,8.2,6.9,15,15.2,15h7.1c8.2,0,15.8-6.7,15.8-15
			C468.3,24.2,460.7,18,452.5,18z M445.4,46.9c-7.6,0-13.8-6.2-13.8-13.8c0-7.6,6.2-13.8,13.8-13.8c7.6,0,13.8,6.2,13.8,13.8
			C459.2,40.7,453.1,46.9,445.4,46.9z"/>
	</g>
	<g>
		<path class="st3" d="M476.1,33.8c5.6,0,6.5-4,6.5-5.5c0-2.8-2.2-5.6-6.3-5.6c-1.2,0-2.1,0-2.7,0c-0.6,0-1.3,0-1.9,0v0.4
			c0.7,0,1.5-0.1,1.5,1.3h0v7.7c0,1.1-0.5,1.1-1.5,1.2v0.4c0.7,0,1.4,0,2.1,0C474.5,33.8,475.3,33.8,476.1,33.8z M474.7,23.3
			c0.3,0,0.6-0.1,1.2-0.1c3.1,0,5,2.1,5,5.1c0,2.4-1.1,5-4.6,5c-0.8,0-1.7-0.1-1.7-1.4L474.7,23.3z"/>
		<path class="st3" d="M484.9,24.1c0.4,0,0.8-0.4,0.8-0.8s-0.4-0.8-0.8-0.8c-0.4,0-0.8,0.4-0.8,0.8
			C484.1,23.7,484.5,24.1,484.9,24.1z"/>
		<path class="st3" d="M483.5,33.4h-0.3v0.4c0.6,0,1.2,0,1.7,0c0.6,0,1.1,0,1.7,0v-0.4h-0.3c-0.4,0-0.8,0-0.8-0.5v-6.1
			c0-0.1,0-0.2-0.1-0.2c-0.1,0-0.2,0-0.3,0.1c-0.1,0-1,0.3-1.7,0.6v0.3c0.6,0.3,0.8,0.4,0.8,1.1v4.3
			C484.2,33.4,483.9,33.4,483.5,33.4z"/>
		<path class="st3" d="M495,33.4h-0.3c-0.4,0-0.8,0-0.8-0.5v-4.1c0-1.2-0.5-2.2-1.8-2.2c-1.1,0-1.8,0.5-2.7,1.2v-1
			c0-0.1,0-0.2-0.1-0.2c-0.8,0.3-1.4,0.5-2.1,0.8v0.3c0.7,0.3,0.9,0.5,0.9,1h0v4.2c0,0.5-0.3,0.5-0.8,0.5H487v0.4c0.6,0,1.1,0,1.7,0
			c0.6,0,1.1,0,1.7,0v-0.4h-0.3c-0.4,0-0.8,0-0.8-0.5v-4.7c0.5-0.3,1.3-0.8,1.8-0.8c0.9,0,1.5,0.4,1.5,1.3v4.1
			c0,0.5-0.3,0.5-0.8,0.5h-0.3v0.4c0.6,0,1.1,0,1.7,0c0.6,0,1.1,0,1.7,0V33.4z"/>
		<path class="st3" d="M498,34.1c1.3,0,2.2-0.8,2.9-1.8l-0.2-0.2c-0.6,0.6-1.3,1.1-2.1,1.1c-1.3,0-2.2-1.2-2.3-2.7
			c0-0.5,0-0.8,0-0.9h4.5l0.1-0.1c0-0.1,0-0.2,0-0.3c0-1.7-1.4-2.5-2.7-2.5c-1.1,0-3.2,0.9-3.2,4C494.9,31.6,495.4,34.1,498,34.1z
			 M498.1,27.1c0.9,0,1.4,0.7,1.4,1.5c0,0.2,0,0.4-0.4,0.4h-2.8C496.4,27.8,497.1,27.1,498.1,27.1z"/>
		<path class="st3" d="M501.6,33.4h-0.4v0.4c0.6,0,1.2,0,1.9,0c0.7,0,1.3,0,2.2,0v-0.4h-0.9c-0.4,0-0.8,0-0.8-0.5v-3.7
			c0-1,0.9-1.3,1.2-1.3c0.6,0,0.6,0.4,1,0.4c0.4,0,0.7-0.4,0.7-0.8c0-0.6-0.5-0.8-0.9-0.8c-1,0-1.6,1-2,1.6h0v-1.4
			c0-0.2,0-0.2-0.1-0.2c-0.1,0-0.8,0.4-1.9,0.9v0.2c0.2,0.1,0.8,0.2,0.8,0.7v4.5C502.4,33.4,502.1,33.4,501.6,33.4z"/>
		<path class="st3" d="M509.3,33.5c-1.2,0-1.8-0.9-2-1.9l-0.3,0.1l0.2,1.8c0.6,0.3,1.3,0.5,1.9,0.5c1.9,0,2.7-1.1,2.7-2.2
			c0-2.5-3.7-1.9-3.7-3.8c0-0.7,0.6-1,1.2-1c1,0,1.6,0.6,1.7,1.6h0.4l-0.1-1.6c-0.6-0.3-1.3-0.5-1.8-0.5c-1.7,0-2.5,1.1-2.5,2
			c0,2.6,3.5,2,3.5,3.8C510.6,33,510.2,33.5,509.3,33.5z"/>
		<path class="st3" d="M525.8,33.2l0.4-2.3l-0.4-0.1c-0.3,1.7-1.6,2.7-3.2,2.7c-2.4,0-4.7-2.3-4.7-5.5c0-3.8,2.7-5,4.5-5
			c1.8,0,3.1,0.7,3.4,2.6h0.4l-0.2-2.3c-1.2-0.4-2.5-0.8-3.7-0.8c-3.1,0-6,2.3-6,5.6c0,3.6,2.3,6,6.1,6
			C523.4,34.1,525.2,33.6,525.8,33.2z"/>
		<path class="st3" d="M530.2,33.8v-0.4h-0.3c-0.4,0-0.8,0-0.8-0.5v-11c0-0.1,0-0.2-0.1-0.2c0,0-0.2,0.1-0.3,0.2
			c-0.3,0.2-1,0.5-1.6,0.7v0.3c0.6,0.2,0.8,0.2,0.8,1.2v8.8c0,0.5-0.3,0.5-0.8,0.5h-0.3h0v0.4c0.6,0,1.2,0,1.7,0
			C529.1,33.8,529.6,33.8,530.2,33.8z"/>
		<path class="st3" d="M531.1,28.1v4.1c0,1.3,0.9,1.9,1.7,1.9c1.1,0,1.9-0.6,2.8-1.3V34l0.1,0c0.3-0.1,1.6-0.4,2.3-0.5v-0.3
			c-0.2,0-0.4,0-0.6,0c-0.3,0-0.4,0-0.4-0.3h0v-5.9c0-0.2,0-0.3-0.1-0.3c-0.2,0-1,0.1-2.5,0.2v0.3c0.6,0.2,1.3,0.3,1.3,0.6v4.3
			c-0.7,0.6-1.4,1-1.9,1c-1.4,0-1.4-1.4-1.4-1.8v-4.1c0-0.3,0-0.5-0.2-0.5c-0.2,0-1.5,0.1-2,0.1v0.3C531,27.3,531.1,27.7,531.1,28.1
			z"/>
		<path class="st3" d="M538.8,24v6.8c0,1-0.1,1.9-0.2,2.8l0.3,0.2l0.5-0.4c0.4,0.2,1,0.6,2.2,0.6c2.3,0,3.8-2.1,3.8-4.2
			c0-1.7-1.1-3.3-3-3.3c-0.9,0-1.7,0.6-2.4,1.1v0h0v-5.8c0-0.1,0-0.2-0.1-0.2c0,0-0.2,0.1-0.4,0.2c-0.3,0.2-1,0.5-1.6,0.7v0.3
			C538.6,23,538.8,23,538.8,24z M540.1,28.2c0.4-0.4,0.9-0.7,1.5-0.7c1.2,0,2.5,1.4,2.5,3.1c0,1.4-0.7,3.1-2.4,3.1
			c-1.1,0-1.6-1-1.6-1.6h0V28.2z"/>
		<path class="st3" d="M472.9,37.3c-0.4,0-0.9,0-1.3,0h0v0.3v0h0.2c0.3,0,0.6,0,0.6,0.5v4.5c0,0.4-0.3,0.4-0.6,0.5h-0.1h0v0v0.3v0h0
			c0.3,0,0.8,0,1.3,0c0.4,0,0.9,0,1.4,0h0V43v0h-0.2c-0.3,0-0.6,0-0.6-0.5V38c0-0.4,0.3-0.5,0.6-0.5h0.1h0v-0.3v0h0
			C473.9,37.2,473.3,37.3,472.9,37.3z"/>
		<path class="st3" d="M480.5,37.3c-0.4,0-0.8,0-1.2,0h0v0.3v0h0.2c0.3,0,0.7,0.1,0.7,0.8v3.2l-3.8-4.3c-0.3,0-0.5,0-0.8,0
			c-0.3,0-0.7,0-1,0h0v0.3v0h0.2c0.4,0,0.7,0.3,0.7,0.7v3.6c0,0.7-0.2,1.1-0.7,1.1h-0.1h0v0.3v0h0c0.4,0,0.8,0,1.2,0
			c0.4,0,0.7,0,1.1,0h0V43v0h-0.2c-0.7,0-0.8-0.2-0.8-1v-3.5l4.4,4.9l0.4,0v0h0l0,0c0-0.3-0.1-0.6-0.1-0.9v-3.9c0-1,0.4-1,0.7-1.1
			h0.1h0v-0.3v0h0C481.2,37.2,480.8,37.3,480.5,37.3z"/>
		<path class="st3" d="M487.5,37L487.5,37c0,0.3-0.2,0.3-0.4,0.3h-4.5h0c-0.2,0-0.4,0-0.4-0.2l0,0h-0.2h0v0c0,0.2,0,0.5-0.1,0.7
			c0,0.3-0.1,0.5-0.1,0.7l0,0h0.3h0l0,0c0.1-0.6,0.1-0.7,0.8-0.8v0v0h0v0h1.4v4.6c0,0.7-0.2,0.7-0.7,0.7h-0.2h0v0.3v0h0
			c0.3,0,0.9,0,1.5,0c0.5,0,1.1,0,1.4,0l0,0V43v0h-0.2c-0.4,0-0.7-0.1-0.7-0.7v-4.6h1.4c0.5,0,0.6,0.5,0.6,0.8l0,0.1l0.3-0.1l0,0v0
			c0-0.2,0-0.5,0-0.7c0-0.2,0.1-0.5,0.1-0.7l0,0L487.5,37L487.5,37z"/>
		<path class="st3" d="M492.7,41.8L492.7,41.8c-0.3,1-0.7,1.1-1.7,1.1c-0.6,0-1,0-1-0.5v-2l1,0c0.6,0,0.6,0.3,0.6,0.8l0,0l0.3-0.1
			l0,0l0,0c0-0.3,0-0.7,0-1c0-0.3,0-0.7,0-1l0,0h-0.3h0l0,0c-0.1,0.5-0.1,0.7-0.6,0.7h-1l0-2.2h1.2c0.9,0,1,0.4,1,1l0,0l0.3-0.1l0,0
			l0,0c0-0.2,0-0.6,0-0.9c0-0.2,0-0.3,0-0.4l0,0h0c-0.6,0-1.5,0-2.2,0c-0.7,0-1.6,0-2.1,0h0v0.3v0h0.2c0.3,0,0.6,0,0.6,0.5v4.5
			c0,0.4-0.3,0.4-0.6,0.5h-0.1h0v0v0.3v0h0c0.5,0,1.5,0,2.3,0c0.8,0,1.8,0,2.3,0h0l0,0c0.1-0.5,0.2-0.9,0.3-1.4l0,0L492.7,41.8
			L492.7,41.8z"/>
		<path class="st3" d="M498.5,42.5l-1.5-2.2c0.7-0.3,1.2-0.8,1.2-1.5c0-1.3-1-1.6-2.1-1.6c-0.5,0-0.9,0-1.4,0c-0.5,0-1.1,0-1.3,0h0
			v0.3v0h0.2c0.3,0,0.6,0,0.6,0.6v4.4c0,0.3-0.3,0.4-0.6,0.4h-0.2h0v0.3v0h0c0.4,0,0.8,0,1.3,0c0.5,0,1,0,1.5,0h0V43v0H496
			c-0.4,0-0.7,0-0.7-0.7v-1.8h0.5c0.6,1,1.1,1.9,1.8,2.8c0.3,0,0.6,0,0.8,0c0.3,0,0.6,0,0.8,0v0h0V43v0l0,0
			C498.9,43,498.7,42.9,498.5,42.5z M497,38.8c0,1-0.4,1.3-1.3,1.3h-0.4v-2.5c0.1,0,0.2,0,0.5,0C496.5,37.6,497,38.1,497,38.8z"/>
		<path class="st3" d="M506.5,37.6v-0.3v0h0c-0.4,0-0.7,0-1.1,0c-0.4,0-0.8,0-1.2,0h0v0.3v0h0.2c0.3,0,0.7,0.1,0.7,0.8v3.2l-3.8-4.3
			c-0.3,0-0.5,0-0.8,0c-0.3,0-0.7,0-1,0h0v0.3v0h0.2c0.4,0,0.7,0.3,0.7,0.7v3.6c0,0.7-0.2,1.1-0.7,1.1h-0.1h0v0.3v0h0
			c0.4,0,0.8,0,1.2,0c0.4,0,0.7,0,1.1,0h0V43v0h-0.2c-0.7,0-0.8-0.2-0.8-1v-3.5l4.4,4.9l0.4,0h0l0,0c0-0.3-0.1-0.6-0.1-0.9v-3.9
			c0-1,0.4-1.1,0.7-1.1H506.5L506.5,37.6z"/>
		<path class="st3" d="M511.9,42.7c-0.1-0.3-0.2-0.6-0.3-0.9l-1.6-4.5c0-0.1-0.1-0.1-0.1-0.2c0,0-0.1-0.1-0.1-0.1c0,0-0.1,0-0.1,0
			c-0.2,0.1-0.5,0.3-0.8,0.4c-0.1,0.3-0.2,0.8-0.3,1.1l-1.4,4c-0.1,0.4-0.4,0.5-0.7,0.5h-0.1h0v0.3v0l0,0c0.3,0,0.6,0,0.9,0
			c0.3,0,0.7,0,1,0l0,0V43v0h-0.1c-0.3,0-0.6-0.1-0.6-0.3c0-0.1,0.1-0.4,0.2-0.7l0.3-0.9h1.9l0.3,1c0.1,0.3,0.2,0.5,0.2,0.6
			c0,0.2-0.3,0.2-0.5,0.2H510h0v0.3v0l0,0c0.4,0,0.9,0,1.3,0c0.4,0,0.8,0,1.2,0l0,0V43v0h-0.1C512.1,43,512,42.9,511.9,42.7z
			 M509.9,40.6h-1.5l0.8-2.3L509.9,40.6z M507.9,42.1L507.9,42.1L507.9,42.1L507.9,42.1z"/>
		<path class="st3" d="M517.6,37L517.6,37c0,0.3-0.2,0.3-0.4,0.3h-4.5l0,0c-0.2,0-0.4,0-0.4-0.2l0,0h-0.2h0v0c0,0.2,0,0.5-0.1,0.7
			c0,0.2-0.1,0.5-0.1,0.7l0,0h0.3h0l0,0c0.1-0.6,0.1-0.7,0.8-0.8v0c0,0,0,0,0,0v0h1.4l0,4.6c0,0.7-0.2,0.7-0.7,0.7h-0.2h0v0.3v0h0
			c0.3,0,0.9,0,1.5,0c0.5,0,1.1,0,1.4,0l0,0V43v0h-0.2c-0.4,0-0.7-0.1-0.7-0.7v-4.6h1.4c0.5,0,0.6,0.5,0.6,0.8l0,0.1l0.3-0.1l0,0v0
			c0-0.2,0-0.5,0-0.7c0-0.2,0.1-0.5,0.1-0.7l0,0L517.6,37L517.6,37z"/>
		<path class="st3" d="M519.4,37.3c-0.4,0-0.9,0-1.3,0h0v0.3v0h0.2c0.3,0,0.6,0,0.6,0.5v4.5c0,0.4-0.3,0.4-0.6,0.5h-0.1h0v0v0.3v0h0
			c0.3,0,0.8,0,1.3,0c0.4,0,0.9,0,1.4,0h0V43v0h-0.2c-0.3,0-0.6,0-0.6-0.5V38c0-0.4,0.3-0.5,0.6-0.5h0.1h0v-0.3v0h0
			C520.3,37.2,519.8,37.3,519.4,37.3z"/>
		<path class="st3" d="M524.2,37.1L524.2,37.1L524.2,37.1L524.2,37.1L524.2,37.1L524.2,37.1c-1.8,0-3.2,1.4-3.2,3.2h0
			c0,1.9,1.4,3.1,3.3,3.1c1.9,0,3.3-1.3,3.3-3.3C527.5,38.3,526.1,37.1,524.2,37.1z M524.2,37.6c1.4,0,2.1,1.5,2.1,2.8
			c0,1.3-0.3,2.7-1.9,2.7c-1.4,0-2.1-1.4-2.1-3C522.3,38.9,522.7,37.6,524.2,37.6z"/>
		<polygon class="st3" points="521,40.3 521,40.3 521,40.3 		"/>
		<path class="st3" d="M534.7,37.6v-0.3v0h0c-0.4,0-0.7,0-1.1,0c-0.4,0-0.8,0-1.2,0h0v0.3v0h0.2c0.3,0,0.7,0.1,0.7,0.8v3.2l-3.8-4.3
			c-0.3,0-0.5,0-0.8,0c-0.3,0-0.7,0-1,0h0v0.3v0h0.1c0.4,0,0.7,0.3,0.7,0.7v3.6c0,0.7-0.2,1.1-0.7,1.1h-0.1h0v0.3v0h0
			c0.4,0,0.8,0,1.2,0c0.4,0,0.7,0,1.1,0h0V43v0h-0.2c-0.6,0-0.8-0.2-0.8-1v-3.5l4.4,4.9l0.4,0v0h0l0,0c0-0.3,0-0.6,0-0.9v-3.9
			c0-1,0.4-1,0.7-1.1H534.7L534.7,37.6z"/>
		<path class="st3" d="M540.1,42.7c-0.1-0.3-0.2-0.6-0.3-0.9l-1.6-4.5c0-0.1-0.1-0.1-0.1-0.2c0,0-0.1-0.1-0.1-0.1c0,0-0.1,0-0.1,0
			c-0.2,0.1-0.5,0.3-0.8,0.4c-0.1,0.3-0.2,0.8-0.3,1.1l-1.4,4c-0.1,0.4-0.4,0.5-0.7,0.5h0h0v0.3v0l0,0c0.3,0,0.6,0,0.9,0
			c0.3,0,0.7,0,1,0l0,0V43v0h-0.1c-0.3,0-0.6-0.1-0.6-0.3c0-0.1,0.1-0.4,0.2-0.7l0.3-0.9h1.9l0.3,1c0.1,0.3,0.2,0.5,0.2,0.6
			c0,0.2-0.3,0.2-0.5,0.2h-0.1h0v0.3v0l0,0c0.4,0,0.9,0,1.3,0c0.4,0,0.8,0,1.2,0l0,0V43v0h-0.1C540.3,43,540.2,42.9,540.1,42.7z
			 M538.1,40.6h-1.5l0.8-2.3L538.1,40.6z M536.1,42.1L536.1,42.1L536.1,42.1L536.1,42.1z"/>
		<path class="st3" d="M545.6,41.8L545.6,41.8c-0.1,0.2-0.1,0.5-0.3,0.6c-0.1,0.2-0.5,0.4-0.8,0.5c-0.2,0-0.4,0-0.7,0
			c-0.2,0-0.3,0-0.5,0c-0.3,0-0.5-0.1-0.5-0.4V38c0-0.4,0.2-0.4,0.5-0.4h0.2h0v-0.3v0h0c-0.4,0-0.9,0-1.3,0c-0.5,0-0.9,0-1.4,0h0
			v0.3v0h0.2c0.3,0,0.6,0,0.6,0.5v4.4c0,0.5-0.3,0.5-0.6,0.5H541h0v0.3v0h0c0.8,0,1.5,0,2.3,0c0.8,0,1.5,0,2.3,0v0h0h0l0,0
			c0.1-0.5,0.2-1,0.3-1.5l0,0H545.6L545.6,41.8z"/>
		<path class="st3" d="M546,38.2l-0.1-0.2c0.1,0,0.2-0.1,0.2-0.3c0-0.2-0.1-0.2-0.3-0.2h-0.5v0c0.1,0,0.1,0,0.1,0.1v0.7
			c0,0.1,0,0.1-0.1,0.1v0h0.4v0c-0.1,0-0.1,0-0.1-0.1V38h0.1c0.2,0.2,0.2,0.4,0.3,0.4h0.2v0C546.2,38.4,546.1,38.3,546,38.2z
			 M545.7,37.9h-0.1v-0.4h0.1c0.1,0,0.2,0.1,0.2,0.2C545.9,37.9,545.8,37.9,545.7,37.9z"/>
		<path class="st3" d="M545.7,37c-0.5,0-0.9,0.4-0.9,0.9c0,0.5,0.4,0.9,0.9,0.9s0.9-0.4,0.9-0.9C546.7,37.4,546.3,37,545.7,37z
			 M545.7,38.7c-0.4,0-0.7-0.3-0.7-0.7c0-0.4,0.3-0.7,0.7-0.7c0.4,0,0.7,0.4,0.7,0.7C546.5,38.3,546.2,38.7,545.7,38.7z"/>
	</g>
</g>
<path id="path2997_1_" class="st3" d="M952.1,47.7l-28,0c1.5-7.6,3.1-15.3,4.7-22.9c0.3-1.5,0.5-3.2,1.6-4.3c0.9-1,2.1-1.5,3.4-1.7
	c14.5-0.5,42.6,0,57.2-0.2c-1.7,8.4-3.4,16.9-5.2,25.3c-0.6,1.8-1.9,2.9-3.7,3.4C981.7,48.1,953.3,47.5,952.1,47.7z M942.2,40.4h0.7
	c0.2-1.1,0.4-2.8,0.6-3.9c0.4,0.7,0.8,0.9,1.6,1c5.5,0.1,5.4-10.6-0.7-6.6c0-0.2,0.1-0.6,0.1-0.7c-0.3,0-0.9,0-1.2,0
	c-0.5,3.4-1.1,6.8-1.8,10.2C941.5,40.4,942.2,40.4,942.2,40.4z M945.3,36.5c-2.6,0.1-1-3.3-0.9-4.8c0.9-1,3.1-1,3.2,0.6
	c0,1.5-0.3,3.8-2,4.2C945.6,36.5,945.3,36.5,945.3,36.5L945.3,36.5z M952.4,37.4c0.9,0,1.8-0.2,2.7-0.4c0-0.3,0.1-0.8,0.2-1.1
	c0,0,0,0,0,0c-2.4,1-4.9,0.8-4.1-2.5c1.4-0.1,3.4,0,4.8,0c1.6-4.2-4.2-4.4-5.7-1.5C949.1,34.2,949,37.6,952.4,37.4L952.4,37.4z
	 M953,32.7c-0.9,0-1.7,0-1.7,0c0.1-0.2,0.3-0.7,0.4-0.9c0.6-0.7,1.5-0.9,2.4-0.7c0.8,0.2,0.8,0.9,0.7,1.6
	C954.7,32.7,953,32.7,953,32.7z M963.1,37.4c0.7,0,1.6-0.1,2.3-0.4c0.1-0.1,0.2-0.7,0.2-0.9c0.1-0.4,0-0.2-0.4,0
	c-0.3,0.2-0.9,0.2-1.3,0.3c-3.1,0.6-2.1-5.4,0.2-5.4c0.7-0.1,1.6,0.1,2.2,0.3c0-0.2,0.2-0.9,0.2-1.1c-1.6-0.2-3.8-0.4-4.9,1.1
	C960.2,33.2,959.7,37.7,963.1,37.4L963.1,37.4z M968.7,37.4c1,0.1,1.9-0.5,2.4-1.3c0,0.2-0.1,0.9-0.1,1.1c0.3,0,0.9,0,1.2,0
	c0.2-5.2,3.1-8-4.1-7c-0.5,1.9-0.4,0.8,1.9,0.8c0,0,0.5,0,0.5,0l0.3,0.1l0.3,0.1c0.1,0,0.3,0.1,0.4,0.2c0.1,0.1,0.2,0.2,0.2,0.3
	c0,0.3,0,0.7-0.1,1.1c-5.6-0.8-6.5,4.4-3.3,4.7C968.2,37.4,968.7,37.4,968.7,37.4L968.7,37.4z M969.1,36.5c-2.1,0.2-1.9-3.7,2.2-2.9
	C971.1,34.9,970.7,36.4,969.1,36.5z M980.1,37.4c1,0.1,2-0.4,2.4-1.3c0,0.4-0.1,0.7-0.1,1.1c0.3,0,1,0,1.3,0c0.2-3.4,1-6.8,1.6-10.1
	c-0.4,0-1.1,0-1.4,0c-0.1,0.8-0.4,2.3-0.5,3.2C978.3,28.2,975.1,37.3,980.1,37.4z M980.7,36.5c-2.8,0.2-1.4-5.2,0.6-5.4
	c0.3,0,0.8,0,1.1,0c0.2,0.1,0.7,0.2,0.8,0.3c-0.5,1.7-0.2,4.8-2.3,5.2C981,36.5,980.7,36.5,980.7,36.5L980.7,36.5z M930.9,37.3h0.8
	c0.3-1.5,0.5-3.4,0.9-4.9c1.1,0,3.3,0,4.4,0c0,0,0,0,0,0c-0.3,1.5-0.7,3.4-0.9,4.9c0.4,0,1.2,0,1.7,0c0.5-3.2,1.1-6.7,1.8-9.9
	c-0.4,0-1.3,0-1.7,0c-0.2,1.2-0.5,2.7-0.7,4c-1.2,0-3.4,0.1-4.5,0c0.2-1.3,0.5-2.7,0.7-4c-0.4,0-1.2,0-1.7,0
	c-0.5,3.2-1.1,6.7-1.7,9.9L930.9,37.3L930.9,37.3z M940,37.3h0.7c0.3-2.2,0.7-4.8,1.3-7c-0.4,0-1.1,0-1.5,0c-0.3,2.3-0.8,4.8-1.2,7
	C939.3,37.3,940,37.3,940,37.3z M957,37.3h0.7c0.4-2,0.2-6.9,3.4-6c0-0.1,0.2-0.9,0.2-1c-1.1-0.6-2.2,0.2-2.8,1.2
	c0.1-0.2,0.2-1,0.2-1.2c-0.3,0-1,0-1.3,0c-0.3,2.3-0.8,4.8-1.2,7L957,37.3L957,37.3z M974.2,37.3h0.7c0.3-2,0.2-6.9,3.4-6
	c0,0,0,0,0.1,0c0-0.2,0.1-0.7,0.2-1c-1.1-0.5-2.2,0.2-2.7,1.1c0-0.1,0.2-1.1,0.2-1.1c-0.3,0-0.9,0-1.3,0c-0.3,2.3-0.8,4.8-1.2,7
	L974.2,37.3L974.2,37.3z M941.4,29c0.9,0.1,1.4-1.4,0.6-1.7c-0.6,0-1,0.1-1.2,0.7c0,0.4-0.1,0.6,0.1,0.9C941.1,29,941.2,29,941.4,29
	L941.4,29z"/>
<g>
	<path class="st15" d="M40,49.1c-0.6,0-1,0.4-1.1,1H41C41,49.4,40.6,49.1,40,49.1z"/>
	<path class="st15" d="M26.8,49.1c-0.8,0-1.3,0.6-1.3,1.3c0,0.7,0.5,1.3,1.3,1.3c0.7,0,1.3-0.6,1.3-1.3C28,49.7,27.5,49.1,26.8,49.1
		z"/>
	<path class="st15" d="M52.1,49.1c-0.8,0-1.3,0.6-1.3,1.3c0,0.7,0.5,1.3,1.3,1.3c0.7,0,1.3-0.6,1.3-1.3
		C53.3,49.7,52.8,49.1,52.1,49.1z"/>
	<path class="st15" d="M60.4,49.1c-0.8,0-1.3,0.6-1.3,1.3c0,0.7,0.5,1.3,1.3,1.3c0.7,0,1.3-0.6,1.3-1.3
		C61.7,49.7,61.1,49.1,60.4,49.1z"/>
	<path class="st4" d="M36.3,51.7c-0.4,0-0.6-0.3-0.6-0.7v-1.9h1.5v-0.8h-1.5v-1.3h-0.9v1.3H34v0.8h0.8v1.9c0,0.9,0.4,1.5,1.4,1.5
		c0.4,0,0.8-0.1,1.1-0.3l-0.3-0.8C36.9,51.7,36.6,51.7,36.3,51.7z"/>
	<path class="st4" d="M31.9,50l-0.4,0c-0.4,0-0.7-0.1-0.7-0.4c0-0.3,0.3-0.5,0.8-0.5c0.5,0,1,0.2,1.3,0.3l0.4-0.7
		c-0.4-0.3-1-0.4-1.7-0.4c-1,0-1.7,0.5-1.7,1.3c0,0.7,0.5,1.1,1.4,1.2l0.4,0c0.5,0.1,0.7,0.2,0.7,0.4c0,0.3-0.3,0.5-0.9,0.5
		s-1.1-0.2-1.4-0.4l-0.4,0.7c0.5,0.3,1.1,0.5,1.8,0.5c1.2,0,1.9-0.6,1.9-1.3C33.4,50.5,32.8,50.1,31.9,50z"/>
	<path class="st4" d="M22.1,48.3c-0.5,0-1.1,0.2-1.5,0.7c-0.3-0.5-0.7-0.7-1.4-0.7c-0.4,0-0.9,0.1-1.2,0.6v-0.5h-0.9v4.1h0.9v-2.3
		c0-0.7,0.4-1.1,1-1.1s0.9,0.4,0.9,1.1v2.3h0.9v-2.3c0-0.7,0.4-1.1,1-1.1c0.6,0,0.9,0.4,0.9,1.1v2.3h1v-2.6
		C23.8,48.9,23.2,48.3,22.1,48.3z"/>
	<path class="st4" d="M28,48.9c-0.3-0.4-0.7-0.6-1.3-0.6c-1.2,0-2.1,0.9-2.1,2.2c0,1.3,0.9,2.2,2.1,2.2c0.6,0,1-0.2,1.3-0.6v0.5h0.9
		v-2.1v0v-2.1H28V48.9z M26.8,51.8c-0.8,0-1.3-0.6-1.3-1.3c0-0.7,0.5-1.3,1.3-1.3c0.7,0,1.3,0.6,1.3,1.3
		C28,51.2,27.5,51.8,26.8,51.8z"/>
	<path class="st4" d="M53.2,48.9c-0.3-0.4-0.7-0.6-1.3-0.6c-1.2,0-2.1,0.9-2.1,2.2c0,1.3,0.9,2.2,2.1,2.2c0.6,0,1-0.2,1.3-0.6v0.5
		h0.9v-2.1v0v-2.1h-0.9V48.9z M52.1,51.8c-0.8,0-1.3-0.6-1.3-1.3c0-0.7,0.5-1.3,1.3-1.3c0.7,0,1.3,0.6,1.3,1.3
		C53.3,51.2,52.8,51.8,52.1,51.8z"/>
	<path class="st4" d="M40,48.3c-1.2,0-2.1,0.9-2.1,2.2c0,1.3,0.9,2.2,2.1,2.2c0.6,0,1.2-0.2,1.7-0.6l-0.4-0.6
		c-0.3,0.3-0.8,0.4-1.2,0.4c-0.6,0-1.1-0.3-1.3-1h3.1c0-0.1,0-0.2,0-0.3C41.9,49.1,41.2,48.3,40,48.3z M38.9,50c0.1-0.6,0.5-1,1.1-1
		c0.6,0,0.9,0.3,1,1H38.9z"/>
	<path class="st4" d="M61.6,48.9c-0.3-0.4-0.7-0.6-1.3-0.6c-1.2,0-2.1,0.9-2.1,2.2c0,1.3,0.9,2.2,2.1,2.2c0.6,0,1-0.2,1.3-0.6v0.5
		h0.9v-2.1v-3.7h-0.9V48.9z M60.4,51.8c-0.8,0-1.3-0.6-1.3-1.3c0-0.7,0.5-1.3,1.3-1.3c0.7,0,1.3,0.6,1.3,1.3
		C61.7,51.2,61.1,51.8,60.4,51.8z"/>
	<path class="st4" d="M56.3,48.9v-0.5h-0.9v4.1h0.9v-2.3c0-0.7,0.3-1.1,0.9-1.1c0.2,0,0.4,0,0.6,0.1l0.3-0.9c-0.2,0-0.4,0-0.6,0
		C56.8,48.3,56.5,48.5,56.3,48.9z"/>
	<path class="st4" d="M43.8,48.9v-0.5h-0.9v4.1h0.9v-2.3c0-0.7,0.3-1.1,0.9-1.1c0.2,0,0.4,0,0.6,0.1l0.3-0.9c-0.2,0-0.4,0-0.6,0
		C44.4,48.3,44,48.5,43.8,48.9z"/>
	<path class="st4" d="M47.9,49.1c0.4,0,0.7,0.1,1.1,0.4l0.4-0.7c-0.4-0.3-0.9-0.5-1.5-0.5c-1.3,0-2.2,0.9-2.2,2.2v0
		c0,1.3,0.9,2.2,2.2,2.2c0.6,0,1-0.1,1.5-0.5L49,51.4c-0.3,0.3-0.7,0.4-1.1,0.4c-0.7,0-1.3-0.5-1.3-1.3
		C46.7,49.7,47.2,49.1,47.9,49.1z"/>
	<path class="st16" d="M33.8,29.1c0,5,2.3,9.4,5.9,12.2h0c3.6-2.8,5.9-7.2,5.9-12.2c0-5-2.3-9.4-5.9-12.2h0
		C36.2,19.8,33.8,24.2,33.8,29.1z"/>
	<path class="st17" d="M33.8,29.1c0-5,2.3-9.4,5.9-12.2c-2.6-2.1-6-3.3-9.6-3.3c-8.6,0-15.5,6.9-15.5,15.5s6.9,15.5,15.5,15.5
		c3.6,0,6.9-1.3,9.6-3.3C36.2,38.5,33.8,34.1,33.8,29.1z"/>
	<path class="st8" d="M49.4,13.6c-3.6,0-6.9,1.3-9.6,3.3c3.6,2.8,5.9,7.2,5.9,12.2c0,5-2.3,9.4-5.9,12.2c2.6,2.1,6,3.3,9.6,3.3
		c8.6,0,15.5-6.9,15.5-15.5C64.9,20.6,58,13.6,49.4,13.6z"/>
</g>
</svg>
