<?xml version="1.0" encoding="utf-8"?>
<!-- Generator: Adobe Illustrator 24.1.0, SVG Export Plug-In . SVG Version: 6.00 Build 0)  -->
<svg version="1.1" id="Camada_1" xmlns="http://www.w3.org/2000/svg" xmlns:xlink="http://www.w3.org/1999/xlink" x="0px" y="0px"
	 viewBox="0 0 202 202" style="enable-background:new 0 0 202 202;" xml:space="preserve">
<style type="text/css">
	.st0{fill-rule:evenodd;clip-rule:evenodd;fill:#5600FF;}
</style>
<g>
	<g>
		<path class="st0" d="M180.7,83.3c-0.4,1.2-0.7,2.5-1.1,3.7c-0.8,2.2-1.8,4.4-3,6.3c-4.7,7.6-11.4,12.7-21.1,15.4
			c-3.2,0.9-8.1,1.6-12.2,0.9c-1.8-0.3-3.6-0.5-5.3-1c-3.5-1-6.6-2.3-9.4-4c-1.3-0.9-2.5-1.8-3.8-2.7c5.2,8.7,10.3,17.4,15.5,26.1
			c4.1,6.8,6.8,13.1,13.7,17.1c1.6,1,3.6,1.6,5.6,2.1c2.1,0.5,5.1,0.7,7.4,0.3c9.7-1.7,15.9-6.8,18.6-15.5c0.7-2.2,0.7-4.8,0.7-7.5
			C184.5,110.8,182.6,97.1,180.7,83.3z M117.3,71.5c-0.3,1.3,0,2.6-0.3,4v2.4c0.4,2.5,0.6,4.7,1.3,6.8c2.9,9.1,9.3,15.5,17.9,18.9
			c6.6,2.6,15.8,2.5,22.2-0.2c10.5-4.3,19.2-13.7,18.9-28.7c-0.1-1-0.2-2-0.3-3c-0.4-2-0.7-3.9-1.4-5.6c-3.4-8.7-9.8-15.3-18.9-18.2
			c-1.6-0.5-3.4-0.9-5.2-1.2c-4.2-0.8-9.3-0.1-12.7,0.9c-9,2.7-15.6,8.3-19.2,16.4C118.6,66.3,117.9,68.8,117.3,71.5z M141.8,88.8
			c-0.7-3.7,3.1-7,6.8-5.9c2.5,0.7,2.8,2.2,3.8,4.4C152.5,94.6,143,95,141.8,88.8z M161,71.1c1.5,0.5,2.7,1.7,3.3,3.1
			c0.1,0.5,0.2,1,0.3,1.5c0.1,7.1-9.6,7.4-10.6,0.8C153.4,72.9,157.4,69.9,161,71.1z M148.7,59.1c2.4,0.7,2.8,2.2,3.7,4.4
			c0.1,7.4-9.6,7.7-10.6,0.9C141.2,60.9,145.3,58.1,148.7,59.1z M136.4,71c2.4,0.7,2.9,2.2,3.8,4.3c0.1,7.5-9.5,7.7-10.6,1.4
			C129,73.1,132.9,69.9,136.4,71z M117.8,93.6c-3.9-6.2-6.8-16.7-3.9-26.3c0.9-3,2-5.8,3.5-8.2c0.8-1.2,1.6-2.4,2.4-3.6
			c0.1-0.1,0.1-0.1,0.2-0.2c-12.4,0-24.9,0-37.3-0.1v0.1c1.4,2.1,3,4.1,4.1,6.5c2.8,6.4,4.3,15.7,1.8,23.7c-1.1,3.5-2.6,6.7-4.6,9.4
			c-0.9,1.2-1.9,2.3-2.8,3.5c13.4,0,26.8,0,40.2-0.1C120,97.3,118.8,95.2,117.8,93.6z M95.3,76.8c-0.7-4,3.5-7.5,7.4-6.3
			c1.8,0.5,3.3,1.8,3.9,3.5c0.1,0.5,0.2,1,0.3,1.5C107.1,83.4,96.5,83.7,95.3,76.8z M85.5,72.4c-0.4-2.1-0.7-4.1-1.4-5.9
			c-3.5-8.9-9.3-14.8-18.2-18.3c-1.7-0.7-3.7-1-5.6-1.4c-4.4-0.9-9.8-0.2-13.3,0.9c-9,2.7-15.5,8.4-19.1,16.6
			c-1,2.2-1.7,4.7-2.2,7.4c-0.1,0.9-0.2,1.9-0.2,2.8c0,1,0,2-0.1,3c0.5,2.7,0.6,5,1.3,7.3c2.7,8.4,8.7,14.8,16.4,18.2
			c2,0.9,4.2,1.5,6.6,2c6.3,1.4,13.3-0.1,17.8-2C77.9,98.7,85.1,90,85.7,75.9C85.6,74.7,85.6,73.5,85.5,72.4z M72.6,76.6
			c-0.9,5.2-6.2,4.3-12.2,4.2c0.1,6.1,1,11.1-4.4,12c-1.1,0.2-2.1-0.2-2.7-0.6c-3.5-1.8-2.7-6.3-2.7-11.4c-6.1,0.1-11.3,1-12.2-4.4
			c-0.2-1.1,0.3-2.1,0.7-2.7c1.9-3.2,6.5-2.5,11.5-2.4c-0.1-6.2-1-11.1,4.6-12c1-0.2,2,0.3,2.6,0.6c3.5,1.8,2.7,6.3,2.7,11.4
			c5.2,0,9.8-0.8,11.7,2.7C72.4,74.6,72.8,75.6,72.6,76.6z M72.6,105.4c-3.1,1.8-6.8,3-10.9,3.9c-5.3,1.2-12,0.3-16.3-1
			c-9.9-3.1-17.3-9.5-21.2-18.5c-0.9-2.1-2-4.5-2.3-7.1c-0.9,6.8-1.9,13.7-2.8,20.5c-0.7,5.1-1.4,10.1-2.1,15.2
			c-0.7,3.7-1.5,8.7-0.5,12.7c2.2,8.8,8.2,14.4,17.2,16.4c5.7,1.3,11.8-0.5,15.3-2.7c5.2-3.1,7.7-8,10.9-13.2
			c3.2-5.4,6.4-10.8,9.6-16.2c2.6-4.3,5.2-8.7,7.7-13c-0.5,0.4-1.1,0.8-1.6,1.2C74.6,104.1,73.6,104.7,72.6,105.4z"/>
	</g>
</g>
</svg>
