<?xml version="1.0" encoding="utf-8"?>
<!-- Generator: Adobe Illustrator 24.1.0, SVG Export Plug-In . SVG Version: 6.00 Build 0)  -->
<svg version="1.1" id="Camada_1" xmlns="http://www.w3.org/2000/svg" xmlns:xlink="http://www.w3.org/1999/xlink" x="0px" y="0px"
	 viewBox="0 0 216.9 69.6" style="enable-background:new 0 0 216.9 69.6;" xml:space="preserve">
<style type="text/css">
	.st0{fill:#5600FF;}
</style>
<g>
	<path class="st0" d="M67.5,36.2c-2.1,0-3.8-0.7-5-1.9c-1.2-1.3-1.8-3.1-1.8-5.3l0-8.9c0-2.3,1.9-4.1,4.2-4.1h0
		c2.3,0,4.1,1.9,4.1,4.2l0,6.3c0,0.8,0.2,1.5,0.6,2c0.4,0.5,1,0.7,1.6,0.7c0.6,0,1.2-0.2,1.6-0.7c0.5-0.5,0.7-1.1,0.7-2l0-6.3
		c0-2.3,1.9-4.1,4.2-4.1h0c2.3,0,4.1,1.9,4.1,4.2l0,14.2c0,0-0.1,2.4-3.7,1.4c-1.7-0.5-3.2-1.8-3.9-2.2c-0.4-0.2-0.9-0.1-1,0.1
		c-0.6,0.6-1.3,1.2-2.1,1.7C70.1,35.9,68.9,36.2,67.5,36.2z"/>
	<path class="st0" d="M134.6,36.1c-1.6,0.4-3.1,0.5-4.5,0.3c-1.4-0.2-2.7-0.6-3.8-1.2c-1.1-0.6-2.1-1.5-2.9-2.6
		c-0.8-1.1-1.4-2.4-1.7-3.9l0-0.1c-0.3-1.4-0.4-2.8-0.2-4.2c0.2-1.3,0.6-2.6,1.3-3.7c0.7-1.1,1.5-2.1,2.6-2.9
		c1.1-0.8,2.3-1.4,3.8-1.7c1.7-0.4,3.2-0.5,4.6-0.2c1.4,0.3,2.6,0.8,3.6,1.5c1,0.8,1.9,1.7,2.6,2.9c0.6,1.1,1.1,2.3,1.5,3.5
		c0.5,1.8-1.3,2.2-1.3,2.2l-9.7,2.3c0,0-1.2,0.1-0.3,1c0.4,0.4,0.8,0.6,1.2,0.8c0.7,0.3,1.5,0.3,2.4,0.1c0.7-0.2,1.4-0.5,1.9-1
		c1.4-1.2,2.6-1.2,3.3-1c0.3,0.1,1.7,0.7,2.2,1.5c0.3,0.5,0.4,1.5-0.5,2.6c-0.3,0.5-0.8,0.9-1.2,1.3
		C138.4,34.8,136.7,35.6,134.6,36.1z M133.3,22.7c-0.2-0.3-0.5-0.5-0.8-0.7c-0.6-0.4-1.3-0.5-2-0.3c-0.7,0.2-1.2,0.6-1.5,1.2
		c-0.2,0.3-0.3,0.7-0.3,1c-0.3,1.5,0.8,1.1,0.8,1.1l3.4-0.8C132.9,24.2,134.3,24,133.3,22.7z"/>
	<path class="st0" d="M107.7,26.4L107.7,26.4c0-1.6-0.2-3-0.7-4.2c-0.4-1.2-1-2.3-1.8-3.2c-0.8-0.9-1.7-1.6-2.7-2.1
		c-1-0.5-2.1-0.7-3.3-0.7c-0.7,0-1.4,0.1-2,0.3c-0.6,0.2-1.1,0.4-1.5,0.6c-0.5,0.3-0.9,0.6-1.2,0.9c-0.4,0.3-0.7,0.7-1.1,1.1
		c0,0,0,0.1,0,0.1l0-4.6c0-2.1-1.8-3.7-4.1-3.7c-2.2,0-4.1,1.7-4.1,3.7l0,17.8c0,2.1,1.8,3.7,4.1,3.7c1.7,0,2.6-0.5,3.3-2
		c0.4-0.7,0.8,0,0.8,0c0.6,0.7,1.4,1.3,2.3,1.9c0.9,0.5,2.1,0.8,3.6,0.8c1.1,0,2.2-0.2,3.2-0.7c1-0.5,1.9-1.2,2.7-2.1
		c0.8-0.9,1.3-2,1.8-3.3C107.5,29.3,107.7,27.9,107.7,26.4z M98.3,28.3c-0.6,0.6-1.3,0.9-2.1,0.9c-0.4,0-0.8-0.1-1.2-0.2
		c-0.4-0.2-0.7-0.4-0.9-0.7c-0.3-0.3-0.5-0.6-0.6-1c-0.2-0.4-0.2-0.8-0.2-1.2l0-0.1c0-0.9,0.3-1.7,0.8-2.3c0.6-0.6,1.3-0.9,2.1-0.9
		c0.8,0,1.5,0.3,2.1,0.9c0.6,0.6,0.8,1.4,0.8,2.3l0,0.1C99.2,27,98.9,27.7,98.3,28.3z"/>
	<path class="st0" d="M114.6,36.7h-0.2c-2.2,0-3.9-1.8-3.9-3.9l0-18.1c0-2.2,1.8-3.9,3.9-3.9h0.2c2.2,0,3.9,1.8,3.9,3.9l0,18.1
		C118.5,34.9,116.8,36.7,114.6,36.7z"/>
	<g>
		<path class="st0" d="M57.8,27.6L57.8,27.6c0-2.2-0.6-3.8-1.8-4.9c-1.2-1.1-2.7-2-4.7-2.6c1.7-0.6,3-1.4,4-2.5
			c1-1.1,1.5-2.6,1.5-4.4l0-0.1c0-1-0.2-2-0.5-2.7c-0.4-0.8-0.8-1.4-1.4-2c-0.9-0.9-2-1.6-3.4-2c-1.4-0.5-3.1-0.7-5.2-0.7l-14.3,0
			c-1.5,0-2.7,1.2-2.7,2.7l0,25c0,1.5,1.2,2.7,2.7,2.7l14.2,0c1.9,0,3.6-0.2,5.1-0.6c1.5-0.4,2.7-1,3.7-1.8c1-0.8,1.7-1.6,2.2-2.7
			C57.6,29.9,57.8,28.8,57.8,27.6z M39.1,16.9c0-0.8,0-2.8,0-2.8s-0.1-0.8,0.6-0.8c0.7,0,3.8,0,3.8,0c2.2,0,3.3,0.7,3.3,2.1l0,0.1
			c0,1.4-1.1,2.1-3.2,2.1l-3.6,0C40,17.6,39.2,17.7,39.1,16.9z M44.1,28.4l-3.9,0c0,0-0.9,0.1-0.9-0.7c0-0.8,0-3,0-3
			s-0.1-0.8,0.7-0.9c0.7,0,4.1,0,4.1,0c2.4,0,3.5,0.7,3.5,2.3l0,0.1C47.6,27.7,46.4,28.4,44.1,28.4z"/>
	</g>
	<path class="st0" d="M199.1,43.2c-1.5,0-2.8-0.2-4.1-0.6c-0.3-0.1-0.8-0.2-1.2-0.4c-2.2-1.3-1.2-3.9-1.2-3.9s0.8-2.7,3.3-1.8
		c0.6,0.2,1.2,0.3,1.6,0.3c0.3,0,0.6-0.1,0.9-0.1c0.4-0.1,0.2-0.6,0.2-0.6l-5.5-13.4c-1-2.6,0.8-5.4,3.6-5.4h0
		c1.7,0,3.2,1.1,3.7,2.7l2.1,6.4c0.1,0.4,0.8,0.4,0.9,0l1.9-6.3c0.5-1.6,2-2.8,3.7-2.8h0c2.7,0,4.6,2.7,3.6,5.2l-4.9,13.4
		c-0.5,1.3-1,2.4-1.5,3.4c-0.5,0.9-1.1,1.7-1.8,2.3c-0.7,0.6-1.5,1-2.3,1.3C201.3,43,200.3,43.2,199.1,43.2z"/>
	<path class="st0" d="M166.9,26.4L166.9,26.4c0-1.6-0.2-3-0.7-4.2c-0.4-1.2-1-2.3-1.8-3.2c-0.8-0.9-1.7-1.6-2.7-2.1
		c-1-0.5-2.1-0.7-3.3-0.7c-0.7,0-1.4,0.1-2,0.3c-0.6,0.2-1.1,0.4-1.5,0.6c-0.5,0.3-0.9,0.6-1.2,0.9c-0.4,0.3-0.7,0.7-1.1,1.1
		c0,0,0,0.1,0,0.1l0-4.6c0-2.1-1.8-3.7-4.1-3.7c-2.2,0-4.1,1.7-4.1,3.7l0,17.8c0,2.1,1.8,3.7,4.1,3.7c1.7,0,2.6-0.5,3.3-2
		c0.4-0.7,0.8,0,0.8,0c0.6,0.7,1.4,1.3,2.3,1.9c0.9,0.5,2.1,0.8,3.6,0.8c1.1,0,2.2-0.2,3.2-0.7c1-0.5,1.9-1.2,2.7-2.1
		c0.8-0.9,1.3-2,1.8-3.3C166.7,29.3,166.9,27.9,166.9,26.4z M158,29c-0.6,0.7-1.4,1-2.3,1c-0.5,0-0.9-0.1-1.3-0.3
		c-0.4-0.2-0.7-0.4-1-0.8c-0.3-0.3-0.5-0.7-0.7-1.1c-0.2-0.4-0.2-0.9-0.3-1.4l0-0.1c0-1,0.3-1.8,0.9-2.5c0.6-0.7,1.4-1,2.3-1
		c0.9,0,1.7,0.3,2.3,1c0.6,0.7,0.9,1.5,0.9,2.5l0,0.1C159,27.5,158.7,28.3,158,29z"/>
	<path class="st0" d="M176.5,36.7c-2,0-3.6-0.6-4.7-1.8c-1.2-1.2-1.7-2.9-1.7-5.1l0-8.5c0-2.2,1.8-4,3.9-4h0c2.2,0,4,1.8,4,3.9l0,6
		c0,0.8,0.2,1.4,0.6,1.9c0.4,0.4,0.9,0.7,1.5,0.7c0.6,0,1.1-0.2,1.5-0.7c0.4-0.5,0.7-1.1,0.7-1.9l0-6c0-2.2,1.8-4,3.9-4h0
		c2.2,0,4,1.8,4,3.9l0.1,13.5c0,0-0.1,2.3-3.5,1.4c-1.6-0.5-3.1-1.7-3.8-2.1c-0.4-0.2-0.9-0.1-1,0.1c-0.5,0.6-1.2,1.2-2,1.7
		C179,36.4,177.8,36.7,176.5,36.7z"/>
	<path class="st0" d="M65.3,49.2c-2.8-0.5-5.5,1.6-6.2,4.7c-0.6,3.2,1.2,6.1,3.9,6.7c2.8,0.5,5.5-1.6,6.2-4.7
		C69.8,52.7,68.1,49.7,65.3,49.2L65.3,49.2z"/>
	<path class="st0" d="M45.6,53c-2.8-0.5-5.5,1.6-6.2,4.7c-0.6,3.2,1.2,6.1,3.9,6.7c2.8,0.5,5.5-1.6,6.2-4.7
		C50.2,56.5,48.4,53.5,45.6,53L45.6,53z"/>
	<g>
		<path class="st0" d="M30.9,52.7c-3.8,0-6.1-3.1-6.9-5L13.2,21.4l-7.6,1.7c-1.4,0.3-2.8-0.6-3.1-2c-0.3-1.4,0.6-2.8,2-3.1l9.7-2.1
			c1.2-0.3,2.5,0.4,3,1.6l11.6,28.3c0.3,0.6,1.2,2.2,2.9,1.6c0.7-0.2,1.6-0.6,2.7-1.2c6-2.7,18.4-8.4,38.1-6.5
			c1.4,0.1,2.5,1.4,2.4,2.8c-0.1,1.4-1.4,2.5-2.8,2.3c-18.3-1.7-29.4,3.4-35.4,6.1c-1.4,0.6-2.5,1.1-3.3,1.4
			C32.5,52.6,31.7,52.7,30.9,52.7z"/>
	</g>
</g>
</svg>
