<?xml version="1.0" encoding="utf-8"?>
<!-- Generator: Adobe Illustrator 24.1.0, SVG Export Plug-In . SVG Version: 6.00 Build 0)  -->
<svg version="1.1"
	 id="svg6" inkscape:export-filename="G:\Users\suitedoalex\sites\svg\magalu-logo-0.png" inkscape:export-xdpi="96" inkscape:export-ydpi="96" inkscape:version="0.92.2 (5c3e80d, 2017-08-06)" sodipodi:docname="magalu-logo.svg" xmlns:cc="http://creativecommons.org/ns#" xmlns:dc="http://purl.org/dc/elements/1.1/" xmlns:inkscape="http://www.inkscape.org/namespaces/inkscape" xmlns:rdf="http://www.w3.org/1999/02/22-rdf-syntax-ns#" xmlns:sodipodi="http://sodipodi.sourceforge.net/DTD/sodipodi-0.dtd" xmlns:svg="http://www.w3.org/2000/svg"
	 xmlns="http://www.w3.org/2000/svg" xmlns:xlink="http://www.w3.org/1999/xlink" x="0px" y="0px" viewBox="0 0 170.1 56.5"
	 style="enable-background:new 0 0 170.1 56.5;" xml:space="preserve">
<style type="text/css">
	.st0{fill:#0F88FF;}
	.st1{fill:url(#SVGID_1_);}
</style>
<sodipodi:namedview  bordercolor="#666666" borderopacity="1" gridtolerance="10" guidetolerance="10" id="namedview8" inkscape:current-layer="svg6" inkscape:cx="-955.21137" inkscape:cy="1454.765" inkscape:measure-end="0,0" inkscape:measure-start="0,0" inkscape:pageopacity="0" inkscape:pageshadow="2" inkscape:window-height="837" inkscape:window-maximized="1" inkscape:window-width="1600" inkscape:window-x="-8" inkscape:window-y="-8" inkscape:zoom="0.056568542" objecttolerance="10" pagecolor="#ffffff" showgrid="false">
	</sodipodi:namedview>
<g id="g4" transform="matrix(24.878213,0,0,24.878213,341.80891,1675.6478)" inkscape:export-xdpi="11.253214" inkscape:export-ydpi="11.253214">
	<path id="path2" inkscape:connector-curvature="0" class="st0" d="M-7.1-67.1h-0.1c0,0-0.1,0-0.1,0.1v0.4c0,0.2-0.1,0.3-0.2,0.3
		c-0.1,0-0.2-0.1-0.2-0.2V-67c0,0,0-0.1-0.1-0.1H-8c0,0-0.1,0-0.1,0.1v0.5c0,0.3,0.2,0.5,0.4,0.5c0.1,0,0.2,0,0.3-0.1l0,0.1
		c0,0,0,0.1,0.1,0.1h0.1c0,0,0.1,0,0.1-0.1L-7.1-67.1C-7.1-67.1-7.1-67.1-7.1-67.1z M-8.2-66.4h-0.3c-0.1,0-0.1,0-0.1-0.1V-67
		c0,0,0-0.1-0.1-0.1h-0.2c0,0-0.1,0-0.1,0.1v0.5c0,0.2,0.1,0.4,0.4,0.4h0.3c0,0,0.1,0,0.1-0.1L-8.2-66.4
		C-8.1-66.3-8.1-66.4-8.2-66.4L-8.2-66.4z M-12.4-67C-12.5-67.1-12.5-67.1-12.4-67l-0.2-0.1c0,0-0.1,0-0.1,0l-0.3,0.5l-0.3-0.5
		c0,0,0,0-0.1,0h-0.1c0,0-0.1,0-0.1,0.1l-0.1,0.8c0,0,0,0.1,0.1,0.1h0.1c0,0,0.1,0,0.1-0.1l0-0.5l0.2,0.3c0,0,0,0,0.1,0h0.1
		c0,0,0.1,0,0.1,0l0.2-0.3l0,0.5c0,0,0,0.1,0.1,0.1h0.1c0,0,0.1,0,0.1-0.1L-12.4-67z M-9-67.1h-0.1c0,0-0.1,0-0.1,0.1l0,0
		c-0.1-0.1-0.2-0.1-0.3-0.1c-0.3,0-0.5,0.2-0.5,0.5c0,0.3,0.2,0.5,0.4,0.5c0.2,0,0.3-0.1,0.3-0.1l0,0.1c0,0,0,0.1,0.1,0.1H-9
		c0,0,0.1,0,0.1-0.1L-9-67.1C-9-67.1-9-67.1-9-67.1L-9-67.1z M-9.5-66.3c-0.2,0-0.2-0.1-0.2-0.3c0-0.2,0.1-0.3,0.2-0.3
		c0.1,0,0.2,0.1,0.2,0.3C-9.3-66.4-9.4-66.3-9.5-66.3z M-10.2-67.1h-0.1c0,0-0.1,0-0.1,0.1l0,0c-0.1-0.1-0.2-0.1-0.3-0.1
		c-0.3,0-0.5,0.2-0.5,0.5c0,0.3,0.2,0.5,0.4,0.5c0.2,0,0.3-0.1,0.3-0.1v0c0,0.2-0.1,0.3-0.3,0.3c-0.1,0-0.2,0-0.2-0.1
		c0,0-0.1,0-0.1,0l0,0.1c0,0,0,0.1,0,0.1c0.1,0.1,0.2,0.1,0.4,0.1c0.3,0,0.5-0.2,0.5-0.5L-10.2-67.1C-10.1-67.1-10.1-67.1-10.2-67.1
		L-10.2-67.1z M-10.6-66.4c-0.1,0-0.2-0.1-0.2-0.2c0-0.2,0.1-0.3,0.2-0.3c0.1,0,0.2,0.1,0.2,0.2C-10.4-66.5-10.5-66.4-10.6-66.4z
		 M-11.3-67.1h-0.1c0,0-0.1,0-0.1,0.1l0,0c-0.1-0.1-0.2-0.1-0.3-0.1c-0.3,0-0.5,0.2-0.5,0.5c0,0.3,0.2,0.5,0.4,0.5
		c0.2,0,0.3-0.1,0.3-0.1l0,0.1c0,0,0,0.1,0.1,0.1h0.1c0,0,0.1,0,0.1-0.1L-11.3-67.1C-11.3-67.1-11.3-67.1-11.3-67.1z M-11.8-66.3
		c-0.1,0-0.2-0.1-0.2-0.3c0-0.2,0.1-0.3,0.2-0.3c0.2,0,0.2,0.1,0.2,0.3C-11.5-66.4-11.6-66.3-11.8-66.3z"/>
</g>
<linearGradient id="SVGID_1_" gradientUnits="userSpaceOnUse" x1="2.7364" y1="910.3858" x2="167.7365" y2="910.3858" gradientTransform="matrix(1 0 0 -1 0 960.5428)">
	<stop  offset="8.757218e-04" style="stop-color:#FFE000"/>
	<stop  offset="0.2147" style="stop-color:#FF0006"/>
	<stop  offset="0.5127" style="stop-color:#C600FF"/>
	<stop  offset="0.7798" style="stop-color:#0584FF"/>
	<stop  offset="1" style="stop-color:#00BE00"/>
</linearGradient>
<path class="st1" d="M166.6,53H3.9c-0.6,0-1.2-0.5-1.2-1.2v-3.3c0-0.6,0.5-1.2,1.2-1.2h162.7c0.6,0,1.2,0.5,1.2,1.2v3.3
	C167.7,52.4,167.2,53,166.6,53z"/>
</svg>
