<?xml version="1.0" encoding="utf-8"?>
<!-- Generator: Adobe Illustrator 24.1.0, SVG Export Plug-In . SVG Version: 6.00 Build 0)  -->
<svg version="1.1"
	 id="svg2369" inkscape:export-filename="C:\Users\alex\sites\mercado-livre-logo-0.png" inkscape:export-xdpi="148.6263" inkscape:export-ydpi="148.6263" inkscape:version="0.92.3 (2405546, 2018-03-11)" sodipodi:docname="mercado-livre-logo.svg" xmlns:cc="http://creativecommons.org/ns#" xmlns:dc="http://purl.org/dc/elements/1.1/" xmlns:inkscape="http://www.inkscape.org/namespaces/inkscape" xmlns:rdf="http://www.w3.org/1999/02/22-rdf-syntax-ns#" xmlns:sodipodi="http://sodipodi.sourceforge.net/DTD/sodipodi-0.dtd" xmlns:svg="http://www.w3.org/2000/svg"
	 xmlns="http://www.w3.org/2000/svg" xmlns:xlink="http://www.w3.org/1999/xlink" x="0px" y="0px" viewBox="0 0 200.8 62.1"
	 style="enable-background:new 0 0 200.8 62.1;" xml:space="preserve">
<style type="text/css">
	.st0{fill:#2D3277;}
	.st1{fill:#F7D032;}
	.st2{fill:#FFFFFF;}
</style>
<sodipodi:namedview  bordercolor="#666666" borderopacity="1.0" id="base" inkscape:current-layer="layer1" inkscape:cx="-343.5889" inkscape:cy="3124.8777" inkscape:document-units="mm" inkscape:pageopacity="0.0" inkscape:pageshadow="2" inkscape:window-height="838" inkscape:window-maximized="1" inkscape:window-width="1600" inkscape:window-x="-8" inkscape:window-y="-8" inkscape:zoom="0.061871843" pagecolor="#ffffff" showgrid="false">
	</sodipodi:namedview>
<g id="layer1_1_" transform="translate(0,403)" inkscape:groupmode="layer" inkscape:label="Camada 1">
	
		<g id="g366-2_1_" transform="matrix(6.0478428,0,0,-6.0478428,247.35715,449.76772)" inkscape:export-filename="C:\Users\alex\sites\mercado-livre-logo-5.png" inkscape:export-xdpi="14.664745" inkscape:export-ydpi="14.664745">
		<path id="path368-5_1_" inkscape:connector-curvature="0" class="st0" d="M-28.6,136.2c0,2.2-2.7,3.9-6,3.9s-6-1.8-6-3.9
			c0-0.1,0-0.2,0-0.2c0-2.3,2.3-4.1,6-4.1c3.7,0,6,1.9,6,4.1V136.2z"/>
	</g>
	
		<g id="g370-9_1_" transform="matrix(6.0478428,0,0,-6.0478428,242.48743,449.72646)" inkscape:export-filename="C:\Users\alex\sites\mercado-livre-logo-5.png" inkscape:export-xdpi="14.664745" inkscape:export-ydpi="14.664745">
		<path id="path372-8_1_" inkscape:connector-curvature="0" class="st1" d="M-28.1,136.2c0-2-2.6-3.7-5.8-3.7
			c-3.2,0-5.8,1.7-5.8,3.7s2.6,3.7,5.8,3.7C-30.6,139.9-28.1,138.2-28.1,136.2"/>
	</g>
	
		<g id="g374-8_1_" transform="matrix(6.0478428,0,0,-6.0478428,79.535573,425.03562)" inkscape:export-filename="C:\Users\alex\sites\mercado-livre-logo-5.png" inkscape:export-xdpi="14.664745" inkscape:export-ydpi="14.664745">
		<path id="path376-4_1_" inkscape:connector-curvature="0" class="st2" d="M-8.8,133.3c0,0-0.1-0.1,0-0.1c0.1-0.1,0.4-0.2,0.7-0.1
			c0.2,0,0.4,0.2,0.6,0.4c0.2,0.2,0.5,0.4,0.7,0.4c0.2,0.1,0.4,0,0.5,0c0.1,0,0.2-0.1,0.5-0.3c0.4-0.3,2-1.7,2.3-1.9
			c0.2,0.1,1.2,0.5,2.5,0.8c-0.1,0.7-0.5,1.4-1.2,1.9c-0.9-0.4-2-0.6-3.1-0.1c0,0-0.6,0.3-1.2,0.3c-0.9,0-1.2-0.4-1.6-0.8
			L-8.8,133.3z"/>
	</g>
	
		<g id="g378-5_1_" transform="matrix(6.0478428,0,0,-6.0478428,186.6604,462.023)" inkscape:export-filename="C:\Users\alex\sites\mercado-livre-logo-5.png" inkscape:export-xdpi="14.664745" inkscape:export-ydpi="14.664745">
		<path id="path380-2_1_" inkscape:connector-curvature="0" class="st2" d="M-21.5,137.6c0,0-1.9,1.6-2.3,1.9
			c-0.2,0.2-0.4,0.2-0.5,0.2c-0.1,0-0.2,0-0.2,0c-0.2-0.1-0.4-0.2-0.7-0.4c-0.2-0.2-0.5-0.4-0.7-0.4c-0.3-0.1-0.6,0-0.7,0.1
			c-0.1,0-0.1,0.1-0.1,0.1c-0.1,0.1,0,0.2,0.1,0.2l0.5,0.6c0.1,0.1,0.1,0.1,0.2,0.2c-0.2,0-0.3-0.1-0.5-0.1
			c-0.2-0.1-0.4-0.1-0.5-0.1c-0.1,0-0.5,0.1-0.6,0.1c-0.5,0.1-0.9,0.2-1.5,0.5c-0.7-0.5-1.2-1.2-1.3-2c0.1,0,0.3-0.1,0.3-0.1
			c1.6-0.4,2.2-0.7,2.2-0.8c0.1,0.1,0.2,0.2,0.4,0.2c0.2,0,0.3-0.1,0.4-0.2c0.1,0.1,0.2,0.1,0.4,0.1c0.1,0,0.2,0,0.2,0
			c0.2-0.1,0.3-0.2,0.3-0.3c0.1,0,0.1,0,0.2,0c0.1,0,0.2,0,0.3-0.1c0.3-0.1,0.3-0.4,0.3-0.7c0,0,0,0,0.1,0c0.4,0,0.6-0.3,0.6-0.7
			c0-0.1,0-0.2-0.1-0.3c0.1-0.1,0.3-0.2,0.6-0.2c0.2,0,0.2,0.1,0.3,0.1c0,0,0,0,0,0.1l-0.5,0.5c0,0-0.1,0.1-0.1,0.1c0,0,0.1,0,0.1,0
			c0.2-0.2,0.5-0.5,0.5-0.5c0,0,0,0,0.1-0.1c0.1,0,0.3,0,0.4,0.1c0,0,0.1,0.1,0.1,0.1c0,0,0,0,0,0c0.1,0.2,0,0.3,0,0.3l-0.5,0.6
			c0,0-0.1,0.1-0.1,0.1c0,0,0.1,0,0.1,0c0.2-0.1,0.4-0.4,0.6-0.6c0,0,0.2-0.2,0.5,0c0.2,0.1,0.2,0.2,0.2,0.3c0,0.1-0.1,0.2-0.1,0.2
			l-0.7,0.7c0,0-0.1,0.1-0.1,0.1c0,0,0.1,0,0.1,0c0.2-0.2,0.9-0.8,0.9-0.8c0,0,0.2-0.2,0.5,0c0.1,0.1,0.2,0.2,0.2,0.3
			C-21.3,137.5-21.5,137.6-21.5,137.6"/>
	</g>
	
		<g id="g382-9_1_" transform="matrix(6.0478428,0,0,-6.0478428,110.74311,481.97061)" inkscape:export-filename="C:\Users\alex\sites\mercado-livre-logo-5.png" inkscape:export-xdpi="14.664745" inkscape:export-ydpi="14.664745">
		<path id="path384-2_1_" inkscape:connector-curvature="0" class="st2" d="M-12.5,140c-0.1,0-0.2-0.1-0.3-0.1c0,0,0,0.1,0,0.1
			c0,0,0.2,0.5-0.2,0.6c-0.3,0.1-0.5,0-0.5-0.1c0,0,0,0,0,0c0,0.1,0,0.3-0.3,0.4c-0.3,0.1-0.6-0.1-0.6-0.2c0,0.2-0.2,0.4-0.4,0.4
			c-0.2,0-0.4-0.2-0.4-0.4c0-0.2,0.2-0.4,0.4-0.4c0.1,0,0.2,0,0.3,0.1c0,0,0,0,0,0c0-0.1,0-0.5,0.3-0.6c0.2-0.1,0.3,0,0.4,0.1
			c0,0,0,0,0,0c0-0.1,0-0.3,0.3-0.4c0.2-0.1,0.3,0,0.4,0.1c0,0,0,0,0,0c0-0.3,0.2-0.5,0.5-0.5c0.3,0,0.5,0.2,0.5,0.5
			S-12.2,140-12.5,140"/>
	</g>
	
		<g id="g386-5_1_" transform="matrix(6.0478428,0,0,-6.0478428,110.74311,502.6772)" inkscape:export-filename="C:\Users\alex\sites\mercado-livre-logo-5.png" inkscape:export-xdpi="14.664745" inkscape:export-ydpi="14.664745">
		<path id="path388-2_1_" inkscape:connector-curvature="0" class="st0" d="M-12.5,142.4c-0.3,0-0.5,0.2-0.5,0.4c0,0,0,0.1-0.1,0.1
			c0,0,0,0-0.1,0c-0.1-0.1-0.1-0.1-0.2-0.1c0,0-0.1,0-0.2,0c-0.3,0.1-0.3,0.3-0.3,0.4c0,0,0,0,0,0.1l0,0h0c0,0,0,0,0,0
			c-0.1-0.1-0.2-0.1-0.2-0.1c0,0-0.1,0-0.1,0c-0.4,0.1-0.3,0.5-0.3,0.6c0,0,0,0,0,0l0,0l0,0c-0.1-0.1-0.2-0.1-0.3-0.1
			c-0.2,0-0.4,0.2-0.4,0.4c0,0.2,0.2,0.4,0.4,0.4c0.2,0,0.3-0.1,0.4-0.3l0-0.1l0.1,0.1c0,0,0.2,0.2,0.4,0.2c0.1,0,0.1,0,0.2,0
			c0.2-0.1,0.3-0.3,0.3-0.3c0,0,0,0,0,0c0,0,0,0,0,0c0,0,0.1,0.1,0.3,0.1c0.1,0,0.1,0,0.2,0c0.3-0.1,0.2-0.6,0.2-0.6
			c0-0.1,0-0.1,0-0.1l0,0h0c0,0,0,0,0.1,0c0,0,0.1,0,0.2,0h0c0.3,0,0.5-0.2,0.5-0.5C-12,142.6-12.2,142.4-12.5,142.4 M-8.8,144.5
			c-0.6,0.5-1.9,1.6-2.2,1.9c-0.2,0.2-0.3,0.2-0.5,0.3c-0.1,0-0.1,0-0.2,0c-0.1,0-0.2,0-0.3,0c-0.2-0.1-0.5-0.3-0.7-0.4l0,0
			c-0.2-0.2-0.4-0.3-0.6-0.4c-0.1,0-0.1,0-0.2,0c-0.2,0-0.3,0.1-0.4,0.1c0,0,0,0,0,0.1l0,0l0.5,0.5c0.4,0.4,0.8,0.8,1.6,0.8
			c0,0,0,0,0,0c0.5,0,1.1-0.2,1.1-0.3c0.5-0.2,1-0.4,1.5-0.4c0.5,0,1.1,0.1,1.7,0.4c-0.1,0.1-0.1,0.1-0.2,0.2
			c-0.5-0.2-1-0.3-1.5-0.3c-0.5,0-1,0.1-1.4,0.3c0,0-0.6,0.3-1.2,0.3c0,0,0,0,0,0c-0.7,0-1.1-0.3-1.4-0.5c-0.3,0-0.5-0.1-0.7-0.1
			c-0.2-0.1-0.3-0.1-0.5-0.1c-0.1,0-0.2,0-0.2,0c-0.2,0-1.1,0.2-1.8,0.5c-0.1-0.1-0.1-0.1-0.2-0.2c0.7-0.3,1.6-0.5,1.9-0.6
			c0.1,0,0.2,0,0.2,0c0.2,0,0.4,0.1,0.6,0.1c0.1,0,0.2,0.1,0.3,0.1c0,0-0.1-0.1-0.1-0.1l-0.5-0.6c0,0-0.1-0.1-0.1-0.3
			c0-0.1,0.1-0.1,0.1-0.1c0.1-0.1,0.3-0.1,0.5-0.1c0.1,0,0.1,0,0.2,0c0.2,0,0.4,0.2,0.7,0.4c0.2,0.1,0.5,0.3,0.7,0.4
			c0.1,0,0.1,0,0.2,0c0,0,0,0,0,0c0.1,0,0.3-0.1,0.5-0.2c0.4-0.3,2.3-1.9,2.3-1.9c0,0,0.1-0.1,0.1-0.3c0-0.1-0.1-0.2-0.1-0.2
			c-0.1,0-0.2-0.1-0.2-0.1c-0.1,0-0.2,0.1-0.2,0.1c0,0-0.6,0.6-0.9,0.8c0,0-0.1,0.1-0.1,0.1c0,0,0,0,0,0c0,0,0-0.1,0.1-0.1l0.7-0.7
			c0,0,0.1-0.1,0.1-0.2c0-0.1-0.1-0.2-0.2-0.3c-0.1-0.1-0.2-0.1-0.3-0.1c-0.1,0-0.2,0.1-0.2,0.1l-0.1,0.1c-0.2,0.2-0.4,0.4-0.5,0.5
			c0,0-0.1,0.1-0.1,0.1c0,0,0,0,0,0c0,0,0-0.1,0-0.1c0,0,0,0,0,0l0.5-0.6c0,0,0.1-0.1,0-0.3l0,0c0,0,0,0-0.1,0
			c-0.1-0.1-0.2-0.1-0.3-0.1c0,0-0.1,0-0.1,0c-0.1,0-0.1,0-0.1,0l0,0c0,0-0.3,0.3-0.5,0.5c0,0-0.1,0.1-0.1,0.1c0,0,0,0,0,0
			c0,0,0-0.1,0.1-0.1l0.5-0.5c0,0,0,0,0,0c0,0-0.1-0.1-0.2-0.1c0,0,0,0-0.1,0c-0.2,0-0.4,0.1-0.5,0.1c0,0.1,0.1,0.2,0.1,0.3
			c0,0.4-0.3,0.7-0.7,0.7c0,0,0,0,0,0c0,0.2,0,0.5-0.3,0.6c-0.1,0-0.2,0.1-0.3,0.1c-0.1,0-0.1,0-0.2,0c-0.1,0.1-0.2,0.2-0.3,0.3
			c-0.1,0-0.2,0-0.2,0c-0.1,0-0.3,0-0.4-0.1c-0.1,0.1-0.3,0.2-0.5,0.2c-0.2,0-0.3-0.1-0.4-0.2c-0.1,0.1-0.7,0.5-2.2,0.8
			c-0.1,0-0.2,0.1-0.3,0.1c0-0.1,0-0.2,0-0.2c0,0,0.3-0.1,0.3-0.1c1.6-0.3,2.1-0.7,2.2-0.8c0-0.1,0-0.1,0-0.2c0-0.3,0.3-0.6,0.6-0.6
			c0,0,0.1,0,0.1,0c0-0.2,0.2-0.4,0.4-0.5c0.1,0,0.1,0,0.2,0c0,0,0.1,0,0.1,0c0-0.1,0.1-0.2,0.4-0.3c0.1,0,0.2,0,0.2,0
			c0.1,0,0.1,0,0.2,0c0.1-0.3,0.4-0.4,0.6-0.4c0.2,0,0.4,0.1,0.5,0.2c0.1-0.1,0.3-0.2,0.6-0.2c0,0,0.1,0,0.1,0
			c0.2,0,0.3,0.1,0.4,0.2c0,0,0,0,0,0c0.1,0,0.1,0,0.2,0c0.1,0,0.3,0,0.4,0.1c0.1,0.1,0.2,0.2,0.2,0.3c0,0,0,0,0,0c0,0,0.1,0,0.1,0
			c0.1,0,0.3,0,0.4,0.1c0.2,0.2,0.3,0.4,0.3,0.5c0,0,0.1,0,0.1,0c0.1,0,0.2,0,0.4,0.1c0.1,0.1,0.2,0.2,0.3,0.4c0,0.1,0,0.2-0.1,0.3
			c0.4,0.2,1.3,0.5,2.4,0.8c0,0.1,0,0.2,0,0.2C-7.6,145.1-8.6,144.6-8.8,144.5"/>
	</g>
	
		<g id="g390-8-5_1_" transform="matrix(5.9914975,0,0,-5.9914975,667.61792,429.76931)" inkscape:export-filename="C:\Users\alex\sites\mercado-livre-logo-5.png" inkscape:export-xdpi="14.664745" inkscape:export-ydpi="14.664745">
		<path id="path392-6-7_1_" inkscape:connector-curvature="0" class="st0" d="M-79.1,135.1c-0.1-0.1-0.3-0.2-0.5-0.2
			c-0.2,0-0.3,0.1-0.5,0.2c-0.1,0.1-0.2,0.3-0.2,0.6c0,0.3,0.1,0.5,0.2,0.6c0.1,0.1,0.3,0.2,0.5,0.2c0.2,0,0.3-0.1,0.5-0.2
			c0.1-0.1,0.2-0.3,0.2-0.6C-78.9,135.4-78.9,135.2-79.1,135.1 M-78.5,136.6c-0.2,0.3-0.5,0.4-1,0.4c-0.4,0-0.8-0.1-1-0.4
			c-0.2-0.3-0.3-0.6-0.3-1c0-0.4,0.1-0.7,0.3-1c0.2-0.3,0.5-0.4,1-0.4c0.4,0,0.8,0.1,1,0.4c0.2,0.3,0.3,0.6,0.3,1
			C-78.2,136-78.3,136.4-78.5,136.6"/>
	</g>
	
		<g id="g394-8-1_1_" transform="matrix(5.9914975,0,0,-5.9914975,555.45599,423.11089)" inkscape:export-filename="C:\Users\alex\sites\mercado-livre-logo-5.png" inkscape:export-xdpi="14.664745" inkscape:export-ydpi="14.664745">
		<path id="path396-2-0_1_" inkscape:connector-curvature="0" class="st0" d="M-65.7,134.3c0-0.2-0.1-0.4-0.2-0.5
			c-0.1-0.1-0.3-0.1-0.4-0.1c-0.1,0-0.2,0-0.2,0.1c-0.1,0.1-0.1,0.1-0.1,0.2c0,0.1,0.1,0.2,0.2,0.3c0.1,0,0.2,0.1,0.3,0.1l0.2,0
			c0.1,0,0.1,0,0.2,0c0,0,0.1,0,0.1,0.1V134.3z M-65.3,135.7c-0.2,0.1-0.5,0.2-0.8,0.2c-0.4,0-0.7-0.1-0.9-0.3
			c-0.1-0.1-0.2-0.3-0.2-0.6h0.6c0,0.1,0,0.2,0.1,0.2c0.1,0.1,0.2,0.1,0.3,0.1c0.1,0,0.3,0,0.3-0.1c0.1,0,0.1-0.1,0.1-0.2
			c0-0.1,0-0.1-0.1-0.2c-0.1,0-0.1,0-0.3-0.1l-0.2,0c-0.3,0-0.5-0.1-0.6-0.2c-0.2-0.1-0.4-0.4-0.4-0.7c0-0.2,0.1-0.4,0.2-0.6
			c0.2-0.1,0.3-0.2,0.6-0.2c1.5-0.1,1.5,0.8,1.5,0.9v1C-65,135.4-65.1,135.6-65.3,135.7"/>
	</g>
	
		<g id="g398-5-2_1_" transform="matrix(5.9914975,0,0,-5.9914975,492.25827,400.88009)" inkscape:export-filename="C:\Users\alex\sites\mercado-livre-logo-5.png" inkscape:export-xdpi="14.664745" inkscape:export-ydpi="14.664745">
		<path id="path400-1-8_1_" inkscape:connector-curvature="0" class="st0" d="M-58.1,131.6c0.2,0,0.3-0.1,0.4-0.2
			c0.1-0.1,0.1-0.2,0.1-0.3h0.7c0,0.4-0.2,0.6-0.4,0.8c-0.2,0.1-0.5,0.2-0.8,0.2c-0.4,0-0.7-0.1-0.9-0.4c-0.2-0.2-0.3-0.6-0.3-1
			c0-0.4,0.1-0.7,0.3-1c0.2-0.2,0.5-0.4,1-0.4c0.4,0,0.8,0.1,1,0.4c0.1,0.2,0.2,0.4,0.2,0.6h-0.7c0-0.1-0.1-0.2-0.1-0.3
			c-0.1-0.1-0.2-0.1-0.4-0.1c-0.2,0-0.4,0.1-0.5,0.3c0,0.1-0.1,0.3-0.1,0.5c0,0.2,0,0.4,0.1,0.5C-58.5,131.5-58.4,131.6-58.1,131.6"
			/>
	</g>
	
		<g id="g402-4-4_1_" transform="matrix(5.9914975,0,0,-5.9914975,460.88799,388.96123)" inkscape:export-filename="C:\Users\alex\sites\mercado-livre-logo-5.png" inkscape:export-xdpi="14.664745" inkscape:export-ydpi="14.664745">
		<path id="path404-7-3_1_" inkscape:connector-curvature="0" class="st0" d="M-54.4,130.2c-1.5,0-1.4-1.3-1.4-1.3v-1.3h0.7v1.3
			c0,0.2,0,0.4,0.1,0.5c0.1,0.2,0.3,0.3,0.5,0.3c0,0,0,0,0.1,0c0,0,0.1,0,0.1,0L-54.4,130.2C-54.3,130.2-54.3,130.2-54.4,130.2
			C-54.4,130.2-54.4,130.2-54.4,130.2"/>
	</g>
	
		<g id="g406-3-5_1_" transform="matrix(5.9914975,0,0,-5.9914975,389.69218,403.65659)" inkscape:export-filename="C:\Users\alex\sites\mercado-livre-logo-5.png" inkscape:export-xdpi="14.664745" inkscape:export-ydpi="14.664745">
		<path id="path408-6-9_1_" inkscape:connector-curvature="0" class="st0" d="M-45.9,132c0.1,0.1,0.2,0.1,0.4,0.1
			c0.2,0,0.3,0,0.4-0.1c0.1-0.1,0.2-0.2,0.2-0.4h-1.2C-46,131.7-46,131.9-45.9,132 M-45,130.7c0,0-0.1-0.1-0.1-0.1
			c-0.1-0.1-0.2-0.1-0.4-0.1c-0.1,0-0.3,0-0.4,0.1c-0.2,0.1-0.3,0.3-0.3,0.5h1.9c0,0.2,0,0.4,0,0.5c0,0.2-0.1,0.4-0.2,0.5
			c-0.1,0.2-0.3,0.3-0.4,0.4c-0.2,0.1-0.4,0.1-0.6,0.1c-0.4,0-0.7-0.1-0.9-0.4c-0.2-0.2-0.4-0.6-0.4-1c0-0.5,0.1-0.8,0.4-1
			c0.3-0.2,0.6-0.3,0.9-0.3c0.4,0,0.7,0.1,1,0.4c0.1,0.1,0.2,0.3,0.2,0.4H-45z"/>
	</g>
	
		<g id="g410-6-8_1_" transform="matrix(5.9914975,0,0,-5.9914975,365.6969,444.76599)" inkscape:export-filename="C:\Users\alex\sites\mercado-livre-logo-5.png" inkscape:export-xdpi="14.664745" inkscape:export-ydpi="14.664745">
		<path id="path412-4-2_1_" inkscape:connector-curvature="0" class="st0" d="M-43,136.9h-0.6v1.6c0,0.1,0,0.5-0.5,0.5
			c-0.3,0-0.5-0.2-0.5-0.5v-1.6h-0.6v1.6c0,0.1,0,0.5-0.4,0.5c-0.3,0-0.5-0.2-0.5-0.5v-1.6h-0.6v1.5c0,0.6,0.4,1.1,1.1,1.1
			c0.3,0,0.6-0.1,0.8-0.4c0.2,0.2,0.5,0.4,0.8,0.4c0.7,0,1.1-0.5,1.1-1.1V136.9z"/>
	</g>
	
		<g id="g414-0-3_1_" transform="matrix(5.9914975,0,0,-5.9914975,609.38779,429.8837)" inkscape:export-filename="C:\Users\alex\sites\mercado-livre-logo-5.png" inkscape:export-xdpi="14.664745" inkscape:export-ydpi="14.664745">
		<path id="path416-7-9_1_" inkscape:connector-curvature="0" class="st0" d="M-72.1,135.1c-0.1-0.1-0.2-0.2-0.4-0.2
			c-0.2,0-0.3,0.1-0.4,0.2s-0.1,0.3-0.1,0.6c0,0.2,0,0.4,0.1,0.6c0.1,0.1,0.2,0.2,0.4,0.2c0.1,0,0.2,0,0.3-0.1
			c0.2-0.1,0.2-0.4,0.2-0.7C-72,135.4-72,135.2-72.1,135.1 M-71.3,137.8c0,0-0.7,0.1-0.7-0.5l0-0.7c-0.1,0.1-0.2,0.2-0.3,0.3
			c-0.1,0.1-0.3,0.1-0.4,0.1c-0.3,0-0.6-0.1-0.8-0.4c-0.2-0.3-0.3-0.6-0.3-1.1c0-0.4,0.1-0.7,0.3-0.9c0.2-0.2,0.6-0.3,1-0.3
			c1.2,0,1.2,1.1,1.2,1.1L-71.3,137.8z"/>
	</g>
	
		<g id="g418-5-1_1_" transform="matrix(5.9914975,0,0,-5.9914975,542.86614,486.39006)" inkscape:export-filename="C:\Users\alex\sites\mercado-livre-logo-5.png" inkscape:export-xdpi="14.664745" inkscape:export-ydpi="14.664745">
		<path id="path420-8-6_1_" inkscape:connector-curvature="0" class="st0" d="M-64.2,141.8c0.1,0.1,0.2,0.1,0.4,0.1
			c0.2,0,0.3,0,0.4-0.1s0.2-0.2,0.2-0.4h-1.1C-64.3,141.6-64.3,141.7-64.2,141.8 M-63.3,140.6c0,0-0.1-0.1-0.1-0.1
			c-0.1-0.1-0.2-0.1-0.4-0.1c-0.1,0-0.3,0-0.4,0.1c-0.2,0.1-0.3,0.3-0.3,0.5h1.9c0,0.2,0,0.4,0,0.5c0,0.2-0.1,0.4-0.2,0.5
			c-0.1,0.2-0.3,0.3-0.4,0.4c-0.2,0.1-0.4,0.1-0.6,0.1c-0.4,0-0.7-0.1-0.9-0.4c-0.2-0.2-0.4-0.6-0.4-1c0-0.5,0.1-0.8,0.4-1
			c0.3-0.2,0.6-0.3,0.9-0.3c0.4,0,0.7,0.1,1,0.4c0.1,0.1,0.2,0.3,0.2,0.4H-63.3z"/>
	</g>
	
		<g id="g426-3-9_1_" transform="matrix(5.9914975,0,0,-5.9914975,522.02171,471.87385)" inkscape:export-filename="C:\Users\alex\sites\mercado-livre-logo-5.png" inkscape:export-xdpi="14.664745" inkscape:export-ydpi="14.664745">
		<path id="path428-7-1_1_" inkscape:connector-curvature="0" class="st0" d="M-61.7,140.1C-61.7,140.1-61.7,140.1-61.7,140.1
			c-1.5,0-1.4-1.3-1.4-1.3v-1.3h0.7v1.2c0,0.2,0,0.4,0.1,0.5c0.1,0.2,0.3,0.3,0.5,0.3c0,0,0,0,0.1,0c0,0,0.1,0,0.1,0L-61.7,140.1
			C-61.7,140.1-61.7,140.1-61.7,140.1"/>
	</g>
	
		<g id="g430-7-5_1_" transform="matrix(5.9914975,0,0,-5.9914975,396.1587,464.6685)" inkscape:export-filename="C:\Users\alex\sites\mercado-livre-logo-5.png" inkscape:export-xdpi="14.664745" inkscape:export-ydpi="14.664745">
		<path id="path432-9-4_1_" inkscape:connector-curvature="0" class="st0" d="M-46.7,139.2v-3h0.6v3.5
			C-46,139.7-46.7,139.7-46.7,139.2"/>
	</g>
	
		<path id="path434-9-3_1_" inkscape:connector-curvature="0" inkscape:export-filename="C:\Users\alex\sites\mercado-livre-logo-5.png" inkscape:export-xdpi="14.664745" inkscape:export-ydpi="14.664745" class="st0" d="
		M127.6-368.5h-4.1v-4h4.1V-368.5z"/>
	
		<path id="path436-6-7_1_" inkscape:connector-curvature="0" inkscape:export-filename="C:\Users\alex\sites\mercado-livre-logo-5.png" inkscape:export-xdpi="14.664745" inkscape:export-ydpi="14.664745" class="st0" d="
		M123.5-351.7h4.1v-15.4h-4.1V-351.7z"/>
	
		<g id="g184-6_1_" transform="matrix(5.9893257,0,0,-5.9893257,472.81632,527.10354)" inkscape:export-filename="C:\Users\alex\sites\mercado-livre-logo-5.png" inkscape:export-xdpi="14.664745" inkscape:export-ydpi="14.664745">
		<path id="path186-5_1_" inkscape:connector-curvature="0" class="st0" d="M-55.8,146.7h-0.7l-0.9,2.6h0.7l0.5-1.8l0.5,1.6
			c0.1,0.2,0.2,0.2,0.3,0.2h0.5L-55.8,146.7z"/>
	</g>
</g>
</svg>
