<?xml version="1.0" encoding="utf-8"?>
<!-- Generator: Adobe Illustrator 24.1.0, SVG Export Plug-In . SVG Version: 6.00 Build 0)  -->
<svg version="1.1" id="Camada_1" xmlns="http://www.w3.org/2000/svg" xmlns:xlink="http://www.w3.org/1999/xlink" x="0px" y="0px"
	 viewBox="0 0 202 202" style="enable-background:new 0 0 202 202;" xml:space="preserve">
<style type="text/css">
	.st0{fill:#5600FF;}
</style>
<g>
	<g>
		<path class="st0" d="M183.7,147.3v-8.9c-0.6-1.5-0.7-2.7-1.6-3.8c-1.8-2.2-5.1-2.8-8.1-3.8c-1.1-0.4-2.2-0.7-3.3-1.1
			c0-21.4,0-42.8-0.1-64.2V52.7c0-2,0.3-4.5-0.1-6.3c-0.4-1.6-1.3-3.1-2.4-4c-2.5-2-5.8-1.7-10.3-1.7H42.7c-5.8,0-9.5-0.3-11.9,3.1
			c-1.4,2-1.3,5-1.3,8.4v77.3c-4,1.6-9.5,2.2-11.8,5.5c-0.5,0.8-1,1.8-1.2,2.9c0,1.5,0,3-0.1,4.5c0,3.5-0.5,8.1,0.6,10.6
			c0.6,1.4,1.8,2.6,3.1,3.3c2.3,1.4,7,0.9,10.7,0.9h137.8c3.9,0,8.9,0.5,11.4-1c1.5-0.9,2.8-2.4,3.3-4.3
			C183.8,150.8,183.7,148.9,183.7,147.3z M112.9,145c-2,1.5-6,1.2-9.5,1.2H95c-5.5,0-8.9-0.1-9.7-4.8c-0.2-1.2,0.2-2.3,0.6-3
			c0.7-1.3,1.6-2.3,3.1-2.8c1.2-0.5,3.1-0.3,4.7-0.3h9.1c2.8,0,6.8-0.5,8.9,0.4c2,0.9,2.5,2.2,3.3,4.3
			C114.9,142.5,114.3,144,112.9,145z M155.8,124.5H44.4V55.3h111.4V124.5z M84.1,84.8c1.7,2.3,8,1.4,11.9,1.4c2.2,0,3.9,0,5-1.1
			c1.8-1.8,1.1-10,1.1-13.7c-0.6-1.4-0.6-2.3-1.8-3C98.4,67.4,91.9,68,89,68c-1.5,0-3-0.1-3.9,0.5c-2.5,1.5-1.7,6.5-1.7,10.3
			C83.4,81,83.1,83.6,84.1,84.8z M57.9,84.6c1.7,2.5,7.9,1.6,12,1.6c2.3,0,4.1,0.1,5.1-1.2c1.6-2,1-10,0.9-13.7
			c-0.5-1.3-0.7-2.2-1.8-2.8c-1.8-1.1-7.9-0.5-10.7-0.5c-1.2,0-2.8-0.2-3.7,0.2c-3.4,1.3-2.4,6.6-2.4,11.1
			C57.4,81.2,57.2,83.5,57.9,84.6z M74.3,94.1c-1.9-1.2-8.2-0.6-11.2-0.6c-1.5,0-3.1-0.1-4,0.5c-2.5,1.5-1.7,6.6-1.7,10.5
			c0,2.2-0.2,4.6,0.7,5.9c1.6,2.1,8.3,1.4,12.1,1.4c2.1,0,3.8,0,4.8-1.1c1.7-2,1-10,1-13.8C75.4,95.6,75.3,94.7,74.3,94.1z"/>
	</g>
</g>
</svg>
