<?xml version="1.0" encoding="utf-8"?>
<!-- Generator: Adobe Illustrator 24.1.0, SVG Export Plug-In . SVG Version: 6.00 Build 0)  -->
<svg version="1.1"
	 id="svg5822" inkscape:export-filename="C:\Users\suitedoalex\sites\pontofrio-logo-0.png" inkscape:export-xdpi="561.73712" inkscape:export-ydpi="561.73712" inkscape:version="0.92.4 (5da689c313, 2019-01-14)" sodipodi:docname="pontofrio-logo.svg" xmlns:cc="http://creativecommons.org/ns#" xmlns:dc="http://purl.org/dc/elements/1.1/" xmlns:inkscape="http://www.inkscape.org/namespaces/inkscape" xmlns:rdf="http://www.w3.org/1999/02/22-rdf-syntax-ns#" xmlns:sodipodi="http://sodipodi.sourceforge.net/DTD/sodipodi-0.dtd" xmlns:svg="http://www.w3.org/2000/svg"
	 xmlns="http://www.w3.org/2000/svg" xmlns:xlink="http://www.w3.org/1999/xlink" x="0px" y="0px" viewBox="0 0 162.6 48.2"
	 style="enable-background:new 0 0 162.6 48.2;" xml:space="preserve">
<style type="text/css">
	.st0{fill-rule:evenodd;clip-rule:evenodd;fill:url(#path4948_1_);}
	.st1{fill-rule:evenodd;clip-rule:evenodd;fill:#C82026;}
	.st2{fill-rule:evenodd;clip-rule:evenodd;fill:#231F20;}
</style>
<sodipodi:namedview  bordercolor="#666666" borderopacity="1.0" id="base" inkscape:current-layer="layer1" inkscape:cx="-317.88363" inkscape:cy="575.95761" inkscape:document-units="mm" inkscape:pageopacity="0.0" inkscape:pageshadow="2" inkscape:window-height="837" inkscape:window-maximized="1" inkscape:window-width="1600" inkscape:window-x="-8" inkscape:window-y="-8" inkscape:zoom="0.35" pagecolor="#ffffff" showgrid="false" units="px">
	</sodipodi:namedview>
<g id="layer1" transform="translate(0,-111.79165)" inkscape:groupmode="layer" inkscape:label="Layer 1">
	
		<g id="g4932" transform="matrix(1.04806,0,0,-1.04806,-15.752701,4397.6578)" inkscape:export-filename="C:\Users\suitedoalex\sites\pontofrio-logo-4.png" inkscape:export-xdpi="79.607895" inkscape:export-ydpi="79.607895">
		<g id="g4934">
			<g id="g4940">
				
					<linearGradient id="path4948_1_" gradientUnits="userSpaceOnUse" x1="-427.225" y1="7339.8228" x2="-426.8976" y2="7339.8228" gradientTransform="matrix(47.4987 0 0 138.5678 20446.2148 -1012997.5625)">
					<stop  offset="0" style="stop-color:#FFFFFF"/>
					<stop  offset="1" style="stop-color:#B9BBBC"/>
				</linearGradient>
				<path id="path4948" inkscape:connector-curvature="0" class="st0" d="M164.6,4075.7c-3.2,5.2-3.1,6.6-3.1,6.6
					c0,3.2,4.2,3.9,4.2,3.9l0,0c-0.1,0-0.5,0-1.1,0c-5.7-0.4-7.2-4.7-7.1-8.5c0.4-8.4,8.2-14.5,6-24.1c-1.7,2-2.5,4.7-4.3,6.6
					c1-6.4-0.1-13.5-5.6-14.5l0,0c1.7-0.9,8.3-0.7,8.3-0.7c4.1-0.2,3.8,2.5,3.8,2.5s0,0.6,1.7,11.4
					C169,4069.5,164.6,4075.7,164.6,4075.7"/>
			</g>
		</g>
	</g>
	
		<path id="path4950" inkscape:connector-curvature="0" inkscape:export-filename="C:\Users\suitedoalex\sites\pontofrio-logo-4.png" inkscape:export-xdpi="79.607895" inkscape:export-ydpi="79.607895" class="st1" d="
		M101.9,127.6c0.2,0.8,0.2,2.1,0,2.8c-1.6,0-4-0.5-4.8,0.5c-0.2,0.7-0.2,1.8-0.1,2.7c1.6,0,3.1,0,4.7,0c0.1,0.8,0,2.5,0,3.5
		c-1.3,0-3.2,0-4.7,0c0,4,0.1,8.6-0.1,12.6c-1.5,0.1-3.7,0.1-5.1,0c0-4.9-0.3-12.9,0-18C91.9,127.2,97,126,101.9,127.6"/>
	
		<path id="path4952" inkscape:connector-curvature="0" inkscape:export-filename="C:\Users\suitedoalex\sites\pontofrio-logo-4.png" inkscape:export-xdpi="79.607895" inkscape:export-ydpi="79.607895" class="st1" d="
		M120.8,127.4c0.2,1.1,0.1,2.9,0,4c-1.6-0.1-3.5,0-5.2,0c0-1,0-2.3,0-3.3C116.3,127.7,120.3,127,120.8,127.4"/>
	
		<path id="path4954" inkscape:connector-curvature="0" inkscape:export-filename="C:\Users\suitedoalex\sites\pontofrio-logo-4.png" inkscape:export-xdpi="79.607895" inkscape:export-ydpi="79.607895" class="st1" d="
		M65.7,129.5c0,1.4,0,2.8,0,4.1c1.5,0,3.1,0,4.5,0.1c0.1,0.8,0.1,2.5,0.1,3.3c-1.3,0.1-3.2,0-4.6,0.1c-0.1,2.2,0,7.3,0.1,8.9
		c0.1,0.9,2.8,0.5,4.6,0.5c0.2,0.8,0.3,2.4,0.2,3.1c-2.9,1.7-9.8,2-9.8-4.9c0-4.3-0.1-11,0-14.6C61.8,129.7,64.1,129.2,65.7,129.5"
		/>
	
		<path id="path4956" inkscape:connector-curvature="0" inkscape:export-filename="C:\Users\suitedoalex\sites\pontofrio-logo-4.png" inkscape:export-xdpi="79.607895" inkscape:export-ydpi="79.607895" class="st1" d="
		M13.8,142.7c0.3-4.5-1.4-7.5-6.3-5.7c0,3.3,0,6.6,0,10C11.9,148,13.5,146.5,13.8,142.7z M7.4,150.3c0,1.4,0,2.9,0,4.2
		c-1.2,0.6-3.4,0.8-5.4,0.8c0.1-4.8,0.1-9.8,0.1-15.2c0-1.6-0.3-4.1,0.3-4.9c1.2-1.5,5.3-1.6,7.2-1.7c3.2-0.2,5.9,0.5,7.3,1.8
		c2.8,2.7,2.7,10.1,0.5,13C15.5,150.9,11.5,150.9,7.4,150.3"/>
	
		<path id="path4958" inkscape:connector-curvature="0" inkscape:export-filename="C:\Users\suitedoalex\sites\pontofrio-logo-4.png" inkscape:export-xdpi="79.607895" inkscape:export-ydpi="79.607895" class="st1" d="
		M27.7,137.1c-1.6,1.7-1.4,8.1,0.1,9.3c1,0.9,3.4,0.8,4.3,0c0.9-0.8,1.1-2.6,1.1-4.7c0-3.4-0.6-5.7-4.1-5.2
		C28.7,136.6,28,136.8,27.7,137.1L27.7,137.1z M28.2,133.3c3.9-0.4,7.2,0.4,8.8,2.5c2.5,3.3,2,11.5-1.6,13.5
		c-3.7,2-9.9,1.4-12.2-1.3c-2.2-2.6-2-9.3-0.5-11.7C23.8,134.4,25.6,133.6,28.2,133.3"/>
	
		<path id="path4960" inkscape:connector-curvature="0" inkscape:export-filename="C:\Users\suitedoalex\sites\pontofrio-logo-4.png" inkscape:export-xdpi="79.607895" inkscape:export-ydpi="79.607895" class="st1" d="
		M78,137.1c-1.6,1.7-1.4,8.1,0.1,9.3c1,0.9,3.4,0.8,4.3,0c0.9-0.8,1.1-2.6,1.1-4.7c0-3.4-0.6-5.7-4.1-5.2
		C79,136.6,78.3,136.8,78,137.1L78,137.1z M78.5,133.3c3.9-0.4,7.2,0.4,8.8,2.5c2.5,3.3,2,11.5-1.6,13.5c-3.7,2-9.9,1.4-12.2-1.3
		c-2.2-2.6-2-9.3-0.5-11.7C74.1,134.4,75.9,133.6,78.5,133.3"/>
	
		<path id="path4962" inkscape:connector-curvature="0" inkscape:export-filename="C:\Users\suitedoalex\sites\pontofrio-logo-4.png" inkscape:export-xdpi="79.607895" inkscape:export-ydpi="79.607895" class="st1" d="
		M129.7,137.1c-1.6,1.7-1.4,8.1,0.1,9.3c1,0.9,3.4,0.8,4.3,0c0.9-0.8,1.1-2.6,1.1-4.7c0-3.4-0.6-5.7-4.1-5.2
		C130.6,136.6,130,136.8,129.7,137.1z M130.2,133.3c3.9-0.4,7.2,0.4,8.8,2.5c2.5,3.3,2,11.5-1.6,13.5c-3.7,2-9.9,1.4-12.2-1.3
		c-2.2-2.6-2-9.3-0.5-11.7C125.8,134.4,127.6,133.6,130.2,133.3"/>
	
		<path id="path4964" inkscape:connector-curvature="0" inkscape:export-filename="C:\Users\suitedoalex\sites\pontofrio-logo-4.png" inkscape:export-xdpi="79.607895" inkscape:export-ydpi="79.607895" class="st1" d="
		M57.4,149.9c-1.5,0.1-3.6,0.1-5,0c-0.2-3.6,0.7-12.1-1.3-13c-1-0.5-3-0.2-4.4,0c-0.1,4.3-0.1,9-0.1,13.2c-1.3,0.2-3.7,0.3-5,0.1
		c0-4.7-0.2-9.7-0.1-14.2c0.1-1.5,3-2.2,6.3-2.5c3.9-0.3,6.8,0.2,8.4,1.8c1.5,1.6,1.5,4.4,1.4,7.4C57.4,145.2,57.4,147.9,57.4,149.9
		"/>
	
		<path id="path4966" inkscape:connector-curvature="0" inkscape:export-filename="C:\Users\suitedoalex\sites\pontofrio-logo-4.png" inkscape:export-xdpi="79.607895" inkscape:export-ydpi="79.607895" class="st1" d="
		M113.1,133.5c0.2,0.8,0.3,2.8,0.1,3.6c-1.4,0-3-0.1-4.6,0.4c-0.1,4.1,0.1,8.3,0.1,12.2c-1.3,0-3.9,0.2-5.2,0c0-2.3-0.1-4.5-0.1-7.2
		c0-2.1-0.2-6,0.4-7.2C104.7,133.6,110.5,133.5,113.1,133.5"/>
	
		<path id="path4968" inkscape:connector-curvature="0" inkscape:export-filename="C:\Users\suitedoalex\sites\pontofrio-logo-4.png" inkscape:export-xdpi="79.607895" inkscape:export-ydpi="79.607895" class="st1" d="
		M115.9,133.5c1.5,0.1,3.4,0,4.8,0c0,5-0.1,11,0,16.1c-1.4,0.2-3.8,0.3-5.1,0c0-5.1,0-10.6-0.1-15.9
		C115.6,133.7,115.5,133.5,115.9,133.5"/>
	
		<path id="path4970" inkscape:connector-curvature="0" inkscape:export-filename="C:\Users\suitedoalex\sites\pontofrio-logo-4.png" inkscape:export-xdpi="79.607895" inkscape:export-ydpi="79.607895" class="st2" d="
		M158,114.9c0,0.2,0,0.3,0,0.3s-0.5,0-1.2,0c-5.9,0.4-7.6,5-7.4,8.9c0.4,8.9,8.6,15.2,6.3,25.3c-1.8-2.1-2.6-4.9-4.5-6.9
		c1,6.7-0.1,14.2-5.9,15.2c-0.2-0.2,1.2-1.3,1.4-2c0.2-0.7,0.5-1.6,0.4-2.7c-0.2-3.1-0.9-6.2-1.4-9.3c-1-6.4-1.6-13.2,0.9-18.9
		c1.4-3.2,1-10.2,5.2-10.5c0.2,0,0.3,0,0.5,0h0.1C154,114.4,155.3,115.2,158,114.9"/>
</g>
</svg>
