<?xml version="1.0" encoding="utf-8"?>
<!-- Generator: Adobe Illustrator 24.1.0, SVG Export Plug-In . SVG Version: 6.00 Build 0)  -->
<svg version="1.1"
	 id="svg2" xmlns:cc="http://creativecommons.org/ns#" xmlns:dc="http://purl.org/dc/elements/1.1/" xmlns:rdf="http://www.w3.org/1999/02/22-rdf-syntax-ns#" xmlns:svg="http://www.w3.org/2000/svg"
	 xmlns="http://www.w3.org/2000/svg" xmlns:xlink="http://www.w3.org/1999/xlink" x="0px" y="0px" viewBox="0 0 211.7 58.1"
	 style="enable-background:new 0 0 211.7 58.1;" xml:space="preserve">
<style type="text/css">
	.st0{fill:#FF6900;}
	.st1{fill:#7902D5;}
</style>
<g id="layer1" transform="translate(-404.17957,18.879815)">
	<g id="g4537" transform="matrix(1.8213319,0,0,1.8213319,-331.96559,-87.963253)">
		<g id="g4518">
			<g id="g3447" transform="matrix(1.25,0,0,-1.25,333.31345,693.0843)">
				<g>
					<g id="g3449">
						<g id="g3455" transform="translate(203.5932,482.064)">
							<path id="path3457" class="st0" d="M-85.1,23.2c-0.5-0.2-1.5-0.4-2.3-0.4c-2.1,0-2.8,1.1-2.8,2.9v7.1h-1.4v2.5h1.4v3.2
								l2.8,0.3v-3.5h2.4l-0.1-2.5h-2.3v-6.6c0-0.6,0.2-0.8,0.9-0.8c0.5,0,0.8,0.1,1.1,0.2L-85.1,23.2z"/>
						</g>
					</g>
				</g>
			</g>
			<path id="path3459" class="st0" d="M483.6,40.2h3.5v4.3h-3.5V40.2z M483.6,46.4h3.5v15.2h-3.5V46.4z"/>
			<g id="g3469" transform="matrix(1.25,0,0,-1.25,640.46058,90.958925)">
				<path id="path3471" class="st0" d="M-109.7,23.5v8.8c0,0.6-0.3,0.9-1,0.9c-0.6,0-1.1-0.2-1.6-0.4v-9.4h-2.8v8.8
					c0,0.6-0.3,0.9-1,0.9c-0.6,0-1.1-0.2-1.6-0.4v-9.4h-2.8v12.2h2.3l0.3-0.9c0.7,0.7,1.8,1.1,3,1.1c1.1,0,1.9-0.4,2.2-1.1
					c0.7,0.6,1.9,1.1,3.1,1.1c1.6,0,2.5-0.8,2.5-2.6v-9.8h-2.8V23.5z"/>
			</g>
			<g id="g3473" transform="matrix(1.25,0,0,-1.25,662.63895,75.8703)">
				<path id="path3475" class="st0" d="M-120.1,16.4v-1c0-1.4,0.6-2,2.1-2c1,0,2,0.2,2.9,0.5l0.4-2.2c-1-0.4-2.4-0.6-3.7-0.6
					c-3,0-4.5,1.5-4.5,4.3v4.1c0,2.8,1.6,4.3,4.2,4.3c2.9,0,3.9-1.6,3.9-4.3v-3.1C-114.7,16.4-120.1,16.4-120.1,16.4z M-117.4,20
					c0,1-0.3,1.6-1.4,1.6c-1,0-1.4-0.5-1.4-1.6v-1.4h2.8C-117.4,18.6-117.4,20-117.4,20z"/>
			</g>
			<g id="g3477" transform="matrix(1.25,0,0,-1.25,460.13295,91.71255)">
				<path id="path3479" class="st0" d="M-25.4,23.8c-0.9,0-2.3,0.2-3.3,0.6l0.4,2.2c0.8-0.3,1.7-0.5,2.7-0.5c1.1,0,1.5,0.4,1.5,1.2
					c0,0.9-0.3,1-1.6,1.5c-2.6,0.8-3.1,1.6-3.1,4c0,2.6,1.5,3.6,4.1,3.6c1.1,0,2.2-0.2,3.1-0.6l-0.4-2.3c-0.7,0.3-1.7,0.5-2.6,0.5
					c-1,0-1.5-0.3-1.5-1.2c0-0.8,0.3-1,1.5-1.4c2.4-0.8,3.2-1.3,3.2-3.9C-21.4,25.3-22.7,23.8-25.4,23.8"/>
			</g>
			<g id="g3481" transform="matrix(1.25,0,0,-1.25,493.39882,90.958925)">
				<path id="path3483" class="st0" d="M-41,23.5v8.8c0,0.6-0.3,0.9-1,0.9c-0.7,0-1.2-0.2-1.7-0.4v-9.4h-2.8v17.2l2.8,0.4v-6.2
					c0.7,0.6,1.9,1,2.9,1c1.7,0,2.6-0.8,2.6-2.6v-9.7H-41z"/>
			</g>
			<g id="g3485" transform="matrix(1.25,0,0,-1.25,534.21258,79.415675)">
				<path id="path3487" class="st0" d="M-60.1,18.1c0-2.5-1.5-4.1-4.4-4.1c-2.9,0-4.4,1.6-4.4,4.1v4.5c0,2.5,1.5,4.1,4.4,4.1
					c2.9,0,4.4-1.6,4.4-4.1V18.1z M-62.9,22.8c0,1-0.6,1.5-1.6,1.5c-1,0-1.6-0.4-1.6-1.5v-5c0-1,0.6-1.5,1.6-1.5
					c1,0,1.6,0.4,1.6,1.5V22.8z"/>
			</g>
			<g id="g3489" transform="matrix(1.25,0,0,-1.25,565.06395,80.39705)">
				<path id="path3491" class="st0" d="M-74.5,18.5c0-2.6-1.5-3.7-3.6-3.7c-0.7,0-1.6,0.2-2.1,0.4v-5l-2.8-0.4v17.5h2.2l0.3-0.9
					c0.7,0.6,1.7,1.1,3,1.1c2.1,0,3.1-1.1,3.1-3.4L-74.5,18.5L-74.5,18.5z M-77.3,23.7c0,0.8-0.3,1.2-1.1,1.2
					c-0.7,0-1.4-0.2-1.8-0.5v-7.1c0.4-0.2,0.9-0.2,1.4-0.2c1,0,1.6,0.4,1.6,1.5V23.7z"/>
			</g>
		</g>
		<g id="g3493" transform="matrix(1.25,0,0,-1.25,440.66758,90.958543)">
			<path id="path3495" class="st1" d="M-16.3,23.5h-6.1l6.1,6.1V23.5z"/>
		</g>
		<g id="g3497" transform="matrix(1.25,0,0,-1.25,440.66758,54.471293)">
			<path id="path3499" class="st1" d="M-16.3,6.4L-28.5-5.7v6.1l6.1,6.1H-16.3z"/>
		</g>
		<g id="g3501" transform="matrix(1.25,0,0,-1.25,440.66758,54.471293)">
			<path id="path3503" class="st0" d="M-16.3,6.4V0.4l-6.1-6.1h-6.1L-16.3,6.4z"/>
		</g>
		<g id="g3505" transform="matrix(1.25,0,0,-1.25,404.17958,54.471293)">
			<path id="path3507" class="st0" d="M0.7,6.4h6.1L0.7,0.4V6.4z"/>
		</g>
	</g>
</g>
</svg>
