<?xml version="1.0" encoding="utf-8"?>
<!-- Generator: Adobe Illustrator 24.1.0, SVG Export Plug-In . SVG Version: 6.00 Build 0)  -->
<svg version="1.1"
	 id="bhf_icon-logo" inkscape:export-filename="G:\Users\suitedoalex\sites\submarino-logo-0.png" inkscape:export-xdpi="561.73712" inkscape:export-ydpi="561.73712" inkscape:version="0.92.4 (5da689c313, 2019-01-14)" sodipodi:docname="submarino-logo.svg" xmlns:cc="http://creativecommons.org/ns#" xmlns:dc="http://purl.org/dc/elements/1.1/" xmlns:inkscape="http://www.inkscape.org/namespaces/inkscape" xmlns:rdf="http://www.w3.org/1999/02/22-rdf-syntax-ns#" xmlns:sodipodi="http://sodipodi.sourceforge.net/DTD/sodipodi-0.dtd" xmlns:svg="http://www.w3.org/2000/svg"
	 xmlns="http://www.w3.org/2000/svg" xmlns:xlink="http://www.w3.org/1999/xlink" x="0px" y="0px" viewBox="0 0 245.2 54.3"
	 style="enable-background:new 0 0 245.2 54.3;" xml:space="preserve">
<style type="text/css">
	.st0{fill:#0433FF;}
</style>
<sodipodi:namedview  bordercolor="#666666" borderopacity="1" gridtolerance="10" guidetolerance="10" id="namedview9" inkscape:current-layer="bhf_icon-logo" inkscape:cx="1506.0186" inkscape:cy="628.04284" inkscape:pageopacity="0" inkscape:pageshadow="2" inkscape:window-height="837" inkscape:window-maximized="1" inkscape:window-width="1600" inkscape:window-x="-8" inkscape:window-y="-8" inkscape:zoom="0.25954851" objecttolerance="10" pagecolor="#ffffff" showgrid="false">
	</sodipodi:namedview>
<g id="g6" transform="matrix(0.64786226,0,0,0.64786226,863.86661,203.39914)" inkscape:export-filename="G:\Users\suitedoalex\sites\submarino-logo-4.png" inkscape:export-xdpi="23.029825" inkscape:export-ydpi="23.029825">
	<path id="path2" inkscape:connector-curvature="0" class="st0" d="M-1222.2-275.9h-20v-5.5c0-4.9-3.9-8.7-8.7-8.7h-8.1v-8.4
		c0-2.6,0.4-2.8,4.1-2.8c2.2,0,4.1-1.8,4.1-4.1c0-2.2-1.7-4-3.9-4.1h-8.4c-2.8,0-4.1,2.4-4.1,4.1v15.3h-8.4c-5.7,0-8.7,4.4-8.7,8.7
		v5.5h-19.7c-7.6,0-14,5.3-15.8,12.3h-2.6v-4.1c0-2.3-1.8-4.1-4.1-4.1c-2.3,0-4.1,1.8-4.1,4.1v16.4c0,2.3,1.8,4.1,4.1,4.1
		s4.1-1.8,4.1-4.1v-4.1h2.7c1.8,7,8.2,12.2,15.8,12.2h81.8c9,0,16.4-7.3,16.4-16.4C-1205.8-268.6-1213.2-275.9-1222.2-275.9z"/>
	<path id="path4" inkscape:connector-curvature="0" class="st0" d="M-1177-275v7.1c-2.7-1.6-5.5-2.3-8.3-2.3c-1.3,0-2.3,0.3-3,0.8
		s-1,1.2-1,2s0.4,1.6,1.2,2.2c0.8,0.6,2.1,1.3,3.7,2.1c1,0.5,1.9,0.9,2.5,1.2c0.7,0.3,1.5,0.8,2.3,1.4s1.6,1.3,2.1,1.9
		c0.5,0.7,0.9,1.5,1.3,2.5c0.4,1,0.5,2.1,0.5,3.2c0,3-1.1,5.4-3.3,7.3c-2.2,1.9-5.2,2.8-8.8,2.8c-3.9,0-7.1-0.7-9.6-2.1v-7.7
		c3,2.2,6.2,3.3,9.6,3.3c1.2,0,2.1-0.3,2.9-0.9c0.8-0.6,1.1-1.4,1.1-2.4c0-0.3,0-0.6-0.1-0.9c-0.1-0.3-0.3-0.6-0.5-0.8
		c-0.3-0.3-0.5-0.5-0.8-0.7c-0.2-0.2-0.6-0.4-1.1-0.6s-0.9-0.5-1.2-0.6c-0.3-0.2-0.8-0.4-1.5-0.7c-0.6-0.3-1.2-0.5-1.6-0.7
		c-2.1-1-3.9-2.2-5.2-3.7s-2-3.4-2-5.8c0-2.9,1.1-5.2,3.2-7c2.1-1.8,5-2.6,8.8-2.6C-1182.3-276.7-1179.4-276.2-1177-275z
		 M-1155.2-268.2h7.2v25.1h-7.2v-4c-1.3,2.8-3.9,4.2-7.6,4.2c-2.6,0-4.6-0.7-6-2.2c-1.4-1.4-2.2-3.6-2.2-6.4v-16.8h7.2v15.2
		c0,2.9,1.3,4.4,3.9,4.4c3.1,0,4.7-2.1,4.7-6.3L-1155.2-268.2L-1155.2-268.2z M-1134.9-278.2v13.8c1.7-2.8,4.2-4.2,7.5-4.2
		c3.1,0,5.7,1.1,7.8,3.4c2,2.3,3.1,5.4,3.1,9.4c0,3.5-1,6.6-3,9.1c-2,2.5-4.6,3.8-7.9,3.8c-3.3,0-5.9-1.4-7.5-4.2v3.9h-7.2v-35.1
		H-1134.9z M-1129.3-248.9c1.5,0,2.8-0.6,3.9-1.9c1.1-1.2,1.6-2.9,1.6-4.9c0-2.2-0.5-3.9-1.6-5.1c-1-1.2-2.3-1.8-3.8-1.8
		c-1.5,0-2.8,0.6-3.9,1.7c-1.1,1.2-1.7,2.8-1.7,4.9c0,2.1,0.5,3.9,1.5,5.2C-1132.3-249.5-1131-248.9-1129.3-248.9L-1129.3-248.9z
		 M-1104.7-268.2v3.9c1.4-2.8,3.8-4.2,7.1-4.2c3.5,0,5.9,1.6,7,4.8c0.6-1.5,1.5-2.6,2.8-3.5c1.3-0.8,2.9-1.3,4.7-1.3
		c2.5,0,4.4,0.8,5.9,2.4s2.2,3.9,2.2,6.9v16.1h-7.2V-258c0-1.4-0.3-2.5-0.8-3.4s-1.4-1.2-2.4-1.2c-1.1,0-2.1,0.5-3,1.4
		c-0.9,0.9-1.3,2.5-1.3,4.9v13.3h-7.2V-258c0-1.4-0.3-2.5-0.8-3.4s-1.4-1.2-2.4-1.2c-1.1,0-2.1,0.5-3,1.4c-0.9,0.9-1.3,2.5-1.3,4.9
		v13.3h-7.2v-25.1H-1104.7z M-1068.9-260.5v-6.5c2-1.1,4.8-1.7,8.6-1.7c3.6,0,6.2,0.8,8,2.3c1.8,1.5,2.6,3.9,2.6,7.2v16.1h-7.1v-3.1
		c-1.1,2.1-3.1,3.2-6.2,3.2c-2.4,0-4.4-0.7-5.7-2.1c-1.4-1.4-2.1-3.1-2.1-5.2c0-2.4,0.9-4.3,2.6-5.6c1.8-1.3,4.4-2,7.9-2h3.2v-1.7
		c0-2.1-1.4-3.2-4.2-3.2C-1064-262.8-1066.5-262-1068.9-260.5L-1068.9-260.5z M-1057.1-253.4h-2.3c-1.2,0-2.2,0.3-2.8,0.8
		c-0.7,0.5-1,1.2-1,2c0,1.7,1,2.5,2.9,2.5c1,0,1.8-0.3,2.4-0.9c0.6-0.6,0.8-1.5,0.8-2.6V-253.4z M-1036.8-268.2v4.7
		c0.5-1.5,1.2-2.6,2.3-3.5c1.1-0.9,2.3-1.3,3.7-1.3c0.8,0,1.4,0.1,1.9,0.2v6.8c-0.8-0.4-1.7-0.5-2.7-0.5c-1.6,0-2.8,0.6-3.8,1.7
		c-1,1.1-1.4,2.6-1.4,4.5v12.6h-7.2l0-25.1C-1044-268.2-1036.8-268.2-1036.8-268.2z M-1024.8-271c-0.8-0.8-1.2-1.8-1.2-3
		c0-1.2,0.4-2.1,1.2-3c0.8-0.8,1.8-1.2,3-1.2c1.2,0,2.1,0.4,3,1.2c0.8,0.8,1.2,1.8,1.2,3c0,1.2-0.4,2.1-1.2,3
		c-0.8,0.8-1.8,1.2-3,1.2C-1023-269.7-1024-270.1-1024.8-271z M-1025.5-243.1v-25.1h7.2v25.1
		C-1018.2-243.1-1025.5-243.1-1025.5-243.1z M-1005-268.2v4.3c0.6-1.4,1.6-2.5,2.9-3.3c1.3-0.8,2.9-1.2,4.7-1.2c2.6,0,4.6,0.8,6,2.3
		c1.5,1.5,2.2,3.8,2.2,6.8v16.3h-7.2v-15c0-1.5-0.3-2.6-1-3.4c-0.7-0.8-1.7-1.2-2.9-1.2c-1.3,0-2.4,0.5-3.3,1.6
		c-0.9,1-1.3,2.6-1.3,4.7v13.3h-7.2v-25.2H-1005z M-972.5-242.7c-3.9,0-7-1.2-9.1-3.5c-2.1-2.4-3.2-5.4-3.2-9.1
		c0-3.9,1.1-7.1,3.4-9.5c2.2-2.5,5.2-3.7,9-3.7c3.9,0,6.9,1.2,9.1,3.6c2.1,2.4,3.2,5.5,3.2,9.2c0,3.8-1.1,6.9-3.3,9.4
		C-965.6-243.9-968.6-242.7-972.5-242.7L-972.5-242.7z M-972.5-262.9c-1.6,0-2.8,0.7-3.6,2c-0.8,1.4-1.2,3.1-1.2,5.3
		c0,2.1,0.4,3.9,1.2,5.3s2,2.1,3.6,2.1c1.6,0,2.8-0.7,3.5-2s1.2-3.1,1.2-5.2C-967.7-260.5-969.3-262.9-972.5-262.9z"/>
</g>
</svg>
