<?xml version="1.0" encoding="utf-8"?>
<!-- Generator: Adobe Illustrator 24.1.0, SVG Export Plug-In . SVG Version: 6.00 Build 0)  -->
<svg version="1.1" id="Camada_1" xmlns="http://www.w3.org/2000/svg" xmlns:xlink="http://www.w3.org/1999/xlink" x="0px" y="0px"
	 viewBox="0 0 202 202" style="enable-background:new 0 0 202 202;" xml:space="preserve">
<style type="text/css">
	.st0{fill:#5600FF;}
</style>
<g>
	<g>
		<path class="st0" d="M75.2,93.5v10.4c0,1.7-0.2,3.7,0.2,5.1c0.5,1.8,1.8,3.3,3.2,4.1c1.9,1.1,5.4,0.8,8.4,0.8h17.9
			c17.2,0,30.7,0.2,38.2-9.6c2.7-3.6,5-9.3,3.7-15.9c-0.6-3-1.4-5.3-2.9-7.3c-2.1-2.8-5.8-5-9.2-6.5c-1.2-0.4-2.4-0.9-3.6-1.3h-0.2
			v-0.1c5.3-1.6,10.2-5.3,12.2-10.2c4-9.3-0.7-18.3-6.3-22.2c-6.1-4.3-15-4.4-25.6-4.4H81.3c-2.5,1-3.8,1-5.2,3.2
			c-1.8,3-1,11.5-1,16.2C75.2,68.5,75.2,81,75.2,93.5z M121.2,87.5c0.2,1.2,0.1,2.7-0.3,3.6c-1.7,4-8.3,3.4-14.1,3.4
			c-2,0-5.3,0.5-6.1-0.8c-0.5-0.8-0.5-8.9-0.1-9.9c0.3-0.7,0.8-0.7,1.6-1.1C109.6,82.8,119.8,81.3,121.2,87.5z M100.1,57.5
			c0.1-0.6,0.5-0.9,0.8-1.3c0.9-0.1,1.7-0.2,2.6-0.2c6.5-0.1,14.7-1,15.8,4.4c0.3,1.4,0,3-0.6,4c-2,3.1-7.7,2.6-12.8,2.6
			c-1.4,0-4.1,0.4-5.1-0.2C100,66.2,99.7,59.3,100.1,57.5z M162.3,120.9c-1.6-1.2-3.9-0.9-6.5-1.3c-2.8-0.5-5.9,0.1-8.9-0.4h-6.6
			c-5.1,0.8-10.1,0.4-14.9,1.4c-10.8,2.1-20.4,4.4-29.4,8.2c-3.6,1.6-7.3,3.3-10.9,4.9c-1.3,0.6-3.3,1.7-5.1,1
			c-3.1-1.3-5-8.8-6.4-12.2c-4.6-11.3-9.2-22.5-13.7-33.8c-1.2-2.9-3.9-11.6-5.8-13.1c-1-0.8-2.1-1.1-3.9-1.1
			c-5.5,1.2-10.9,2.5-16.4,3.7c-3.2,0.8-7,1.6-6.2,6.2c0.4,2.1,1.9,3.6,4,4.1c1.7,0.3,3.4-0.4,4.8-0.8c3.8-0.8,7.7-1.7,11.5-2.5
			c6.1,15,12.1,30,18.2,44.9c2.9,7.1,5.2,13.2,13.7,14.6c5.4,0.9,10.7-2.8,14.3-4.4c8.1-3.6,16.4-6.4,25.9-8.8
			c4.9-1.2,10.2-1.3,15.6-2.2c2.1-0.1,4.2-0.2,6.3-0.2c2.8-0.4,7.5-0.3,10.2,0.2c1.2,0.1,2.4,0.1,3.5,0.2c3.8,0.6,6.9,0.2,8-2.6
			C164.8,124.5,163.8,121.9,162.3,120.9z M143.6,138c-0.7,0.2-1.4,0.3-2.1,0.5c-2.7,1-4.9,3.1-6.1,5.6c-3.3,7.3,0.4,14.8,7.2,16
			c7.2,1.2,12.8-7.9,10.7-14.9C152,141.1,149.1,138,143.6,138z M106.2,145.3c-0.9,0.3-1.9,0.6-2.8,0.8c-2.9,1.3-5,4.3-5.9,7.6
			c-1.8,6.4,2.9,14.6,9.3,13.7c4.7-0.7,7.5-3.1,9-7C118.9,152.6,114.1,145.2,106.2,145.3z"/>
	</g>
</g>
</svg>
